<?xml version="1.0" encoding="UTF-8" standalone="no"?>
<svg width="940px" height="70px" viewBox="0 0 940 70" version="1.1" xmlns="http://www.w3.org/2000/svg" xmlns:xlink="http://www.w3.org/1999/xlink">
    <!-- Generator: sketchtool 39.1 (31720) - http://www.bohemiancoding.com/sketch -->
    <title>8A4A376E-E560-465A-A81D-5FE8E1EBB422</title>
    <desc>Created with sketchtool.</desc>
    <defs></defs>
    <g id="Portfolio" stroke="none" stroke-width="1" fill="none" fill-rule="evenodd" opacity="0.119999997">
        <g transform="translate(-42.000000, -1800.000000)" id="2" stroke-width="3" stroke="#E6E6E6">
            <g transform="translate(42.000000, 1800.000000)">
                <g id="bg">
                    <g id="bubbles-bg" transform="translate(-22.000000, -13.028322)">
                        <g id="bubbles-bg-copy">
                            <path d="M952.533333,35.1430646 C962.216726,35.1430646 970.066667,27.2760216 970.066667,17.5715323 C970.066667,7.86704299 962.216726,0 952.533333,0 C942.849941,0 935,7.86704299 935,17.5715323 C935,27.2760216 942.849941,35.1430646 952.533333,35.1430646 Z M940.844444,16.4341171 C940.844444,10.5926346 945.569607,5.85717744 951.398391,5.85717744 C947.80715,7.93098686 945.811007,11.4498385 945.811007,16.4341171 C945.811007,21.4183958 940.844444,22.2755996 940.844444,16.4341171 Z" id="bubble-copy-12"></path>
                            <path d="M867.533333,35.1430646 C877.216726,35.1430646 885.066667,27.2760216 885.066667,17.5715323 C885.066667,7.86704299 877.216726,0 867.533333,0 C857.849941,0 850,7.86704299 850,17.5715323 C850,27.2760216 857.849941,35.1430646 867.533333,35.1430646 Z M855.844444,16.4341171 C855.844444,10.5926346 860.569607,5.85717744 866.398391,5.85717744 C862.80715,7.93098686 860.811007,11.4498385 860.811007,16.4341171 C860.811007,21.4183958 855.844444,22.2755996 855.844444,16.4341171 Z" id="bubble-copy-11"></path>
                            <path d="M782.533333,35.1430646 C792.216726,35.1430646 800.066667,27.2760216 800.066667,17.5715323 C800.066667,7.86704299 792.216726,0 782.533333,0 C772.849941,0 765,7.86704299 765,17.5715323 C765,27.2760216 772.849941,35.1430646 782.533333,35.1430646 Z M770.844444,16.4341171 C770.844444,10.5926346 775.569607,5.85717744 781.398391,5.85717744 C777.80715,7.93098686 775.811007,11.4498385 775.811007,16.4341171 C775.811007,21.4183958 770.844444,22.2755996 770.844444,16.4341171 Z" id="bubble-copy-10"></path>
                            <path d="M697.533333,35.1430646 C707.216726,35.1430646 715.066667,27.2760216 715.066667,17.5715323 C715.066667,7.86704299 707.216726,0 697.533333,0 C687.849941,0 680,7.86704299 680,17.5715323 C680,27.2760216 687.849941,35.1430646 697.533333,35.1430646 Z M685.844444,16.4341171 C685.844444,10.5926346 690.569607,5.85717744 696.398391,5.85717744 C692.80715,7.93098686 690.811007,11.4498385 690.811007,16.4341171 C690.811007,21.4183958 685.844444,22.2755996 685.844444,16.4341171 Z" id="bubble-copy-9"></path>
                            <path d="M612.533333,35.1430646 C622.216726,35.1430646 630.066667,27.2760216 630.066667,17.5715323 C630.066667,7.86704299 622.216726,0 612.533333,0 C602.849941,0 595,7.86704299 595,17.5715323 C595,27.2760216 602.849941,35.1430646 612.533333,35.1430646 Z M600.844444,16.4341171 C600.844444,10.5926346 605.569607,5.85717744 611.398391,5.85717744 C607.80715,7.93098686 605.811007,11.4498385 605.811007,16.4341171 C605.811007,21.4183958 600.844444,22.2755996 600.844444,16.4341171 Z" id="bubble-copy-8"></path>
                            <path d="M527.533333,35.1430646 C537.216726,35.1430646 545.066667,27.2760216 545.066667,17.5715323 C545.066667,7.86704299 537.216726,0 527.533333,0 C517.849941,0 510,7.86704299 510,17.5715323 C510,27.2760216 517.849941,35.1430646 527.533333,35.1430646 Z M515.844444,16.4341171 C515.844444,10.5926346 520.569607,5.85717744 526.398391,5.85717744 C522.80715,7.93098686 520.811007,11.4498385 520.811007,16.4341171 C520.811007,21.4183958 515.844444,22.2755996 515.844444,16.4341171 Z" id="bubble-copy-7"></path>
                            <path d="M442.533333,35.1430646 C452.216726,35.1430646 460.066667,27.2760216 460.066667,17.5715323 C460.066667,7.86704299 452.216726,0 442.533333,0 C432.849941,0 425,7.86704299 425,17.5715323 C425,27.2760216 432.849941,35.1430646 442.533333,35.1430646 Z M430.844444,16.4341171 C430.844444,10.5926346 435.569607,5.85717744 441.398391,5.85717744 C437.80715,7.93098686 435.811007,11.4498385 435.811007,16.4341171 C435.811007,21.4183958 430.844444,22.2755996 430.844444,16.4341171 Z" id="bubble-copy-6"></path>
                            <path d="M357.533333,35.1430646 C367.216726,35.1430646 375.066667,27.2760216 375.066667,17.5715323 C375.066667,7.86704299 367.216726,0 357.533333,0 C347.849941,0 340,7.86704299 340,17.5715323 C340,27.2760216 347.849941,35.1430646 357.533333,35.1430646 Z M345.844444,16.4341171 C345.844444,10.5926346 350.569607,5.85717744 356.398391,5.85717744 C352.80715,7.93098686 350.811007,11.4498385 350.811007,16.4341171 C350.811007,21.4183958 345.844444,22.2755996 345.844444,16.4341171 Z" id="bubble-copy-5"></path>
                            <path d="M272.533333,35.1430646 C282.216726,35.1430646 290.066667,27.2760216 290.066667,17.5715323 C290.066667,7.86704299 282.216726,0 272.533333,0 C262.849941,0 255,7.86704299 255,17.5715323 C255,27.2760216 262.849941,35.1430646 272.533333,35.1430646 Z M260.844444,16.4341171 C260.844444,10.5926346 265.569607,5.85717744 271.398391,5.85717744 C267.80715,7.93098686 265.811007,11.4498385 265.811007,16.4341171 C265.811007,21.4183958 260.844444,22.2755996 260.844444,16.4341171 Z" id="bubble-copy-4"></path>
                            <path d="M187.533333,35.1430646 C197.216726,35.1430646 205.066667,27.2760216 205.066667,17.5715323 C205.066667,7.86704299 197.216726,0 187.533333,0 C177.849941,0 170,7.86704299 170,17.5715323 C170,27.2760216 177.849941,35.1430646 187.533333,35.1430646 Z M175.844444,16.4341171 C175.844444,10.5926346 180.569607,5.85717744 186.398391,5.85717744 C182.80715,7.93098686 180.811007,11.4498385 180.811007,16.4341171 C180.811007,21.4183958 175.844444,22.2755996 175.844444,16.4341171 Z" id="bubble-copy-3"></path>
                            <path d="M102.533333,35.1430646 C112.216726,35.1430646 120.066667,27.2760216 120.066667,17.5715323 C120.066667,7.86704299 112.216726,0 102.533333,0 C92.8499407,0 85,7.86704299 85,17.5715323 C85,27.2760216 92.8499407,35.1430646 102.533333,35.1430646 Z M90.8444444,16.4341171 C90.8444444,10.5926346 95.5696072,5.85717744 101.398391,5.85717744 C97.8071499,7.93098686 95.8110074,11.4498385 95.8110074,16.4341171 C95.8110074,21.4183958 90.8444444,22.2755996 90.8444444,16.4341171 Z" id="bubble-copy-2"></path>
                            <path d="M17.5333333,35.1430646 C27.2167259,35.1430646 35.0666667,27.2760216 35.0666667,17.5715323 C35.0666667,7.86704299 27.2167259,0 17.5333333,0 C7.84994072,0 0,7.86704299 0,17.5715323 C0,27.2760216 7.84994072,35.1430646 17.5333333,35.1430646 Z M5.84444444,16.4341171 C5.84444444,10.5926346 10.5696072,5.85717744 16.3983908,5.85717744 C12.8071499,7.93098686 10.8110074,11.4498385 10.8110074,16.4341171 C10.8110074,21.4183958 5.84444444,22.2755996 5.84444444,16.4341171 Z" id="bubble-copy"></path>
                            <path d="M907.533333,81.2432825 C917.216726,81.2432825 925.066667,73.3762395 925.066667,63.6717502 C925.066667,53.9672609 917.216726,46.1002179 907.533333,46.1002179 C897.849941,46.1002179 890,53.9672609 890,63.6717502 C890,73.3762395 897.849941,81.2432825 907.533333,81.2432825 Z M895.844444,62.534335 C895.844444,56.6928525 900.569607,51.9573953 906.398391,51.9573953 C902.80715,54.0312047 900.811007,57.5500564 900.811007,62.534335 C900.811007,67.5186136 895.844444,68.3758175 895.844444,62.534335 Z" id="bubble-copy-22"></path>
                            <path d="M822.533333,81.2432825 C832.216726,81.2432825 840.066667,73.3762395 840.066667,63.6717502 C840.066667,53.9672609 832.216726,46.1002179 822.533333,46.1002179 C812.849941,46.1002179 805,53.9672609 805,63.6717502 C805,73.3762395 812.849941,81.2432825 822.533333,81.2432825 Z M810.844444,62.534335 C810.844444,56.6928525 815.569607,51.9573953 821.398391,51.9573953 C817.80715,54.0312047 815.811007,57.5500564 815.811007,62.534335 C815.811007,67.5186136 810.844444,68.3758175 810.844444,62.534335 Z" id="bubble-copy-23"></path>
                            <path d="M737.533333,81.2432825 C747.216726,81.2432825 755.066667,73.3762395 755.066667,63.6717502 C755.066667,53.9672609 747.216726,46.1002179 737.533333,46.1002179 C727.849941,46.1002179 720,53.9672609 720,63.6717502 C720,73.3762395 727.849941,81.2432825 737.533333,81.2432825 Z M725.844444,62.534335 C725.844444,56.6928525 730.569607,51.9573953 736.398391,51.9573953 C732.80715,54.0312047 730.811007,57.5500564 730.811007,62.534335 C730.811007,67.5186136 725.844444,68.3758175 725.844444,62.534335 Z" id="bubble-copy-24"></path>
                            <path d="M652.533333,81.2432825 C662.216726,81.2432825 670.066667,73.3762395 670.066667,63.6717502 C670.066667,53.9672609 662.216726,46.1002179 652.533333,46.1002179 C642.849941,46.1002179 635,53.9672609 635,63.6717502 C635,73.3762395 642.849941,81.2432825 652.533333,81.2432825 Z M640.844444,62.534335 C640.844444,56.6928525 645.569607,51.9573953 651.398391,51.9573953 C647.80715,54.0312047 645.811007,57.5500564 645.811007,62.534335 C645.811007,67.5186136 640.844444,68.3758175 640.844444,62.534335 Z" id="bubble-copy-25"></path>
                            <path d="M567.533333,81.2432825 C577.216726,81.2432825 585.066667,73.3762395 585.066667,63.6717502 C585.066667,53.9672609 577.216726,46.1002179 567.533333,46.1002179 C557.849941,46.1002179 550,53.9672609 550,63.6717502 C550,73.3762395 557.849941,81.2432825 567.533333,81.2432825 Z M555.844444,62.534335 C555.844444,56.6928525 560.569607,51.9573953 566.398391,51.9573953 C562.80715,54.0312047 560.811007,57.5500564 560.811007,62.534335 C560.811007,67.5186136 555.844444,68.3758175 555.844444,62.534335 Z" id="bubble-copy-26"></path>
                            <path d="M482.533333,81.2432825 C492.216726,81.2432825 500.066667,73.3762395 500.066667,63.6717502 C500.066667,53.9672609 492.216726,46.1002179 482.533333,46.1002179 C472.849941,46.1002179 465,53.9672609 465,63.6717502 C465,73.3762395 472.849941,81.2432825 482.533333,81.2432825 Z M470.844444,62.534335 C470.844444,56.6928525 475.569607,51.9573953 481.398391,51.9573953 C477.80715,54.0312047 475.811007,57.5500564 475.811007,62.534335 C475.811007,67.5186136 470.844444,68.3758175 470.844444,62.534335 Z" id="bubble-copy-27"></path>
                            <path d="M397.533333,81.2432825 C407.216726,81.2432825 415.066667,73.3762395 415.066667,63.6717502 C415.066667,53.9672609 407.216726,46.1002179 397.533333,46.1002179 C387.849941,46.1002179 380,53.9672609 380,63.6717502 C380,73.3762395 387.849941,81.2432825 397.533333,81.2432825 Z M385.844444,62.534335 C385.844444,56.6928525 390.569607,51.9573953 396.398391,51.9573953 C392.80715,54.0312047 390.811007,57.5500564 390.811007,62.534335 C390.811007,67.5186136 385.844444,68.3758175 385.844444,62.534335 Z" id="bubble-copy-28"></path>
                            <path d="M312.533333,81.2432825 C322.216726,81.2432825 330.066667,73.3762395 330.066667,63.6717502 C330.066667,53.9672609 322.216726,46.1002179 312.533333,46.1002179 C302.849941,46.1002179 295,53.9672609 295,63.6717502 C295,73.3762395 302.849941,81.2432825 312.533333,81.2432825 Z M300.844444,62.534335 C300.844444,56.6928525 305.569607,51.9573953 311.398391,51.9573953 C307.80715,54.0312047 305.811007,57.5500564 305.811007,62.534335 C305.811007,67.5186136 300.844444,68.3758175 300.844444,62.534335 Z" id="bubble-copy-29"></path>
                            <path d="M227.533333,81.2432825 C237.216726,81.2432825 245.066667,73.3762395 245.066667,63.6717502 C245.066667,53.9672609 237.216726,46.1002179 227.533333,46.1002179 C217.849941,46.1002179 210,53.9672609 210,63.6717502 C210,73.3762395 217.849941,81.2432825 227.533333,81.2432825 Z M215.844444,62.534335 C215.844444,56.6928525 220.569607,51.9573953 226.398391,51.9573953 C222.80715,54.0312047 220.811007,57.5500564 220.811007,62.534335 C220.811007,67.5186136 215.844444,68.3758175 215.844444,62.534335 Z" id="bubble-copy-30"></path>
                            <path d="M142.533333,81.2432825 C152.216726,81.2432825 160.066667,73.3762395 160.066667,63.6717502 C160.066667,53.9672609 152.216726,46.1002179 142.533333,46.1002179 C132.849941,46.1002179 125,53.9672609 125,63.6717502 C125,73.3762395 132.849941,81.2432825 142.533333,81.2432825 Z M130.844444,62.534335 C130.844444,56.6928525 135.569607,51.9573953 141.398391,51.9573953 C137.80715,54.0312047 135.811007,57.5500564 135.811007,62.534335 C135.811007,67.5186136 130.844444,68.3758175 130.844444,62.534335 Z" id="bubble-copy-31"></path>
                            <path d="M57.5333333,81.2432825 C67.2167259,81.2432825 75.0666667,73.3762395 75.0666667,63.6717502 C75.0666667,53.9672609 67.2167259,46.1002179 57.5333333,46.1002179 C47.8499407,46.1002179 40,53.9672609 40,63.6717502 C40,73.3762395 47.8499407,81.2432825 57.5333333,81.2432825 Z M45.8444444,62.534335 C45.8444444,56.6928525 50.5696072,51.9573953 56.3983908,51.9573953 C52.8071499,54.0312047 50.8110074,57.5500564 50.8110074,62.534335 C50.8110074,67.5186136 45.8444444,68.3758175 45.8444444,62.534335 Z" id="bubble-copy-32"></path>
                        </g>
                    </g>
                </g>
            </g>
        </g>
    </g>
</svg>