<?xml version="1.0" encoding="UTF-8" standalone="no"?>
<svg width="251px" height="42px" viewBox="0 0 251 42" version="1.1" xmlns="http://www.w3.org/2000/svg" xmlns:xlink="http://www.w3.org/1999/xlink">
    <!-- Generator: sketchtool 39.1 (31720) - http://www.bohemiancoding.com/sketch -->
    <title>9AA065DF-C112-440E-BD28-FA74E90AB777</title>
    <desc>Created with sketchtool.</desc>
    <defs>
        <linearGradient x1="100%" y1="83.6013496%" x2="0%" y2="83.6009383%" id="linearGradient-1">
            <stop stop-color="#ECC27E" offset="0%"></stop>
            <stop stop-color="#F5C1E4" offset="41.1126503%"></stop>
            <stop stop-color="#8FC8E4" offset="69.399133%"></stop>
            <stop stop-color="#AE81D4" offset="100%"></stop>
        </linearGradient>
    </defs>
    <g id="Portfolio" stroke="none" stroke-width="1" fill="none" fill-rule="evenodd">
        <g transform="translate(-621.000000, -1856.000000)" id="2" fill="url(#linearGradient-1)">
            <g transform="translate(42.000000, 1800.000000)">
                <g id="text" transform="translate(497.000000, 56.000000)">
                    <path d="M329.71489,24.6695375 L322.45736,24.6695375 C322.466421,25.5121763 322.636305,26.2551369 322.967018,26.8984418 C323.297732,27.5417466 323.737166,28.0264832 324.285334,28.3526659 C324.833502,28.6788486 325.43829,28.8419376 326.099716,28.8419376 C326.543687,28.8419376 326.949144,28.7898397 327.3161,28.6856425 C327.683056,28.5814452 328.03868,28.4183563 328.382984,28.1963708 C328.727288,27.9743853 329.044405,27.7365473 329.334346,27.4828496 C329.624286,27.2291519 330.000296,26.8848531 330.462389,26.4499427 C330.652662,26.2868514 330.924477,26.2053069 331.277841,26.2053069 C331.658388,26.2053069 331.966445,26.3095026 332.202021,26.5178971 C332.437598,26.7262917 332.555384,27.0207578 332.555384,27.4013043 C332.555384,27.7365477 332.424007,28.1284141 332.161249,28.5769154 C331.89849,29.0254167 331.502094,29.4557902 330.972047,29.868049 C330.442,30.2803077 329.776053,30.6223414 328.974187,30.8941604 C328.172321,31.1659794 327.250416,31.3018868 326.208443,31.3018868 C323.825497,31.3018868 321.972626,30.6223496 320.649773,29.2632548 C319.326921,27.9041601 318.665505,26.0603492 318.665505,23.7317668 C318.665505,22.6354304 318.828594,21.6183897 319.154777,20.6806143 C319.480959,19.7428389 319.956635,18.9387199 320.581819,18.2682332 C321.207003,17.5977464 321.977145,17.0835633 322.892269,16.7256683 C323.807392,16.3677734 324.822168,16.1888286 325.936626,16.1888286 C327.386327,16.1888286 328.62988,16.4946203 329.667322,17.106213 C330.704764,17.7178056 331.481702,18.5083339 331.998158,19.4778215 C332.514614,20.4473091 332.772838,21.4349031 332.772838,22.4406332 C332.772838,23.3738783 332.505554,23.9786664 331.970976,24.2550157 C331.436399,24.531365 330.684378,24.6695375 329.71489,24.6695375 L329.71489,24.6695375 L329.71489,24.6695375 Z M311.815702,29.0458008 L311.815702,12.9541992 C311.815702,12.2112274 311.981056,11.6494767 312.311769,11.2689302 C312.642482,10.8883836 313.088711,10.6981132 313.65047,10.6981132 C314.21223,10.6981132 314.665254,10.8861185 315.009558,11.2621347 C315.353862,11.6381509 315.526012,12.2021668 315.526012,12.9541992 L315.526012,29.0458008 C315.526012,29.7978332 315.351597,30.3618491 315.002763,30.7378653 C314.653929,31.1138815 314.203169,31.3018868 313.65047,31.3018868 C313.106833,31.3018868 312.665133,31.1070861 312.32536,30.717479 C311.985586,30.3278718 311.815702,29.7706513 311.815702,29.0458008 L311.815702,29.0458008 L311.815702,29.0458008 Z M297.844277,12.8182904 L297.844277,18.4856873 C298.541946,17.7608367 299.253195,17.2058813 299.978046,16.8208045 C300.702896,16.4357277 301.599885,16.2431921 302.66904,16.2431921 C303.901286,16.2431921 304.98175,16.5353931 305.910464,17.1198039 C306.839179,17.7042146 307.559489,18.551371 308.071414,19.6612984 C308.58334,20.7712257 308.839299,22.0872628 308.839299,23.6094489 C308.839299,24.7329672 308.696596,25.7635986 308.411186,26.701374 C308.125776,27.6391494 307.711259,28.4523289 307.167621,29.1409369 C306.623983,29.8295449 305.964832,30.3618491 305.190148,30.7378653 C304.415464,31.1138815 303.561512,31.3018868 302.628267,31.3018868 C302.057447,31.3018868 301.520613,31.2339331 301.017748,31.0980236 C300.514883,30.9621141 300.086774,30.7831693 299.73341,30.5611839 C299.380045,30.3391984 299.078784,30.1104209 298.829616,29.8748444 C298.580449,29.639268 298.252006,29.2859087 297.844277,28.8147558 L297.844277,29.1817096 C297.844277,29.8793782 297.676658,30.4071521 297.341415,30.765047 C297.006171,31.122942 296.580328,31.3018868 296.063872,31.3018868 C295.538356,31.3018868 295.119308,31.122942 294.806716,30.765047 C294.494124,30.4071521 294.33783,29.8793782 294.33783,29.1817096 L294.33783,12.981381 C294.33783,12.2293486 294.489594,11.6608024 294.793125,11.2757256 C295.096656,10.8906487 295.520234,10.6981132 296.063872,10.6981132 C296.634692,10.6981132 297.074126,10.8815882 297.382187,11.2485438 C297.690249,11.6154994 297.844277,12.1387431 297.844277,12.8182904 L297.844277,12.8182904 L297.844277,12.8182904 Z M280.447951,12.8182904 L280.447951,18.4856873 C281.14562,17.7608367 281.856869,17.2058813 282.58172,16.8208045 C283.30657,16.4357277 284.203559,16.2431921 285.272714,16.2431921 C286.50496,16.2431921 287.585424,16.5353931 288.514138,17.1198039 C289.442853,17.7042146 290.163163,18.551371 290.675088,19.6612984 C291.187014,20.7712257 291.442973,22.0872628 291.442973,23.6094489 C291.442973,24.7329672 291.30027,25.7635986 291.01486,26.701374 C290.72945,27.6391494 290.314933,28.4523289 289.771295,29.1409369 C289.227657,29.8295449 288.568506,30.3618491 287.793822,30.7378653 C287.019138,31.1138815 286.165186,31.3018868 285.231941,31.3018868 C284.661121,31.3018868 284.124287,31.2339331 283.621422,31.0980236 C283.118557,30.9621141 282.690448,30.7831693 282.337084,30.5611839 C281.983719,30.3391984 281.682458,30.1104209 281.43329,29.8748444 C281.184123,29.639268 280.85568,29.2859087 280.447951,28.8147558 L280.447951,29.1817096 C280.447951,29.8793782 280.280332,30.4071521 279.945089,30.765047 C279.609845,31.122942 279.184002,31.3018868 278.667546,31.3018868 C278.14203,31.3018868 277.722982,31.122942 277.41039,30.765047 C277.097798,30.4071521 276.941504,29.8793782 276.941504,29.1817096 L276.941504,12.981381 C276.941504,12.2293486 277.093268,11.6608024 277.396799,11.2757256 C277.70033,10.8906487 278.123908,10.6981132 278.667546,10.6981132 C279.238366,10.6981132 279.6778,10.8815882 279.985862,11.2485438 C280.293923,11.6154994 280.447951,12.1387431 280.447951,12.8182904 L280.447951,12.8182904 L280.447951,12.8182904 Z M269.847065,29.2088913 L269.847065,28.7332105 C269.403094,29.2949697 268.936479,29.7661155 268.447205,30.146662 C267.957931,30.5272086 267.423361,30.810349 266.843481,30.996092 C266.2636,31.181835 265.602184,31.274705 264.859212,31.274705 C263.96221,31.274705 263.158091,31.0889649 262.446831,30.717479 C261.735572,30.3459931 261.185147,29.834075 260.795539,29.1817096 C260.333447,28.3934346 260.102405,27.2608726 260.102405,25.7839896 L260.102405,18.4313237 C260.102405,17.6883519 260.270024,17.1333966 260.605267,16.766441 C260.94051,16.3994854 261.384475,16.2160104 261.937173,16.2160104 C262.498932,16.2160104 262.951957,16.4017505 263.296261,16.7732364 C263.640565,17.1447223 263.812715,17.6974126 263.812715,18.4313237 L263.812715,24.3705382 C263.812715,25.2312982 263.885199,25.9538727 264.030169,26.5382835 C264.175139,27.1226942 264.435628,27.5802493 264.811644,27.9109623 C265.187661,28.2416754 265.697313,28.4070294 266.340618,28.4070294 C266.965802,28.4070294 267.554734,28.2212893 268.107433,27.8498034 C268.660131,27.4783175 269.063323,26.9935809 269.317021,26.3955792 C269.525415,25.8700626 269.629611,24.7193796 269.629611,22.9434958 L269.629611,18.4313237 C269.629611,17.6974126 269.801761,17.1447223 270.146065,16.7732364 C270.490369,16.4017505 270.938863,16.2160104 271.491562,16.2160104 C272.04426,16.2160104 272.488225,16.3994854 272.823468,16.766441 C273.158711,17.1333966 273.32633,17.6883519 273.32633,18.4313237 L273.32633,29.1817096 C273.32633,29.8884388 273.165507,30.4184778 272.843854,30.7718425 C272.522202,31.1252071 272.107684,31.3018868 271.600289,31.3018868 C271.092893,31.3018868 270.673845,31.1184118 270.343132,30.7514562 C270.012419,30.3845006 269.847065,29.8703174 269.847065,29.2088913 L269.847065,29.2088913 L269.847065,29.2088913 Z M245.872754,22.4406332 L244.459302,22.4406332 L244.459302,28.8419376 C244.459302,29.6845763 244.273562,30.3052203 243.902076,30.7038881 C243.53059,31.1025559 243.045854,31.3018868 242.447852,31.3018868 C241.804547,31.3018868 241.30622,31.0934954 240.952855,30.6767063 C240.59949,30.2599173 240.422811,29.6483338 240.422811,28.8419376 L240.422811,13.5114253 C240.422811,12.6416047 240.617611,12.0119002 241.007219,11.622293 C241.396826,11.2326859 242.02653,11.0378852 242.896351,11.0378852 L249.460746,11.0378852 C250.366809,11.0378852 251.141481,11.0763923 251.784786,11.1534077 C252.428091,11.230423 253.007963,11.3867166 253.524419,11.622293 C254.149602,11.8850513 254.702293,12.2610619 255.182506,12.750336 C255.66272,13.2396102 256.027405,13.8081563 256.276572,14.4559914 C256.525739,15.1038266 256.650321,15.7901592 256.650321,16.5150097 C256.650321,18.0009533 256.231273,19.1878783 255.393165,20.0758202 C254.555056,20.9637621 253.284322,21.5934666 251.580923,21.9649525 C252.296713,22.345499 252.98078,22.9072497 253.633146,23.6502215 C254.285511,24.3931933 254.867648,25.1837216 255.379574,26.02183 C255.8915,26.8599385 256.290161,27.6164899 256.575571,28.2915069 C256.860981,28.966524 257.003684,29.4308744 257.003684,29.6845721 C257.003684,29.9473304 256.919874,30.2078197 256.752253,30.4660477 C256.584631,30.7242757 256.355853,30.9281369 256.065913,31.0776373 C255.775973,31.2271377 255.440735,31.3018868 255.060188,31.3018868 C254.607157,31.3018868 254.226616,31.195426 253.918554,30.9825011 C253.610493,30.7695763 253.345473,30.5000265 253.123488,30.1738438 C252.901502,29.847661 252.600241,29.3674548 252.219694,28.7332105 L250.60238,26.0422164 C250.022499,25.0546075 249.503786,24.3025863 249.046224,23.7861303 C248.588662,23.2696743 248.124312,22.916315 247.653159,22.7260417 C247.182006,22.5357685 246.588543,22.4406332 245.872754,22.4406332 L245.872754,22.4406332 L245.872754,22.4406332 Z M227.049385,24.6695375 L219.791855,24.6695375 C219.800916,25.5121763 219.9708,26.2551369 220.301513,26.8984418 C220.632226,27.5417466 221.071661,28.0264832 221.619829,28.3526659 C222.167997,28.6788486 222.772785,28.8419376 223.434211,28.8419376 C223.878182,28.8419376 224.283639,28.7898397 224.650595,28.6856425 C225.01755,28.5814452 225.373175,28.4183563 225.717479,28.1963708 C226.061783,27.9743853 226.3789,27.7365473 226.668841,27.4828496 C226.958781,27.2291519 227.334791,26.8848531 227.796884,26.4499427 C227.987157,26.2868514 228.258972,26.2053069 228.612336,26.2053069 C228.992883,26.2053069 229.30094,26.3095026 229.536516,26.5178971 C229.772093,26.7262917 229.889879,27.0207578 229.889879,27.4013043 C229.889879,27.7365477 229.758502,28.1284141 229.495744,28.5769154 C229.232985,29.0254167 228.836589,29.4557902 228.306542,29.868049 C227.776495,30.2803077 227.110548,30.6223414 226.308682,30.8941604 C225.506816,31.1659794 224.584911,31.3018868 223.542938,31.3018868 C221.159992,31.3018868 219.307121,30.6223496 217.984268,29.2632548 C216.661416,27.9041601 216,26.0603492 216,23.7317668 C216,22.6354304 216.163089,21.6183897 216.489272,20.6806143 C216.815454,19.7428389 217.29113,18.9387199 217.916314,18.2682332 C218.541498,17.5977464 219.31164,17.0835633 220.226764,16.7256683 C221.141887,16.3677734 222.156663,16.1888286 223.271121,16.1888286 C224.720822,16.1888286 225.964375,16.4946203 227.001817,17.106213 C228.039259,17.7178056 228.816197,18.5083339 229.332653,19.4778215 C229.849109,20.4473091 230.107333,21.4349031 230.107333,22.4406332 C230.107333,23.3738783 229.840048,23.9786664 229.305471,24.2550157 C228.770894,24.531365 228.018873,24.6695375 227.049385,24.6695375 L227.049385,24.6695375 L227.049385,24.6695375 Z M209.150197,29.0458008 L209.150197,12.9541992 C209.150197,12.2112274 209.315551,11.6494767 209.646264,11.2689302 C209.976977,10.8883836 210.423206,10.6981132 210.984965,10.6981132 C211.546725,10.6981132 211.999749,10.8861185 212.344053,11.2621347 C212.688357,11.6381509 212.860507,12.2021668 212.860507,12.9541992 L212.860507,29.0458008 C212.860507,29.7978332 212.686092,30.3618491 212.337258,30.7378653 C211.988424,31.1138815 211.537664,31.3018868 210.984965,31.3018868 C210.441327,31.3018868 209.999628,31.1070861 209.659855,30.717479 C209.320081,30.3278718 209.150197,29.7706513 209.150197,29.0458008 L209.150197,29.0458008 L209.150197,29.0458008 Z M195.178772,12.8182904 L195.178772,18.4856873 C195.876441,17.7608367 196.58769,17.2058813 197.31254,16.8208045 C198.037391,16.4357277 198.93438,16.2431921 200.003535,16.2431921 C201.235781,16.2431921 202.316245,16.5353931 203.244959,17.1198039 C204.173674,17.7042146 204.893984,18.551371 205.405909,19.6612984 C205.917835,20.7712257 206.173794,22.0872628 206.173794,23.6094489 C206.173794,24.7329672 206.031091,25.7635986 205.745681,26.701374 C205.460271,27.6391494 205.045754,28.4523289 204.502116,29.1409369 C203.958478,29.8295449 203.299327,30.3618491 202.524643,30.7378653 C201.749959,31.1138815 200.896007,31.3018868 199.962762,31.3018868 C199.391942,31.3018868 198.855108,31.2339331 198.352243,31.0980236 C197.849378,30.9621141 197.421269,30.7831693 197.067905,30.5611839 C196.71454,30.3391984 196.413278,30.1104209 196.164111,29.8748444 C195.914944,29.639268 195.586501,29.2859087 195.178772,28.8147558 L195.178772,29.1817096 C195.178772,29.8793782 195.011153,30.4071521 194.67591,30.765047 C194.340666,31.122942 193.914823,31.3018868 193.398367,31.3018868 C192.87285,31.3018868 192.453803,31.122942 192.141211,30.765047 C191.828619,30.4071521 191.672325,29.8793782 191.672325,29.1817096 L191.672325,12.981381 C191.672325,12.2293486 191.824089,11.6608024 192.12762,11.2757256 C192.431151,10.8906487 192.854729,10.6981132 193.398367,10.6981132 C193.969187,10.6981132 194.408621,10.8815882 194.716682,11.2485438 C195.024744,11.6154994 195.178772,12.1387431 195.178772,12.8182904 L195.178772,12.8182904 L195.178772,12.8182904 Z M177.782446,12.8182904 L177.782446,18.4856873 C178.480115,17.7608367 179.191364,17.2058813 179.916214,16.8208045 C180.641065,16.4357277 181.538054,16.2431921 182.607209,16.2431921 C183.839455,16.2431921 184.919919,16.5353931 185.848633,17.1198039 C186.777348,17.7042146 187.497658,18.551371 188.009583,19.6612984 C188.521509,20.7712257 188.777468,22.0872628 188.777468,23.6094489 C188.777468,24.7329672 188.634765,25.7635986 188.349355,26.701374 C188.063945,27.6391494 187.649428,28.4523289 187.10579,29.1409369 C186.562152,29.8295449 185.903001,30.3618491 185.128317,30.7378653 C184.353633,31.1138815 183.499681,31.3018868 182.566436,31.3018868 C181.995616,31.3018868 181.458782,31.2339331 180.955917,31.0980236 C180.453052,30.9621141 180.024943,30.7831693 179.671579,30.5611839 C179.318214,30.3391984 179.016953,30.1104209 178.767785,29.8748444 C178.518618,29.639268 178.190175,29.2859087 177.782446,28.8147558 L177.782446,29.1817096 C177.782446,29.8793782 177.614827,30.4071521 177.279584,30.765047 C176.94434,31.122942 176.518497,31.3018868 176.002041,31.3018868 C175.476524,31.3018868 175.057477,31.122942 174.744885,30.765047 C174.432293,30.4071521 174.275999,29.8793782 174.275999,29.1817096 L174.275999,12.981381 C174.275999,12.2293486 174.427763,11.6608024 174.731294,11.2757256 C175.034825,10.8906487 175.458403,10.6981132 176.002041,10.6981132 C176.572861,10.6981132 177.012295,10.8815882 177.320356,11.2485438 C177.628418,11.6154994 177.782446,12.1387431 177.782446,12.8182904 L177.782446,12.8182904 L177.782446,12.8182904 Z M167.18156,29.2088913 L167.18156,28.7332105 C166.737589,29.2949697 166.270974,29.7661155 165.7817,30.146662 C165.292425,30.5272086 164.757856,30.810349 164.177976,30.996092 C163.598095,31.181835 162.936679,31.274705 162.193707,31.274705 C161.296705,31.274705 160.492586,31.0889649 159.781326,30.717479 C159.070067,30.3459931 158.519642,29.834075 158.130034,29.1817096 C157.667942,28.3934346 157.436899,27.2608726 157.436899,25.7839896 L157.436899,18.4313237 C157.436899,17.6883519 157.604519,17.1333966 157.939762,16.766441 C158.275005,16.3994854 158.71897,16.2160104 159.271668,16.2160104 C159.833427,16.2160104 160.286452,16.4017505 160.630756,16.7732364 C160.97506,17.1447223 161.14721,17.6974126 161.14721,18.4313237 L161.14721,24.3705382 C161.14721,25.2312982 161.219694,25.9538727 161.364664,26.5382835 C161.509634,27.1226942 161.770123,27.5802493 162.146139,27.9109623 C162.522156,28.2416754 163.031808,28.4070294 163.675113,28.4070294 C164.300297,28.4070294 164.889229,28.2212893 165.441928,27.8498034 C165.994626,27.4783175 166.397818,26.9935809 166.651516,26.3955792 C166.85991,25.8700626 166.964106,24.7193796 166.964106,22.9434958 L166.964106,18.4313237 C166.964106,17.6974126 167.136256,17.1447223 167.48056,16.7732364 C167.824864,16.4017505 168.273358,16.2160104 168.826057,16.2160104 C169.378755,16.2160104 169.822719,16.3994854 170.157963,16.766441 C170.493206,17.1333966 170.660825,17.6883519 170.660825,18.4313237 L170.660825,29.1817096 C170.660825,29.8884388 170.500002,30.4184778 170.178349,30.7718425 C169.856697,31.1252071 169.442179,31.3018868 168.934784,31.3018868 C168.427388,31.3018868 168.00834,31.1184118 167.677627,30.7514562 C167.346914,30.3845006 167.18156,29.8703174 167.18156,29.2088913 L167.18156,29.2088913 L167.18156,29.2088913 Z M146.292378,30.9621148 L140.203664,30.9621148 C139.324783,30.9621148 138.697343,30.765049 138.321327,30.3709115 C137.945311,29.9767741 137.757306,29.3493347 137.757306,28.4885747 L137.757306,13.5114253 C137.757306,12.632544 137.949841,12.0005744 138.334918,11.6154976 C138.719995,11.2304207 139.342904,11.0378852 140.203664,11.0378852 L146.659332,11.0378852 C147.610698,11.0378852 148.435203,11.0967784 149.132872,11.2145666 C149.830541,11.3323548 150.455715,11.5588672 151.008413,11.8941106 C151.479566,12.1749902 151.896349,12.5306147 152.258774,12.9609947 C152.6212,13.3913747 152.897545,13.8670507 153.087818,14.388037 C153.278091,14.9090234 153.373226,15.4594485 153.373226,16.0393289 C153.373226,18.0326679 152.376572,19.4914077 150.383233,20.4155922 C153.001756,21.2491703 154.310997,22.8709991 154.310997,25.2811271 C154.310997,26.3955848 154.025592,27.3990347 153.454772,28.2915069 C152.883952,29.1839792 152.11381,29.8431302 151.144322,30.2689799 C150.53726,30.5226776 149.839602,30.7016224 149.051327,30.8058197 C148.263052,30.9100169 147.343411,30.9621148 146.292378,30.9621148 L146.292378,30.9621148 L146.292378,30.9621148 Z M124.681834,21 C124.681834,9.40202025 115.279814,0 103.681834,0 C92.0838543,0 82.681834,9.40202025 82.681834,21 C82.681834,32.5979797 92.0838543,42 103.681834,42 C115.279814,42 124.681834,32.5979797 124.681834,21 L124.681834,21 L124.681834,21 Z M85.0591925,21 C85.0591925,10.7149991 93.3968331,2.37735849 103.681834,2.37735849 C113.966835,2.37735849 122.304476,10.7149991 122.304476,21 C122.304476,31.2850009 113.966835,39.6226415 103.681834,39.6226415 C93.3968331,39.6226415 85.0591925,31.2850009 85.0591925,21 L85.0591925,21 L85.0591925,21 Z M145.993379,22.1144521 L141.793797,22.1144521 L141.793797,27.9313486 L146.129288,27.9313486 C148.856538,27.9313486 150.220142,26.9482848 150.220142,24.9821277 C150.220142,23.9763976 149.866783,23.2470277 149.160054,22.7939961 C148.453324,22.3409645 147.397777,22.1144521 145.993379,22.1144521 L145.993379,22.1144521 L145.993379,22.1144521 Z M141.793797,14.0686514 L141.793797,19.2195948 L145.490516,19.2195948 C146.496246,19.2195948 147.273184,19.1244596 147.821352,18.9341863 C148.36952,18.743913 148.788568,18.3814932 149.078508,17.8469159 C149.305024,17.4663694 149.41828,17.0405261 149.41828,16.5693732 C149.41828,15.5636431 149.060391,14.8954315 148.344601,14.5647185 C147.628811,14.2340054 146.537021,14.0686514 145.069199,14.0686514 L141.793797,14.0686514 L141.793797,14.0686514 L141.793797,14.0686514 Z M177.959128,23.8404939 C177.959128,25.3173768 178.296631,26.4522039 178.971648,27.2450092 C179.646665,28.0378145 180.532329,28.4342112 181.628665,28.4342112 C182.56191,28.4342112 183.366029,28.028754 184.041046,27.2178275 C184.716064,26.4069009 185.053567,25.2448923 185.053567,23.7317668 C185.053567,22.7532186 184.913129,21.9105925 184.63225,21.2038632 C184.35137,20.4971339 183.952708,19.951239 183.436252,19.5661622 C182.919796,19.1810853 182.317273,18.9885498 181.628665,18.9885498 C180.921936,18.9885498 180.292232,19.1810853 179.739533,19.5661622 C179.186834,19.951239 178.751931,20.5084595 178.434809,21.2378404 C178.117686,21.9672213 177.959128,22.8347637 177.959128,23.8404939 L177.959128,23.8404939 L177.959128,23.8404939 Z M195.355454,23.8404939 C195.355454,25.3173768 195.692957,26.4522039 196.367974,27.2450092 C197.042991,28.0378145 197.928655,28.4342112 199.024991,28.4342112 C199.958236,28.4342112 200.762355,28.028754 201.437372,27.2178275 C202.112389,26.4069009 202.449893,25.2448923 202.449893,23.7317668 C202.449893,22.7532186 202.309455,21.9105925 202.028576,21.2038632 C201.747696,20.4971339 201.349034,19.951239 200.832578,19.5661622 C200.316122,19.1810853 199.713599,18.9885498 199.024991,18.9885498 C198.318262,18.9885498 197.688558,19.1810853 197.135859,19.5661622 C196.58316,19.951239 196.148257,20.5084595 195.831135,21.2378404 C195.514012,21.9672213 195.355454,22.8347637 195.355454,23.8404939 L195.355454,23.8404939 L195.355454,23.8404939 Z M219.791855,22.5629512 L226.519341,22.5629512 C226.428735,21.2944627 226.086701,20.3453758 225.493229,19.7156619 C224.899758,19.085948 224.11829,18.7710957 223.148803,18.7710957 C222.224618,18.7710957 221.465802,19.0904782 220.87233,19.7292528 C220.278859,20.3680273 219.918704,21.312584 219.791855,22.5629512 L219.791855,22.5629512 L219.791855,22.5629512 Z M248.183203,14.0686514 L244.459302,14.0686514 L244.459302,19.5457759 L248.074476,19.5457759 C249.043964,19.5457759 249.859408,19.4619663 250.520834,19.2943446 C251.18226,19.1267229 251.687383,18.8413173 252.036217,18.4381192 C252.385052,18.0349211 252.559466,17.4799657 252.559466,16.7732364 C252.559466,16.2205379 252.419029,15.7335362 252.138149,15.3122169 C251.857269,14.8908975 251.467668,14.5760452 250.969333,14.3676507 C250.498181,14.1683168 249.56948,14.0686514 248.183203,14.0686514 L248.183203,14.0686514 L248.183203,14.0686514 Z M280.624633,23.8404939 C280.624633,25.3173768 280.962136,26.4522039 281.637153,27.2450092 C282.31217,28.0378145 283.197834,28.4342112 284.29417,28.4342112 C285.227415,28.4342112 286.031534,28.028754 286.706552,27.2178275 C287.381569,26.4069009 287.719072,25.2448923 287.719072,23.7317668 C287.719072,22.7532186 287.578634,21.9105925 287.297755,21.2038632 C287.016875,20.4971339 286.618213,19.951239 286.101757,19.5661622 C285.585301,19.1810853 284.982778,18.9885498 284.29417,18.9885498 C283.587441,18.9885498 282.957737,19.1810853 282.405038,19.5661622 C281.85234,19.951239 281.417436,20.5084595 281.100314,21.2378404 C280.783192,21.9672213 280.624633,22.8347637 280.624633,23.8404939 L280.624633,23.8404939 L280.624633,23.8404939 Z M298.020959,23.8404939 C298.020959,25.3173768 298.358462,26.4522039 299.033479,27.2450092 C299.708496,28.0378145 300.59416,28.4342112 301.690496,28.4342112 C302.623741,28.4342112 303.42786,28.028754 304.102877,27.2178275 C304.777895,26.4069009 305.115398,25.2448923 305.115398,23.7317668 C305.115398,22.7532186 304.97496,21.9105925 304.694081,21.2038632 C304.413201,20.4971339 304.014539,19.951239 303.498083,19.5661622 C302.981627,19.1810853 302.379104,18.9885498 301.690496,18.9885498 C300.983767,18.9885498 300.354063,19.1810853 299.801364,19.5661622 C299.248666,19.951239 298.813762,20.5084595 298.49664,21.2378404 C298.179518,21.9672213 298.020959,22.8347637 298.020959,23.8404939 L298.020959,23.8404939 L298.020959,23.8404939 Z M322.45736,22.5629512 L329.184846,22.5629512 C329.09424,21.2944627 328.752206,20.3453758 328.158735,19.7156619 C327.565263,19.085948 326.783795,18.7710957 325.814308,18.7710957 C324.890123,18.7710957 324.131307,19.0904782 323.537835,19.7292528 C322.944364,20.3680273 322.584209,21.312584 322.45736,22.5629512 L322.45736,22.5629512 Z M97.274801,19.7176021 C97.274801,14.6183059 99.2310997,10.9899631 102.992893,8.82238837 L106.843266,6.60377358 L102.293306,6.35457537 C95.0507384,6.35457537 89.2856076,12.4750346 89.2856076,19.7176021 C89.2856076,23.3261286 90.947846,25.6886519 93.382184,25.4790314 C95.6415743,25.2844755 97.274801,22.8694281 97.274801,19.7176021 Z M102.188607,7.82299183 C102.188607,7.82299183 95.4373872,9.70890343 94.8974425,19.7176021 C94.7877149,21.7515721 94.0321159,23.0369096 93.1782247,23.1104381 C92.4158336,23.1760875 91.6629661,22.1060442 91.6629661,19.7176021 C91.6629661,13.7880134 96.2590183,7.82299183 102.188607,7.82299183 Z" id="logo-copy"></path>
                </g>
            </g>
        </g>
    </g>
</svg>