<svg width="54" height="59" viewBox="0 0 54 59" xmlns="http://www.w3.org/2000/svg"><title>F7D31729-7313-4060-8685-B83F3AAB7621</title><path d="M53.053 0H.947A.944.944 0 0 0 0 .941v15.064c0 .52.424.942.947.942h52.106a.944.944 0 0 0 .947-.942V.941A.944.944 0 0 0 53.053 0zM1.895 1.883h35.052v13.18H1.895V1.884zm50.21 13.18H38.842V1.884h13.263v13.18zm-36 31.384h16.58a.944.944 0 0 0 .947-.942.944.944 0 0 0-.948-.941H16.105a.944.944 0 0 0-.947.941c0 .52.424.942.947.942zm33.158-6.904H16.105a.944.944 0 0 0-.947.941c0 .52.424.942.947.942h33.158a.944.944 0 0 0 .948-.942.944.944 0 0 0-.948-.941zm3.79-20.086H.947A.944.944 0 0 0 0 20.4v15.064c0 .52.424.941.947.941h52.106a.944.944 0 0 0 .947-.941V20.399a.944.944 0 0 0-.947-.942zM16.105 31.383h16.58a.944.944 0 0 0 .947-.942.944.944 0 0 0-.948-.941H16.105a.944.944 0 0 0-.947.941c0 .52.424.942.947.942zm0-5.021h33.158a.944.944 0 0 0 .948-.942.944.944 0 0 0-.948-.941H16.105a.944.944 0 0 0-.947.941c0 .52.424.942.947.942zm36 8.16H1.895V21.34h50.21v13.181zM41.87 10.331a3.857 3.857 0 0 0 2.737 1.126c.71 0 1.39-.189 1.984-.543l2.002 1.99a.948.948 0 0 0 1.34 0 .937.937 0 0 0 0-1.331l-2.002-1.99c.356-.59.546-1.267.546-1.972a3.809 3.809 0 0 0-1.134-2.72 3.857 3.857 0 0 0-2.736-1.126c-1.034 0-2.006.4-2.737 1.126a3.833 3.833 0 0 0 0 5.44zm1.34-4.108c.373-.37.87-.575 1.397-.575a1.968 1.968 0 0 1 1.975 1.963 1.971 1.971 0 0 1-1.975 1.963A1.968 1.968 0 0 1 43.21 9a1.957 1.957 0 0 1 0-2.776zM12.316 38.287h-7.58a.944.944 0 0 0-.947.942v7.532c0 .52.425.941.948.941h7.579a.944.944 0 0 0 .947-.941v-7.532a.944.944 0 0 0-.947-.942zm-.948 7.532H5.684V40.17h5.684v5.65zm21.316 10.043H16.105a.944.944 0 0 0-.947.941c0 .52.424.942.947.942h16.58a.944.944 0 0 0 .947-.942.944.944 0 0 0-.948-.941zm16.58-5.022h-33.16a.944.944 0 0 0-.947.942c0 .52.424.941.947.941h33.158a.944.944 0 0 0 .948-.941.944.944 0 0 0-.948-.942zm-36.948-1.255h-7.58a.944.944 0 0 0-.947.942v7.532c0 .52.425.941.948.941h7.579a.944.944 0 0 0 .947-.941v-7.532a.944.944 0 0 0-.947-.942zm-.948 7.532H5.684v-5.649h5.684v5.649zM4.737 32.638h7.579a.944.944 0 0 0 .947-.941v-7.532a.944.944 0 0 0-.947-.942h-7.58a.944.944 0 0 0-.947.942v7.532c0 .52.425.941.948.941zm.947-7.532h5.684v5.65H5.684v-5.65z" fill="#FFF" fill-rule="evenodd"/></svg>