<svg height="135" id="Layer_1" viewBox="0 0 135 135" width="135" xmlns="http://www.w3.org/2000/svg"><style>.st0{fill:#465652}.st1{fill:#aab9ba}.st2{fill:#47c67b}.st3{fill:#aac8d1}.st4{fill:none;stroke:#e83834;stroke-width:6;stroke-linecap:round;stroke-linejoin:round;stroke-miterlimit:10}.st5{fill:#7bc67b}.st6{fill:#7bc7ff}.st7{fill:#7c34c1}.st8{fill:#7c8d96}.st9{fill:#ad2707}.st10{fill:#adb8bc}.st11{fill:#107510}.st12{fill:#7fe5d8}.st13{fill:#af4ad1}.st14{fill:#e02b7e}.st15{fill:#e04038}.st16{fill:#afd7dd}.st17{fill:#e0a010}.st18{fill:#e0d5a4}.st19{fill:#12b2b2}.st20{fill:#12d66b}.st21{fill:#e1a9ff}.st22{fill:#1362a8}.st23{fill:#e2378d}.st24{fill:#e29c37}.st25{fill:#e2b90e}.st26{fill:#e2bf91}.st27{fill:#e2cbaa}.st28{fill:#14a594}.st29{fill:#e4e9ed}.st30{fill:#4a5d60}.st31{fill:#e5b076}.st32{fill:#e5b1c4}.st33{fill:#e5e4c3}.st34{fill:#4b6466}.st35{fill:#e6ff2e}.st36{fill:#18aa67}.st37{fill:#e86207}.st38{fill:#e8a113}.st39{fill:#e8b5a6}.st40{fill:#e8e8ed}.st41{fill:#4e5154}.st42{fill:#e9f1f4}.st43{fill:#4f4b48}.st44{fill:#4f74e8}.st45{fill:#808e93}.st46{fill:#80949b}.st47{fill:#80edac}.st48{fill:#b122e0}.st49{fill:#b2c4cc}.st50{fill:#83d839}.st51{fill:#b3c6c6}.st52{fill:none;stroke:#33363a;stroke-width:3;stroke-linecap:round;stroke-linejoin:round;stroke-miterlimit:10}.st53{fill:#1a8e1c}.st54{fill:#1a93d6}.st55{fill:#b50b0b}.st56{fill:#1ad88f}.st57{fill:#b5daf4}.st58{fill:#ea7b1f}.st59{fill:#ea81bd}.st60{fill:#87b8d6}.st61{fill:#87c3f4}.st62{fill:#eac79d}.st63{fill:#eadf11}.st64{fill:#eae4c5}.st65{fill:#b78094}.st66{fill:#8844d8}.st67{fill:#ebf4f7}.st68{fill:#893015}.st69{fill:#89410b}.st70{fill:#899ba3}.st71{fill:#ede3b9}.st72{enable-background:new}.st73{fill:#50ff9f}.st74{fill:#eedcf4}.st75{fill:#efa37d}.st76{fill:#efa3cc}.st77{fill:#efc99a}.st78{fill:#54af79}.st79{fill:#ba503a}.st80{fill:#ba8663}.st81{fill:#8b4fe0}.st82{fill:#58ed9b}.st83{fill:#bc7dff}.st84{fill:#8d9aa3}.st85{fill:#bccad3}.st86{fill:#8de4ff}.st87{fill:#20b518}.st88{fill:#bf44f2}.st89{fill:#21cea1}.st90{fill:#bfdae0}.st91{fill:#f0fbfc}.st92{fill:#f2d9a7}.st93{fill:#f2eac9}.st94{fill:#24d1af}.st95{fill:#25931c}.st96{fill:#f4c4b3}.st97{fill:#f4d3a2}.st98{fill:#f4d647}.st99{fill:#f4d7b8}.st100{fill:#f4ec8e}.st101{fill:#5b524d}.st102{fill:#f77819}.st103{fill:#f79ae1}.st104{fill:#5e707a}.st105{fill:#f93585}.st106{fill:#f95d5d}.st107{fill:#f9c19b}.st108{fill:#f9cb58}.st109{fill:#f9d2b2}.st110{fill:#f9f07d}.st111{fill:#f9f1d2}.st112{fill:#f9f4b7}.st113{fill:#f9f9e4}.st114{fill:#5f1daa}.st115{fill:#5f9ad6}.st116{fill:#c0c0c4}.st117{fill:#91ea57}.st118{fill:#c12727}.st119{fill:#c191a0}.st120{fill:#923bb7}.st121{fill:#93a0a3}.st122{fill:#93f9ea}.st123{fill:#93ff5a}.st124{fill:#c4833d}.st125{fill:#95a2a5}.st126{fill:#965514}.st127{fill:#96562c}.st128{fill:#2af42f}.st129{fill:#c5d7dd}.st130{fill:#c68510}.st131{fill:#c6a86d}.st132{fill:#c6bb8d}.st133{fill:#2c9dce}.st134{fill:#fbfcf2}.st135{fill:#fc70b0}.st136{fill:#fce6c8}.st137{fill:#fcf7e3}.st138{fill:#c90d6b}.st139{fill:#fdfeff}.st140{fill:#fdffdc}.st141{fill:#ff1a1a}.st142{fill:#ff5252}.st143{fill:#ff5b00}.st144{fill:#ff6155}.st145{fill:#ff630d}.st146{fill:#f66}.st147{fill:#ff7676}.st148{fill:#ff7900}.st149{fill:#ff860d}.st150{fill:#ff8b00}.st151{fill:#ff8f8f}.st152{fill:#ff900b}.st153{fill:#ff908a}.st154{fill:#ff960b}.st155{fill:#ff9c0d}.st156{fill:#ffa9d4}.st157{fill:#fa0}.st158{fill:#ffad40}.st159{fill:#ffaf10}.st160{fill:#ffb000}.st161{fill:#ffbe08}.st162{fill:#ffbf31}.st163{fill:#ffc200}.st164{fill:#ffcae8}.st165{fill:#ffccf5}.st166{fill:#ffd00b}.st167{fill:#ffd039}.st168{fill:#ffd400}.st169{fill:#ffd833}.st170{fill:#ffdb80}.st171{fill:#ffddd2}.st172{fill:#ffe6d4}.st173{fill:#ffe6eb}.st174{fill:#ffe98d}.st175{fill:#ffecd2}.st176{fill:#fff1d9}.st177{fill:#fff24d}.st178{fill:#fff3c2}.st179{fill:#fff4c7}.st180{fill:#fff800}.st181{fill:#fff80d}.st182{fill:#fff9de}.st183{fill:#fffbd7}.st184{fill:#fffbeb}.st185{fill:#fffcc0}.st186{fill:#fffcdc}.st187{fill:#fffffa}.st188{fill:#fff}.st189{fill:#63797f}.st190{fill:#65e529}.st191{fill:#66310e}.st192{fill:#663c17}.st193{fill:#9a5ae5}.st194{fill:#ca30ef}.st195{fill:#6892fc}.st196{fill:#9cffc4}.st197{fill:#cc4306}.st198{fill:#cc549e}.st199{fill:#9e3256}.st200{fill:#cdffbb}.st201{fill:#ce86af}.st202{fill:#ced9dd}.st203{fill:none;stroke:#33363a;stroke-width:3;stroke-linecap:round;stroke-linejoin:round;stroke-miterlimit:10;stroke-dasharray:6}.st204{fill:#cfe1e2}.st205{fill:#33363a}.st206{fill:#34c166}.st207{fill:#364b5b}.st208{fill:#3662ce}.st209{fill:#36c6ff}.st210{fill:#6adb9a}.st211{fill:#6d5c4d}.st212{fill:#6ebdf9}.st213{fill:#0031ff}.st214{fill:#0062ff}.st215{fill:#0068ff}.st216{fill:#0086ff}.st217{fill:#009be8}.st218{fill:#0af}.st219{fill:#d271ff}.st220{fill:#d363a9}.st221{fill:#d3964c}.st222{fill:#d3dfe2}.st223{fill:#d3e0e2}.st224{fill:#d3eff4}.st225{fill:#063b66}.st226{fill:#d60909}.st227{fill:#d61d1d}.st228{fill:#d7f0ff}.st229{fill:#09b285}.st230{fill:#d8d593}.st231{fill:#d8e2ea}.st232{fill:#d8e5ea}.st233{fill:#3e5054}.st234{fill:#d988ff}.st235{fill:#d9e7e8}.st236{fill:#702252}.st237{fill:#70d3e0}.st238{fill:#a02ff2}.st239{fill:#a2f255}.st240{fill:#a35616}.st241{fill:#a3cccc}.st242{fill:#0a6add}.st243{fill:#a5145d}.st244{fill:#a57555}.st245{fill:#77d6fc}.st246{fill:#7815ce}.st247{fill:#a7bbc1}.st248{fill:#dbd279}.st249{fill:#0d5c9e}.st250{fill:#a83c11}.st251{fill:#a8633d}.st252{fill:#a8a3e5}.st253{fill:#dce6ea}.st254{fill:#dce7ea}.st255{fill:#a962e8}.st256{fill:#dd2466}.st257{fill:#ddc38a}.st258{fill:#ddd2b1}.st259{fill:#dfe7e8}.st260{fill:#42b1e8}.st261{fill:#436377}.st262{fill:#43b530}</style><path class="st168" d="M42.845 17.085c-2.965 5.133-3.018 11.145-.68 16.135 5.49-.471 10.67-3.521 13.635-8.656 2.963-5.133 3.018-11.145.68-16.135-5.491.468-10.672 3.523-13.635 8.656z"/><path class="st163" d="M42.165 33.22c5.49-.471 10.67-3.521 13.635-8.656 2.963-5.133 3.018-11.145.68-16.135"/><path class="st143" d="M43.052 21.581a11.76 11.76 0 0 0-.459 10.9 11.77 11.77 0 0 0 9.209-5.848c2-3.467 2.037-7.527.457-10.896-3.707.317-7.207 2.377-9.207 5.844z"/><path class="st148" d="M42.593 32.481a11.77 11.77 0 0 0 9.209-5.848c2-3.467 2.037-7.527.457-10.896"/><path class="st205" d="M42.165 34.72a1.5 1.5 0 0 1-1.358-.863 18.965 18.965 0 0 1 .739-17.521 18.959 18.959 0 0 1 14.806-9.4 1.494 1.494 0 0 1 1.486.857 18.968 18.968 0 0 1-.739 17.521 18.971 18.971 0 0 1-14.806 9.4 1.387 1.387 0 0 1-.128.006zm13.378-24.67a15.958 15.958 0 0 0-11.399 7.785 15.96 15.96 0 0 0-1.043 13.763 15.965 15.965 0 0 0 11.4-7.784 15.97 15.97 0 0 0 1.042-13.764z"/><path class="st168" d="M51.249 19.823c-5.135 2.963-8.186 8.143-8.656 13.633 4.99 2.338 11.002 2.285 16.137-.678 5.133-2.965 8.186-8.145 8.656-13.635-4.99-2.337-11.004-2.285-16.137.68z"/><path class="st163" d="M42.593 33.456c4.99 2.338 11.002 2.285 16.137-.678 5.133-2.965 8.186-8.145 8.656-13.635"/><path class="st143" d="M49.179 23.821a11.759 11.759 0 0 0-5.846 9.209 11.768 11.768 0 0 0 10.898-.459 11.766 11.766 0 0 0 5.844-9.209c-3.367-1.578-7.429-1.545-10.896.459z"/><path class="st148" d="M43.333 33.03a11.768 11.768 0 0 0 10.898-.459 11.766 11.766 0 0 0 5.844-9.209"/><path class="st205" d="M50.034 36.614c-.001 0-.001 0 0 0-2.771 0-5.564-.622-8.077-1.8a1.5 1.5 0 0 1-.858-1.486A18.964 18.964 0 0 1 50.5 18.524a18.913 18.913 0 0 1 9.447-2.539c2.77 0 5.562.622 8.076 1.8a1.5 1.5 0 0 1 .858 1.486 18.977 18.977 0 0 1-9.4 14.806 18.938 18.938 0 0 1-9.447 2.537zm-5.819-4.094a16.139 16.139 0 0 0 5.818 1.095c2.777 0 5.525-.738 7.946-2.135a15.972 15.972 0 0 0 7.784-11.399c-4.45-1.728-9.623-1.352-13.763 1.041a15.956 15.956 0 0 0-7.785 11.398z"/><path class="st37" d="M66.95 84.548c-17.971-1.404-31.398-17.111-29.992-35.082.463-5.939 2.516-11.365 5.671-15.941-12.301 3.896-21.634 14.908-22.702 28.564-1.405 17.969 12.023 33.676 29.994 35.082 12.029.939 23.02-4.787 29.41-14.053a32.495 32.495 0 0 1-12.381 1.43z"/><path class="st102" d="M34.623 37.345a32.422 32.422 0 0 0-5.436 15.613c-1.405 17.969 12.022 33.676 29.993 35.08 7.164.561 13.95-1.258 19.625-4.768a32.487 32.487 0 0 1-11.855 1.277c-17.971-1.404-31.398-17.111-29.992-35.082.463-5.939 2.516-11.365 5.671-15.941a32.71 32.71 0 0 0-8.006 3.821z"/><path class="st205" d="M52.49 98.771c-.891 0-1.794-.035-2.686-.105-18.766-1.468-32.839-17.929-31.373-36.694 1.09-13.926 10.41-25.653 23.745-29.877a1.5 1.5 0 0 1 1.688 2.281 31.09 31.09 0 0 0-5.41 15.206c-.649 8.293 1.97 16.341 7.375 22.662 5.404 6.322 12.947 10.16 21.239 10.809 3.98.31 7.981-.152 11.812-1.364a1.5 1.5 0 1 1 1.688 2.281c-6.395 9.268-16.89 14.801-28.078 14.801zM39.098 36.519c-10.009 4.736-16.794 14.423-17.675 25.688-1.338 17.115 11.499 32.13 28.616 33.47.814.063 1.639.096 2.452.096 8.769 0 17.074-3.731 22.938-10.15a33.898 33.898 0 0 1-8.595.422c-9.09-.71-17.36-4.918-23.286-11.849-5.925-6.931-8.796-15.755-8.085-24.846a33.98 33.98 0 0 1 3.635-12.831z"/><path class="st158" d="M111.611 92.351c0 20.676-22.032 37.441-49.209 37.441-27.178 0-49.209-16.766-49.209-37.441 0-20.68 22.031-45.459 49.209-45.459 27.177 0 49.209 24.779 49.209 45.459z"/><path class="st102" d="M111.611 92.351c0 20.676-22.032 37.441-49.209 37.441-27.178 0-49.209-16.766-49.209-37.441 0-20.68 22.031-34.928 49.209-34.928 27.177 0 49.209 14.248 49.209 34.928z"/><path class="st158" d="M72.839 86.495c0 1.395-4.691 1.645-10.479 1.645s-10.479-.25-10.479-1.645c0-1.393 4.691-5.035 10.479-5.035s10.479 3.643 10.479 5.035z"/><path class="st37" d="M111.611 92.351c0 20.676-22.032 37.441-49.209 37.441-27.178 0-49.209-16.766-49.209-37.441 0-20.682 6.261 18.34 49.209 18.34s49.209-39.022 49.209-18.34z"/><path class="st205" d="M62.402 131.292c-27.961 0-50.709-17.469-50.709-38.941 0-21.27 22.62-46.959 50.709-46.959 13.041 0 25.772 5.472 35.849 15.406 9.305 9.174 14.86 20.97 14.86 31.553 0 21.472-22.748 38.941-50.709 38.941zm0-82.9c-26.428 0-47.709 24.048-47.709 43.959 0 19.818 21.402 35.941 47.709 35.941s47.709-16.123 47.709-35.941c0-19.912-21.281-43.959-47.709-43.959z"/><path class="st22" d="M46.24 78.257a8.05 8.05 0 0 1-8.052 8.051 8.049 8.049 0 0 1-8.051-8.051 8.05 8.05 0 0 1 8.051-8.051 8.051 8.051 0 0 1 8.052 8.051z"/><path class="st205" d="M46.24 78.257c0 4.449-3.605 1.664-8.052 1.664-4.447 0-8.051 2.785-8.051-1.664a8.05 8.05 0 0 1 8.051-8.051 8.051 8.051 0 0 1 8.052 8.051z"/><path class="st205" d="M38.188 87.808c-5.266 0-9.551-4.284-9.551-9.551s4.285-9.551 9.551-9.551c5.267 0 9.552 4.284 9.552 9.551s-4.284 9.551-9.552 9.551zm0-16.102c-3.612 0-6.551 2.938-6.551 6.551s2.938 6.551 6.551 6.551 6.552-2.938 6.552-6.551-2.939-6.551-6.552-6.551z"/><circle class="st188" cx="34.184" cy="75.64" r="3.281"/><path class="st205" d="M34.184 80.421a4.786 4.786 0 0 1-4.78-4.781 4.785 4.785 0 0 1 4.78-4.779 4.786 4.786 0 0 1 4.781 4.779 4.787 4.787 0 0 1-4.781 4.781zm0-6.561c-.981 0-1.78.798-1.78 1.779 0 .982.799 1.781 1.78 1.781.982 0 1.781-.799 1.781-1.781 0-.981-.799-1.779-1.781-1.779z"/><path class="st22" d="M94.667 78.257a8.049 8.049 0 0 1-8.051 8.051 8.05 8.05 0 0 1-8.052-8.051 8.05 8.05 0 0 1 8.052-8.051 8.05 8.05 0 0 1 8.051 8.051z"/><path class="st205" d="M94.667 78.257c0 4.449-3.604 1.664-8.051 1.664s-8.052 2.785-8.052-1.664a8.05 8.05 0 0 1 8.052-8.051 8.05 8.05 0 0 1 8.051 8.051z"/><path class="st205" d="M86.616 87.808c-5.267 0-9.552-4.284-9.552-9.551s4.285-9.551 9.552-9.551c5.266 0 9.551 4.284 9.551 9.551s-4.285 9.551-9.551 9.551zm0-16.102c-3.613 0-6.552 2.938-6.552 6.551s2.939 6.551 6.552 6.551c3.612 0 6.551-2.938 6.551-6.551s-2.938-6.551-6.551-6.551z"/><circle class="st188" cx="82.611" cy="75.64" r="3.28"/><path class="st205" d="M82.612 80.421a4.787 4.787 0 0 1-4.781-4.781 4.785 4.785 0 0 1 4.781-4.779 4.785 4.785 0 0 1 4.779 4.779 4.784 4.784 0 0 1-4.779 4.781zm0-6.561c-.982 0-1.781.798-1.781 1.779 0 .982.799 1.781 1.781 1.781a1.78 1.78 0 0 0 0-3.56zm-21.731 28.871c-.226-.901-2.798-3.209-11.883-3.062-13.746.248-18.002-8.107-18.176-8.462a1.5 1.5 0 0 1 2.691-1.326c.154.305 3.693 6.996 15.437 6.788 1.468-.02 14.381-.062 14.904 5.688l-2.987.271c0 .001-.002.038.014.103z"/><path class="st205" d="M63.924 102.731c.016-.065.014-.103.014-.103l-2.987-.271c.523-5.751 13.436-5.703 14.905-5.688.16.003.318.004.475.004 11.504 0 14.924-6.715 14.958-6.784a1.5 1.5 0 1 1 2.695 1.319c-.174.354-4.411 8.706-18.175 8.462-9.068-.173-11.66 2.16-11.885 3.061zm-3.989-8.183c-.398 0-.796-.157-1.091-.47l-1.5-1.588a1.5 1.5 0 1 1 2.181-2.06l1.5 1.588a1.5 1.5 0 0 1-1.09 2.53zm4.935 0a1.498 1.498 0 0 1-1.09-2.53l1.5-1.588a1.5 1.5 0 0 1 2.181 2.06l-1.5 1.588c-.295.313-.693.47-1.091.47z"/><path class="st188" d="M40.166 97.999l-5.054 2.975-.357-5.852"/><path class="st205" d="M35.112 102.474a1.499 1.499 0 0 1-1.497-1.408l-.357-5.852a1.5 1.5 0 0 1 2.994-.184l.208 3.409 2.945-1.733a1.5 1.5 0 0 1 1.521 2.586l-5.054 2.975a1.503 1.503 0 0 1-.76.207z"/><path class="st188" d="M84.639 97.999l5.053 2.975.358-5.852"/><path class="st205" d="M89.692 102.474c-.263 0-.526-.069-.761-.207l-5.054-2.975a1.5 1.5 0 0 1 1.521-2.586l2.945 1.733.208-3.409a1.51 1.51 0 0 1 1.588-1.405 1.5 1.5 0 0 1 1.406 1.589l-.357 5.852a1.5 1.5 0 0 1-1.496 1.408z"/><path class="st168" d="M50.007 19.522c0 5.928-2.96 11.16-7.48 14.312-4.52-3.152-7.479-8.385-7.479-14.312s2.96-11.162 7.479-14.314c4.52 3.152 7.48 8.387 7.48 14.314z"/><path class="st163" d="M42.526 33.835c-4.52-3.152-7.479-8.385-7.479-14.312s2.96-11.162 7.479-14.314"/><path class="st143" d="M47.579 23.313c0 4.006-2 7.539-5.053 9.668a11.761 11.761 0 0 1-5.051-9.668c0-4.002 1.998-7.537 5.051-9.664a11.76 11.76 0 0 1 5.053 9.664z"/><path class="st148" d="M42.526 32.981a11.761 11.761 0 0 1-5.051-9.668c0-4.002 1.998-7.537 5.051-9.664"/><path class="st205" d="M42.526 35.335c-.3 0-.6-.09-.858-.27a18.969 18.969 0 0 1-8.122-15.543 18.968 18.968 0 0 1 8.122-15.545 1.502 1.502 0 0 1 1.716 0 18.97 18.97 0 0 1 8.123 15.545 18.967 18.967 0 0 1-8.123 15.543c-.258.18-.557.27-.858.27zm0-28.255a15.966 15.966 0 0 0-5.979 12.442c0 4.848 2.217 9.422 5.979 12.44a15.963 15.963 0 0 0 5.98-12.44 15.96 15.96 0 0 0-5.98-12.442z"/><path class="st168" d="M102.147 28.757c0 5.928-2.96 11.16-7.48 14.312-4.52-3.152-7.479-8.385-7.479-14.312s2.96-11.162 7.479-14.314c4.521 3.152 7.48 8.386 7.48 14.314z"/><path class="st163" d="M94.667 43.069c-4.52-3.152-7.479-8.385-7.479-14.312s2.96-11.162 7.479-14.314"/><path class="st143" d="M99.72 32.548c0 4.006-2 7.539-5.053 9.668a11.761 11.761 0 0 1-5.051-9.668c0-4.002 1.998-7.537 5.051-9.664a11.758 11.758 0 0 1 5.053 9.664z"/><path class="st148" d="M94.667 42.216a11.761 11.761 0 0 1-5.051-9.668c0-4.002 1.998-7.537 5.051-9.664"/><path class="st205" d="M94.667 44.569c-.3 0-.6-.09-.858-.27a18.969 18.969 0 0 1-8.122-15.543 18.968 18.968 0 0 1 8.122-15.545 1.502 1.502 0 0 1 1.716 0 18.97 18.97 0 0 1 8.123 15.545 18.967 18.967 0 0 1-8.123 15.543c-.258.18-.558.27-.858.27zm0-28.255a15.966 15.966 0 0 0-5.979 12.442c0 4.848 2.217 9.422 5.979 12.44a15.963 15.963 0 0 0 5.98-12.44c0-4.848-2.217-9.423-5.98-12.442z"/><path class="st168" d="M121.808 52.452c0 5.928-2.961 11.16-7.481 14.312-4.52-3.152-7.479-8.385-7.479-14.312s2.96-11.162 7.479-14.314c4.52 3.152 7.481 8.386 7.481 14.314z"/><path class="st163" d="M114.326 66.765c-4.52-3.152-7.479-8.385-7.479-14.312s2.96-11.162 7.479-14.314"/><path class="st143" d="M119.378 56.243c0 4.006-1.999 7.539-5.052 9.668a11.764 11.764 0 0 1-5.052-9.668c0-4.002 2-7.537 5.052-9.664a11.757 11.757 0 0 1 5.052 9.664z"/><path class="st148" d="M114.326 65.911a11.764 11.764 0 0 1-5.052-9.668c0-4.002 2-7.537 5.052-9.664"/><path class="st205" d="M114.326 68.265c-.3 0-.6-.09-.858-.27a18.969 18.969 0 0 1-8.122-15.543 18.968 18.968 0 0 1 8.122-15.545 1.502 1.502 0 0 1 1.716 0 18.968 18.968 0 0 1 8.124 15.545 18.965 18.965 0 0 1-8.124 15.543c-.258.18-.558.27-.858.27zm0-28.255a15.966 15.966 0 0 0-5.979 12.442c0 4.848 2.217 9.422 5.979 12.44a15.962 15.962 0 0 0 5.981-12.44 15.96 15.96 0 0 0-5.981-12.442z"/></svg>