<svg width="51" height="57" viewBox="0 0 51 57" xmlns="http://www.w3.org/2000/svg"><title>98C3EF99-1D05-48EA-8391-4E989135D9ED</title><g fill="none" fill-rule="evenodd"><path fill="#1572B6" d="M4.769 51.151L.21.024H50.3l-4.563 51.12-20.512 5.686z"/><path fill="#33A9DC" d="M25.255 52.483l16.574-4.595 3.9-43.683H25.255z"/><path fill="#FFF" d="M25.255 22.728h8.297l.573-6.421h-8.87v-6.271h15.723l-.15 1.682-1.541 17.28H25.255z"/><path fill="#EBEBEB" d="M25.292 39.013l-.027.007-6.984-1.885-.446-5.001H11.54l.878 9.845 12.844 3.566.03-.008z"/><path fill="#FFF" d="M33.02 28.733l-.756 8.397-6.993 1.888v6.524l12.854-3.563.095-1.06 1.09-12.186z"/><path fill="#EBEBEB" d="M25.276 10.036v6.271H10.13l-.126-1.41-.285-3.179-.15-1.682zm-.021 12.693v6.27H18.36l-.126-1.41-.286-3.178-.15-1.682z"/></g></svg>