<svg width="59" height="59" viewBox="0 0 59 59" xmlns="http://www.w3.org/2000/svg"><title>B587F545-0FE6-4CD4-9D4D-1F7736D62D60</title><path d="M58.387 17.319a2.287 2.287 0 0 0-1.682-.739h-5.627V.941A.941.941 0 0 0 50.137 0H8.863a.941.941 0 0 0-.941.941v15.64H2.295c-.665 0-1.262.285-1.682.738-.379.41-.613.955-.613 1.556v37.83A2.298 2.298 0 0 0 2.295 59h54.41A2.298 2.298 0 0 0 59 56.705v-37.83c0-.6-.234-1.147-.613-1.556zM8.863 21.276c.52 0 .942-.421.942-.941V1.883h39.39v18.452a.941.941 0 1 0 1.883 0v-1.872h4.771L30.56 44.801a1.46 1.46 0 0 1-1.059.458c-.4 0-.776-.162-1.06-.458L3.15 18.463h4.772v1.872c0 .52.421.941.941.941zm47.842 35.841H2.295a.418.418 0 0 1-.412-.412V19.862L19.098 37.79 3.95 53.566a.942.942 0 0 0 1.36 1.304l15.094-15.72 6.68 6.955a3.327 3.327 0 0 0 2.417 1.037c.918 0 1.776-.368 2.418-1.037l6.68-6.956 5.903 6.149a.939.939 0 0 0 1.331.027.942.942 0 0 0 .027-1.331l-5.956-6.204 17.214-17.928v36.843a.418.418 0 0 1-.412.412zm-7.85-10.002a.942.942 0 0 0-1.357 1.304l6.193 6.45a.939.939 0 0 0 1.331.028.942.942 0 0 0 .028-1.332l-6.194-6.45z" fill="#FFF" fill-rule="evenodd"/></svg>