<svg width="51" height="57" viewBox="0 0 51 57" xmlns="http://www.w3.org/2000/svg"><title>94E9D322-7227-4473-9D36-8D5A863C8B26</title><g fill="none" fill-rule="evenodd"><path fill="#E44D26" d="M4.73 51.298L.156-.002h50.26l-4.58 51.292-20.581 5.706z"/><path fill="#F16529" d="M25.286 52.635l16.63-4.61L45.83 4.191H25.286z"/><path fill="#EBEBEB" d="M25.286 23.219H16.96l-.575-6.443h8.9v-6.292H9.51l.15 1.688 1.547 17.339h14.08zm0 16.341l-.028.007-7.007-1.892-.448-5.018h-6.316l.881 9.879 12.889 3.578.029-.008z"/><path fill="#FFF" d="M25.264 23.219v6.292h7.748l-.73 8.16-7.018 1.894v6.546l12.899-3.575.094-1.063 1.479-16.565.153-1.69h-1.695zm0-12.735v6.292h15.198l.126-1.414.287-3.19.15-1.688z"/></g></svg>