<svg width="51" height="57" viewBox="0 0 51 57" xmlns="http://www.w3.org/2000/svg"><title>0A1D7F0E-5C54-4822-9B99-6FED4400F78A</title><g fill="none" fill-rule="evenodd"><path fill="#EFC725" d="M5.031 51.297L.46.018h50.237l-4.577 51.27-20.572 5.704z"/><path fill="#FBDE34" d="M25.535 52.57l16.624-4.61 3.91-43.812H25.536z"/><path fill="#EBEBEB" d="M25.526 39.504l-.028.008-7.004-1.892-.448-5.016h-6.313l.881 9.875 12.883 3.576.029-.008zm.847-10.047v-6.29h-7.744l.908-9.87 6.853-.182-.017-6.54H13.85l-.466 4.636-1.478 16.557-.153 1.689h1.695z"/><path fill="#FFF" d="M26.33 13.124l.028-.008 6.869.413.583 6.494h6.313l-1.1-12.151-12.664-1.3-.029.008z"/><path fill="#FFF" d="M39.474 13.143l-.538-6.568H25.66v6.568h13.814M25.504 23.17v6.29h7.744l-.73 8.156-7.014 1.893v6.543l12.893-3.573.094-1.062 1.478-16.558.154-1.688h-1.695z"/></g></svg>