<svg height="135" id="Layer_1" viewBox="0 0 135 135" width="135" xmlns="http://www.w3.org/2000/svg"><style>.st0{fill:#465652}.st1{fill:#aab9ba}.st2{fill:#47c67b}.st3{fill:#aac8d1}.st4{fill:none;stroke:#e83834;stroke-width:6;stroke-linecap:round;stroke-linejoin:round;stroke-miterlimit:10}.st5{fill:#7bc67b}.st6{fill:#7bc7ff}.st7{fill:#7c34c1}.st8{fill:#7c8d96}.st9{fill:#ad2707}.st10{fill:#adb8bc}.st11{fill:#107510}.st12{fill:#7fe5d8}.st13{fill:#af4ad1}.st14{fill:#e02b7e}.st15{fill:#e04038}.st16{fill:#afd7dd}.st17{fill:#e0a010}.st18{fill:#e0d5a4}.st19{fill:#12b2b2}.st20{fill:#12d66b}.st21{fill:#e1a9ff}.st22{fill:#1362a8}.st23{fill:#e2378d}.st24{fill:#e29c37}.st25{fill:#e2b90e}.st26{fill:#e2bf91}.st27{fill:#e2cbaa}.st28{fill:#14a594}.st29{fill:#e4e9ed}.st30{fill:#4a5d60}.st31{fill:#e5b076}.st32{fill:#e5b1c4}.st33{fill:#e5e4c3}.st34{fill:#4b6466}.st35{fill:#e6ff2e}.st36{fill:#18aa67}.st37{fill:#e86207}.st38{fill:#e8a113}.st39{fill:#e8b5a6}.st40{fill:#e8e8ed}.st41{fill:#4e5154}.st42{fill:#e9f1f4}.st43{fill:#4f4b48}.st44{fill:#4f74e8}.st45{fill:#808e93}.st46{fill:#80949b}.st47{fill:#80edac}.st48{fill:#b122e0}.st49{fill:#b2c4cc}.st50{fill:#83d839}.st51{fill:#b3c6c6}.st52{fill:none;stroke:#33363a;stroke-width:3;stroke-linecap:round;stroke-linejoin:round;stroke-miterlimit:10}.st53{fill:#1a8e1c}.st54{fill:#1a93d6}.st55{fill:#b50b0b}.st56{fill:#1ad88f}.st57{fill:#b5daf4}.st58{fill:#ea7b1f}.st59{fill:#ea81bd}.st60{fill:#87b8d6}.st61{fill:#87c3f4}.st62{fill:#eac79d}.st63{fill:#eadf11}.st64{fill:#eae4c5}.st65{fill:#b78094}.st66{fill:#8844d8}.st67{fill:#ebf4f7}.st68{fill:#893015}.st69{fill:#89410b}.st70{fill:#899ba3}.st71{fill:#ede3b9}.st72{enable-background:new}.st73{fill:#50ff9f}.st74{fill:#eedcf4}.st75{fill:#efa37d}.st76{fill:#efa3cc}.st77{fill:#efc99a}.st78{fill:#54af79}.st79{fill:#ba503a}.st80{fill:#ba8663}.st81{fill:#8b4fe0}.st82{fill:#58ed9b}.st83{fill:#bc7dff}.st84{fill:#8d9aa3}.st85{fill:#bccad3}.st86{fill:#8de4ff}.st87{fill:#20b518}.st88{fill:#bf44f2}.st89{fill:#21cea1}.st90{fill:#bfdae0}.st91{fill:#f0fbfc}.st92{fill:#f2d9a7}.st93{fill:#f2eac9}.st94{fill:#24d1af}.st95{fill:#25931c}.st96{fill:#f4c4b3}.st97{fill:#f4d3a2}.st98{fill:#f4d647}.st99{fill:#f4d7b8}.st100{fill:#f4ec8e}.st101{fill:#5b524d}.st102{fill:#f77819}.st103{fill:#f79ae1}.st104{fill:#5e707a}.st105{fill:#f93585}.st106{fill:#f95d5d}.st107{fill:#f9c19b}.st108{fill:#f9cb58}.st109{fill:#f9d2b2}.st110{fill:#f9f07d}.st111{fill:#f9f1d2}.st112{fill:#f9f4b7}.st113{fill:#f9f9e4}.st114{fill:#5f1daa}.st115{fill:#5f9ad6}.st116{fill:#c0c0c4}.st117{fill:#91ea57}.st118{fill:#c12727}.st119{fill:#c191a0}.st120{fill:#923bb7}.st121{fill:#93a0a3}.st122{fill:#93f9ea}.st123{fill:#93ff5a}.st124{fill:#c4833d}.st125{fill:#95a2a5}.st126{fill:#965514}.st127{fill:#96562c}.st128{fill:#2af42f}.st129{fill:#c5d7dd}.st130{fill:#c68510}.st131{fill:#c6a86d}.st132{fill:#c6bb8d}.st133{fill:#2c9dce}.st134{fill:#fbfcf2}.st135{fill:#fc70b0}.st136{fill:#fce6c8}.st137{fill:#fcf7e3}.st138{fill:#c90d6b}.st139{fill:#fdfeff}.st140{fill:#fdffdc}.st141{fill:#ff1a1a}.st142{fill:#ff5252}.st143{fill:#ff5b00}.st144{fill:#ff6155}.st145{fill:#ff630d}.st146{fill:#f66}.st147{fill:#ff7676}.st148{fill:#ff7900}.st149{fill:#ff860d}.st150{fill:#ff8b00}.st151{fill:#ff8f8f}.st152{fill:#ff900b}.st153{fill:#ff908a}.st154{fill:#ff960b}.st155{fill:#ff9c0d}.st156{fill:#ffa9d4}.st157{fill:#fa0}.st158{fill:#ffad40}.st159{fill:#ffaf10}.st160{fill:#ffb000}.st161{fill:#ffbe08}.st162{fill:#ffbf31}.st163{fill:#ffc200}.st164{fill:#ffcae8}.st165{fill:#ffccf5}.st166{fill:#ffd00b}.st167{fill:#ffd039}.st168{fill:#ffd400}.st169{fill:#ffd833}.st170{fill:#ffdb80}.st171{fill:#ffddd2}.st172{fill:#ffe6d4}.st173{fill:#ffe6eb}.st174{fill:#ffe98d}.st175{fill:#ffecd2}.st176{fill:#fff1d9}.st177{fill:#fff24d}.st178{fill:#fff3c2}.st179{fill:#fff4c7}.st180{fill:#fff800}.st181{fill:#fff80d}.st182{fill:#fff9de}.st183{fill:#fffbd7}.st184{fill:#fffbeb}.st185{fill:#fffcc0}.st186{fill:#fffcdc}.st187{fill:#fffffa}.st188{fill:#fff}.st189{fill:#63797f}.st190{fill:#65e529}.st191{fill:#66310e}.st192{fill:#663c17}.st193{fill:#9a5ae5}.st194{fill:#ca30ef}.st195{fill:#6892fc}.st196{fill:#9cffc4}.st197{fill:#cc4306}.st198{fill:#cc549e}.st199{fill:#9e3256}.st200{fill:#cdffbb}.st201{fill:#ce86af}.st202{fill:#ced9dd}.st203{fill:none;stroke:#33363a;stroke-width:3;stroke-linecap:round;stroke-linejoin:round;stroke-miterlimit:10;stroke-dasharray:6}.st204{fill:#cfe1e2}.st205{fill:#33363a}.st206{fill:#34c166}.st207{fill:#364b5b}.st208{fill:#3662ce}.st209{fill:#36c6ff}.st210{fill:#6adb9a}.st211{fill:#6d5c4d}.st212{fill:#6ebdf9}.st213{fill:#0031ff}.st214{fill:#0062ff}.st215{fill:#0068ff}.st216{fill:#0086ff}.st217{fill:#009be8}.st218{fill:#0af}.st219{fill:#d271ff}.st220{fill:#d363a9}.st221{fill:#d3964c}.st222{fill:#d3dfe2}.st223{fill:#d3e0e2}.st224{fill:#d3eff4}.st225{fill:#063b66}.st226{fill:#d60909}.st227{fill:#d61d1d}.st228{fill:#d7f0ff}.st229{fill:#09b285}.st230{fill:#d8d593}.st231{fill:#d8e2ea}.st232{fill:#d8e5ea}.st233{fill:#3e5054}.st234{fill:#d988ff}.st235{fill:#d9e7e8}.st236{fill:#702252}.st237{fill:#70d3e0}.st238{fill:#a02ff2}.st239{fill:#a2f255}.st240{fill:#a35616}.st241{fill:#a3cccc}.st242{fill:#0a6add}.st243{fill:#a5145d}.st244{fill:#a57555}.st245{fill:#77d6fc}.st246{fill:#7815ce}.st247{fill:#a7bbc1}.st248{fill:#dbd279}.st249{fill:#0d5c9e}.st250{fill:#a83c11}.st251{fill:#a8633d}.st252{fill:#a8a3e5}.st253{fill:#dce6ea}.st254{fill:#dce7ea}.st255{fill:#a962e8}.st256{fill:#dd2466}.st257{fill:#ddc38a}.st258{fill:#ddd2b1}.st259{fill:#dfe7e8}.st260{fill:#42b1e8}.st261{fill:#436377}.st262{fill:#43b530}</style><path class="st43" d="M117.667 30.565c6.312 8.672 7.635 20.496 2.378 30.678-5.255 10.184-15.657 15.953-26.386 15.832-6.312-8.674-7.635-20.494-2.377-30.678 5.256-10.183 15.656-15.953 26.385-15.832z"/><path class="st205" d="M93.659 77.075c-6.312-8.674-7.635-20.494-2.377-30.678 5.256-10.184 15.656-15.953 26.385-15.832"/><path class="st205" d="M93.99 78.577l-.348-.002a1.502 1.502 0 0 1-1.196-.617c-6.909-9.493-7.865-21.851-2.497-32.249 5.299-10.267 15.793-16.646 27.387-16.646l.348.002c.474.006.917.234 1.196.617 6.909 9.493 7.866 21.851 2.498 32.249-5.298 10.267-15.793 16.646-27.388 16.646zm22.903-46.51c-10.29.16-19.562 5.884-24.277 15.018-4.729 9.16-4.018 20.006 1.818 28.488 10.291-.16 19.564-5.884 24.278-15.018 4.729-9.159 4.017-20.004-1.819-28.488z"/><path class="st76" d="M113.052 41.421c3.885 5.336 4.699 12.613 1.463 18.881-3.234 6.268-9.637 9.82-16.24 9.744-3.885-5.338-4.698-12.613-1.463-18.881 3.234-6.269 9.636-9.82 16.24-9.744z"/><path class="st205" d="M98.482 71.547l-.226-.001a1.499 1.499 0 0 1-1.195-.617c-4.381-6.02-4.987-13.856-1.583-20.452 3.359-6.512 10.014-10.557 17.365-10.557l.226.001a1.5 1.5 0 0 1 1.195.617c4.382 6.02 4.988 13.856 1.583 20.452-3.36 6.512-10.014 10.557-17.365 10.557zm13.791-28.617c-5.996.202-11.373 3.582-14.129 8.923-2.765 5.355-2.402 11.68.908 16.685 5.995-.202 11.372-3.582 14.129-8.923 2.766-5.357 2.405-11.68-.908-16.685z"/><path class="st43" d="M17.333 30.565c-6.312 8.672-7.636 20.496-2.378 30.678C20.21 71.427 30.612 77.196 41.34 77.075c6.312-8.674 7.635-20.494 2.379-30.678S28.062 30.444 17.333 30.565z"/><path class="st205" d="M41.34 77.075c6.312-8.674 7.635-20.494 2.379-30.678S28.062 30.444 17.333 30.565"/><path class="st205" d="M41.009 78.577c-11.595 0-22.089-6.379-27.387-16.646C8.253 51.534 9.21 39.177 16.12 29.683a1.503 1.503 0 0 1 1.196-.617l.348-.002c11.594 0 22.089 6.379 27.388 16.646 5.367 10.398 4.409 22.755-2.499 32.248a1.503 1.503 0 0 1-1.196.617l-.348.002zm-22.902-46.51c-5.837 8.483-6.549 19.329-1.819 28.487 4.714 9.135 13.986 14.858 24.277 15.019 5.836-8.482 6.548-19.328 1.82-28.488-4.714-9.134-13.988-14.857-24.278-15.018z"/><path class="st76" d="M21.948 41.421c-3.885 5.336-4.699 12.613-1.464 18.881 3.234 6.268 9.637 9.82 16.24 9.744 3.885-5.338 4.699-12.613 1.464-18.881-3.235-6.269-9.636-9.82-16.24-9.744z"/><path class="st205" d="M36.517 71.547c-7.351 0-14.005-4.046-17.365-10.558-3.405-6.596-2.798-14.433 1.584-20.451a1.501 1.501 0 0 1 1.195-.617l.226-.001c7.351 0 14.005 4.045 17.365 10.558 3.404 6.595 2.797 14.431-1.584 20.451a1.5 1.5 0 0 1-1.195.617l-.226.001zM22.727 42.93c-3.312 5.005-3.674 11.328-.909 16.684 2.756 5.342 8.133 8.722 14.129 8.924 3.311-5.006 3.673-11.329.909-16.684-2.756-5.342-8.134-8.722-14.129-8.924z"/><path class="st134" d="M116.709 80.892c0 20.676-22.032 37.441-49.209 37.441-27.178 0-49.209-16.766-49.209-37.441 0-20.68 22.031-45.459 49.209-45.459 27.177 0 49.209 24.779 49.209 45.459z"/><path class="st64" d="M116.709 80.892c0 20.676-22.032 37.441-49.209 37.441-27.178 0-49.209-16.766-49.209-37.441 0-20.68 22.031-34.928 49.209-34.928 27.177 0 49.209 14.248 49.209 34.928z"/><path class="st258" d="M116.709 80.892c0 20.676-22.032 37.441-49.209 37.441-27.178 0-49.209-16.766-49.209-37.441 0-20.682 6.262 18.34 49.209 18.34 42.948-.001 49.209-39.022 49.209-18.34z"/><path class="st205" d="M67.5 119.833c-27.961 0-50.709-17.469-50.709-38.941 0-21.27 22.619-46.959 50.709-46.959 13.041 0 25.772 5.472 35.849 15.406 9.305 9.174 14.86 20.97 14.86 31.553 0 21.472-22.748 38.941-50.709 38.941zm0-82.9c-26.428 0-47.709 24.048-47.709 43.959 0 19.818 21.402 35.941 47.709 35.941s47.709-16.123 47.709-35.941c0-19.912-21.281-43.959-47.709-43.959z"/><path class="st240" d="M51.338 78.733a8.05 8.05 0 0 1-8.053 8.051 8.05 8.05 0 1 1 0-16.102 8.053 8.053 0 0 1 8.053 8.051z"/><path class="st205" d="M51.338 78.733c0 4.449-3.605 1.664-8.053 1.664-4.445 0-8.051 2.785-8.051-1.664a8.053 8.053 0 0 1 16.104 0z"/><path class="st205" d="M43.285 88.284c-5.267 0-9.551-4.284-9.551-9.551s4.284-9.551 9.551-9.551c5.268 0 9.553 4.284 9.553 9.551s-4.285 9.551-9.553 9.551zm0-16.101c-3.612 0-6.551 2.938-6.551 6.551s2.938 6.551 6.551 6.551 6.553-2.938 6.553-6.551-2.94-6.551-6.553-6.551z"/><circle class="st188" cx="39.282" cy="76.116" r="3.28"/><path class="st205" d="M39.281 80.897a4.785 4.785 0 0 1-4.779-4.781 4.784 4.784 0 0 1 4.779-4.779 4.785 4.785 0 0 1 4.781 4.779 4.785 4.785 0 0 1-4.781 4.781zm0-6.56a1.78 1.78 0 0 0 0 3.56c.982 0 1.781-.799 1.781-1.781 0-.981-.798-1.779-1.781-1.779z"/><path class="st240" d="M99.765 78.733a8.049 8.049 0 0 1-8.051 8.051 8.05 8.05 0 0 1-8.052-8.051 8.052 8.052 0 0 1 16.103 0z"/><path class="st205" d="M99.765 78.733c0 4.449-3.604 1.664-8.051 1.664s-8.052 2.785-8.052-1.664a8.052 8.052 0 0 1 16.103 0z"/><path class="st205" d="M91.714 88.284c-5.267 0-9.552-4.284-9.552-9.551s4.285-9.551 9.552-9.551 9.551 4.284 9.551 9.551-4.285 9.551-9.551 9.551zm0-16.101c-3.612 0-6.552 2.938-6.552 6.551s2.939 6.551 6.552 6.551 6.551-2.938 6.551-6.551-2.939-6.551-6.551-6.551z"/><circle class="st188" cx="87.709" cy="76.116" r="3.28"/><path class="st205" d="M87.71 80.897a4.786 4.786 0 0 1-4.781-4.781 4.785 4.785 0 0 1 4.781-4.779 4.784 4.784 0 0 1 4.779 4.779 4.784 4.784 0 0 1-4.779 4.781zm0-6.56c-.982 0-1.781.798-1.781 1.779 0 .982.799 1.781 1.781 1.781a1.78 1.78 0 0 0 0-3.56z"/><path class="st134" d="M83.729 88.479c0 1.391-7.266 1.641-16.229 1.641-8.964 0-16.231-.25-16.231-1.641 0-1.393 7.268-5.031 16.231-5.031 8.964 0 16.229 3.639 16.229 5.031z"/><path class="st64" d="M109.004 88.948l19.929-15.381-22.975 6.577"/><path class="st205" d="M109.005 90.448a1.5 1.5 0 0 1-.917-2.688l13.729-10.597-15.446 4.422a1.5 1.5 0 1 1-.826-2.884l22.975-6.576a1.5 1.5 0 0 1 1.329 2.63L109.92 90.136a1.49 1.49 0 0 1-.915.312z"/><path class="st64" d="M25.996 88.948L6.067 73.567l22.975 6.577"/><path class="st205" d="M25.995 90.448c-.32 0-.643-.102-.915-.312L5.151 74.755a1.5 1.5 0 0 1 1.329-2.63l22.975 6.576a1.5 1.5 0 0 1-.826 2.884l-15.446-4.422L26.912 87.76a1.5 1.5 0 0 1-.917 2.688z"/><path class="st258" d="M109.563 89.005l20.198 15.588-23.284-6.666"/><path class="st205" d="M129.761 106.093c-.137 0-.275-.019-.413-.058l-23.284-6.666a1.5 1.5 0 0 1 .826-2.884l15.755 4.511-13.997-10.803a1.5 1.5 0 1 1 1.833-2.375l20.197 15.588a1.5 1.5 0 0 1-.917 2.687z"/><path class="st258" d="M25.438 89.005L5.24 104.593l23.283-6.666"/><path class="st205" d="M5.24 106.093a1.5 1.5 0 0 1-.916-2.687l20.197-15.588a1.5 1.5 0 0 1 1.833 2.375l-13.996 10.803 15.753-4.511a1.5 1.5 0 0 1 .826 2.884l-23.283 6.666a1.52 1.52 0 0 1-.414.058z"/><path class="st64" d="M92.13 48.015l.637-25.164-9.391 21.974"/><path class="st205" d="M92.131 49.515h-.039a1.502 1.502 0 0 1-1.462-1.538l.439-17.336-6.314 14.774a1.496 1.496 0 0 1-1.969.789 1.499 1.499 0 0 1-.789-1.969l9.391-21.975a1.505 1.505 0 0 1 1.698-.876 1.502 1.502 0 0 1 1.181 1.504l-.637 25.165a1.502 1.502 0 0 1-1.499 1.462z"/><path class="st64" d="M42.869 48.015l-.637-25.164 9.391 21.974"/><path class="st205" d="M42.868 49.515a1.5 1.5 0 0 1-1.499-1.462l-.637-25.164a1.5 1.5 0 0 1 2.879-.628l9.391 21.975a1.499 1.499 0 0 1-.789 1.969 1.496 1.496 0 0 1-1.969-.789L43.93 30.641l.439 17.336a1.501 1.501 0 0 1-1.462 1.538h-.039zm45.508 50.648H46.623c-2.757 0-5-2.243-5-5s2.243-5 5-5a1.5 1.5 0 0 1 0 3c-1.103 0-2 .897-2 2s.897 2 2 2h41.753c1.103 0 2-.897 2-2s-.897-2-2-2a1.5 1.5 0 0 1 0-3c2.757 0 5 2.243 5 5s-2.243 5-5 5z"/><path class="st167" d="M83.034 52.815c0 7.258-5.887 13.143-13.145 13.143h-4.778c-7.26 0-13.145-5.885-13.145-13.143V29.813c0-7.26 5.885-13.146 13.145-13.146h4.778c7.258 0 13.145 5.887 13.145 13.146v23.002z"/><path class="st160" d="M69.89 24.276h-4.778c-7.26 0-13.145 5.887-13.145 13.146v15.393c0 7.258 5.885 13.143 13.145 13.143h4.778c7.258 0 13.145-5.885 13.145-13.143V37.423c-.001-7.26-5.888-13.147-13.145-13.147z"/><path class="st58" d="M81.843 30.31c0 .91-.737 1.648-1.646 1.648h-26.53a1.647 1.647 0 1 1 0-3.294h26.53a1.646 1.646 0 0 1 1.646 1.646zm0 8.699c0 .91-.737 1.648-1.646 1.648h-26.53a1.647 1.647 0 1 1 0-3.294h26.53a1.647 1.647 0 0 1 1.646 1.646zm0 9.527c0 .91-.737 1.648-1.646 1.648h-26.53a1.647 1.647 0 1 1 0-3.294h26.53c.908 0 1.646.738 1.646 1.646zm0 9.527c0 .91-.737 1.648-1.646 1.648h-26.53a1.647 1.647 0 1 1 0-3.294h26.53c.908 0 1.646.738 1.646 1.646z"/><path class="st205" d="M69.89 67.458h-4.778c-8.075 0-14.645-6.568-14.645-14.643V29.813c0-8.076 6.569-14.646 14.645-14.646h4.778c8.075 0 14.645 6.57 14.645 14.646v23.002c-.001 8.075-6.57 14.643-14.645 14.643zm-4.779-49.291c-6.421 0-11.645 5.225-11.645 11.646v23.002c0 6.42 5.224 11.643 11.645 11.643h4.778c6.421 0 11.645-5.223 11.645-11.643V29.813c0-6.422-5.224-11.646-11.645-11.646h-4.778z"/><path class="st205" d="M58.688 29.335h-.953a1.5 1.5 0 0 1 0-3h.953a1.5 1.5 0 0 1 0 3zm18.578 0h-.952a1.5 1.5 0 0 1 0-3h.952a1.5 1.5 0 0 1 0 3zm-5.597 0h-8.337a1.5 1.5 0 0 1 0-3h8.337a1.5 1.5 0 0 1 0 3zm-12.981 9.527h-.953a1.5 1.5 0 0 1 0-3h.953a1.5 1.5 0 0 1 0 3zm18.578 0h-.952a1.5 1.5 0 0 1 0-3h.952a1.5 1.5 0 0 1 0 3zm-5.597 0h-8.337a1.5 1.5 0 0 1 0-3h8.337a1.5 1.5 0 0 1 0 3zM58.688 48.39h-.953a1.5 1.5 0 0 1 0-3h.953a1.5 1.5 0 0 1 0 3zm18.578 0h-.952a1.5 1.5 0 0 1 0-3h.952a1.5 1.5 0 0 1 0 3zm-5.597 0h-8.337a1.5 1.5 0 0 1 0-3h8.337a1.5 1.5 0 0 1 0 3zm-12.981 9.527h-.953a1.5 1.5 0 0 1 0-3h.953a1.5 1.5 0 0 1 0 3zm18.578 0h-.952a1.5 1.5 0 0 1 0-3h.952a1.5 1.5 0 0 1 0 3zm-5.597 0h-8.337a1.5 1.5 0 0 1 0-3h8.337a1.5 1.5 0 0 1 0 3zM49.25 103.333a1.5 1.5 0 0 1-1.5-1.5v-2a1.5 1.5 0 0 1 3 0v2a1.5 1.5 0 0 1-1.5 1.5zm36.5 0a1.5 1.5 0 0 1-1.5-1.5v-2a1.5 1.5 0 0 1 3 0v2a1.5 1.5 0 0 1-1.5 1.5z"/></svg>