<svg width="73" height="40" viewBox="0 0 73 40" xmlns="http://www.w3.org/2000/svg"><title>BCD2C75F-3DF2-414C-A27D-0D505BBA67DB</title><g fill="none" fill-rule="evenodd"><path d="M36.394 39.049c19.885 0 36.006-8.524 36.006-19.038C72.4 9.497 56.28.973 36.394.973 16.509.973.388 9.497.388 20.011c0 10.514 16.12 19.038 36.006 19.038" fill="#4A659B"/><path d="M70.66 20.011c0-9.545-15.342-17.283-34.266-17.283S2.128 10.466 2.128 20.011c0 9.545 15.342 17.283 34.266 17.283S70.66 29.556 70.66 20.01z" fill="#617CBE"/><path d="M43.335 25.597l1.7-8.706c.383-1.965.064-3.43-.948-4.357-.98-.896-2.645-1.332-5.09-1.332h-2.943l.843-4.314a.553.553 0 0 0-.548-.66h-4.062a.556.556 0 0 0-.547.449l-1.805 9.243c-.164-1.04-.569-1.935-1.216-2.672-1.192-1.358-3.077-2.046-5.603-2.046h-7.874a.556.556 0 0 0-.547.449l-3.654 18.708a.552.552 0 0 0 .547.66h4.095a.557.557 0 0 0 .547-.448l.884-4.525h3.048c1.6 0 2.943-.173 3.993-.513a7.823 7.823 0 0 0 2.93-1.747 8.974 8.974 0 0 0 1.731-2.14l-.73 3.74a.559.559 0 0 0 .547.66h4.063a.557.557 0 0 0 .547-.449l2.005-10.27h2.788c1.188 0 1.535.236 1.63.337.086.093.264.418.064 1.444l-1.616 8.277a.558.558 0 0 0 .547.66h4.127a.557.557 0 0 0 .547-.448zM24.5 18.404c-.255 1.305-.736 2.236-1.43 2.767-.704.54-1.83.813-3.348.813h-1.815l1.312-6.72h2.347c1.724 0 2.418.366 2.697.674.386.426.468 1.279.237 2.466zm36.209-5.156c-1.192-1.358-3.077-2.046-5.603-2.046h-7.875a.556.556 0 0 0-.547.449l-3.653 18.708a.553.553 0 0 0 .547.66h4.095a.556.556 0 0 0 .547-.448l.883-4.525h3.049c1.6 0 2.943-.173 3.992-.513a7.824 7.824 0 0 0 2.93-1.747 8.955 8.955 0 0 0 1.776-2.215 8.936 8.936 0 0 0 .966-2.67c.466-2.383.093-4.285-1.107-5.653zm-4.247 5.156c-.255 1.305-.736 2.236-1.43 2.767-.704.54-1.83.813-3.348.813h-1.816l1.313-6.72h2.346c1.724 0 2.419.366 2.698.674.386.426.468 1.279.237 2.466z" fill="#FFF"/><path d="M21.566 14.709c1.555 0 2.592.286 3.11.857.518.572.642 1.553.37 2.944-.282 1.448-.827 2.481-1.635 3.1-.809.62-2.038.929-3.69.929h-2.49l1.529-7.83h2.806zm-9.978 15.756h4.095l.971-4.974h3.508c1.548 0 2.82-.161 3.82-.485 1-.323 1.908-.866 2.726-1.628a8.354 8.354 0 0 0 1.666-2.077 8.35 8.35 0 0 0 .905-2.506c.434-2.217.107-3.945-.98-5.182-1.086-1.238-2.814-1.856-5.183-1.856h-7.874l-3.654 18.708zM32.287 6.783h4.062l-.97 4.974h3.619c2.277 0 3.848.395 4.712 1.185.865.791 1.124 2.072.778 3.843l-1.7 8.706h-4.127l1.616-8.278c.184-.941.117-1.584-.203-1.926-.32-.342-.999-.514-2.038-.514h-3.247l-2.093 10.718h-4.063l3.654-18.708m21.24 7.926c1.556 0 2.593.286 3.111.857.518.572.642 1.553.37 2.944-.282 1.448-.828 2.481-1.636 3.1-.808.62-2.038.929-3.688.929h-2.491l1.529-7.83h2.805zM43.55 30.465h4.095l.971-4.974h3.508c1.547 0 2.82-.161 3.82-.485 1-.323 1.908-.866 2.726-1.628a8.357 8.357 0 0 0 1.666-2.077 8.346 8.346 0 0 0 .905-2.506c.433-2.217.106-3.945-.98-5.182-1.086-1.238-2.814-1.856-5.183-1.856h-7.875L43.55 30.465z" fill="#08090D"/></g></svg>