<svg height="135" id="Layer_1" viewBox="0 0 135 135" width="135" xmlns="http://www.w3.org/2000/svg"><style>.st0{fill:#465652}.st1{fill:#aab9ba}.st2{fill:#47c67b}.st3{fill:#aac8d1}.st4{fill:none;stroke:#e83834;stroke-width:6;stroke-linecap:round;stroke-linejoin:round;stroke-miterlimit:10}.st5{fill:#7bc67b}.st6{fill:#7bc7ff}.st7{fill:#7c34c1}.st8{fill:#7c8d96}.st9{fill:#ad2707}.st10{fill:#adb8bc}.st11{fill:#107510}.st12{fill:#7fe5d8}.st13{fill:#af4ad1}.st14{fill:#e02b7e}.st15{fill:#e04038}.st16{fill:#afd7dd}.st17{fill:#e0a010}.st18{fill:#e0d5a4}.st19{fill:#12b2b2}.st20{fill:#12d66b}.st21{fill:#e1a9ff}.st22{fill:#1362a8}.st23{fill:#e2378d}.st24{fill:#e29c37}.st25{fill:#e2b90e}.st26{fill:#e2bf91}.st27{fill:#e2cbaa}.st28{fill:#14a594}.st29{fill:#e4e9ed}.st30{fill:#4a5d60}.st31{fill:#e5b076}.st32{fill:#e5b1c4}.st33{fill:#e5e4c3}.st34{fill:#4b6466}.st35{fill:#e6ff2e}.st36{fill:#18aa67}.st37{fill:#e86207}.st38{fill:#e8a113}.st39{fill:#e8b5a6}.st40{fill:#e8e8ed}.st41{fill:#4e5154}.st42{fill:#e9f1f4}.st43{fill:#4f4b48}.st44{fill:#4f74e8}.st45{fill:#808e93}.st46{fill:#80949b}.st47{fill:#80edac}.st48{fill:#b122e0}.st49{fill:#b2c4cc}.st50{fill:#83d839}.st51{fill:#b3c6c6}.st52{fill:none;stroke:#33363a;stroke-width:3;stroke-linecap:round;stroke-linejoin:round;stroke-miterlimit:10}.st53{fill:#1a8e1c}.st54{fill:#1a93d6}.st55{fill:#b50b0b}.st56{fill:#1ad88f}.st57{fill:#b5daf4}.st58{fill:#ea7b1f}.st59{fill:#ea81bd}.st60{fill:#87b8d6}.st61{fill:#87c3f4}.st62{fill:#eac79d}.st63{fill:#eadf11}.st64{fill:#eae4c5}.st65{fill:#b78094}.st66{fill:#8844d8}.st67{fill:#ebf4f7}.st68{fill:#893015}.st69{fill:#89410b}.st70{fill:#899ba3}.st71{fill:#ede3b9}.st72{enable-background:new}.st73{fill:#50ff9f}.st74{fill:#eedcf4}.st75{fill:#efa37d}.st76{fill:#efa3cc}.st77{fill:#efc99a}.st78{fill:#54af79}.st79{fill:#ba503a}.st80{fill:#ba8663}.st81{fill:#8b4fe0}.st82{fill:#58ed9b}.st83{fill:#bc7dff}.st84{fill:#8d9aa3}.st85{fill:#bccad3}.st86{fill:#8de4ff}.st87{fill:#20b518}.st88{fill:#bf44f2}.st89{fill:#21cea1}.st90{fill:#bfdae0}.st91{fill:#f0fbfc}.st92{fill:#f2d9a7}.st93{fill:#f2eac9}.st94{fill:#24d1af}.st95{fill:#25931c}.st96{fill:#f4c4b3}.st97{fill:#f4d3a2}.st98{fill:#f4d647}.st99{fill:#f4d7b8}.st100{fill:#f4ec8e}.st101{fill:#5b524d}.st102{fill:#f77819}.st103{fill:#f79ae1}.st104{fill:#5e707a}.st105{fill:#f93585}.st106{fill:#f95d5d}.st107{fill:#f9c19b}.st108{fill:#f9cb58}.st109{fill:#f9d2b2}.st110{fill:#f9f07d}.st111{fill:#f9f1d2}.st112{fill:#f9f4b7}.st113{fill:#f9f9e4}.st114{fill:#5f1daa}.st115{fill:#5f9ad6}.st116{fill:#c0c0c4}.st117{fill:#91ea57}.st118{fill:#c12727}.st119{fill:#c191a0}.st120{fill:#923bb7}.st121{fill:#93a0a3}.st122{fill:#93f9ea}.st123{fill:#93ff5a}.st124{fill:#c4833d}.st125{fill:#95a2a5}.st126{fill:#965514}.st127{fill:#96562c}.st128{fill:#2af42f}.st129{fill:#c5d7dd}.st130{fill:#c68510}.st131{fill:#c6a86d}.st132{fill:#c6bb8d}.st133{fill:#2c9dce}.st134{fill:#fbfcf2}.st135{fill:#fc70b0}.st136{fill:#fce6c8}.st137{fill:#fcf7e3}.st138{fill:#c90d6b}.st139{fill:#fdfeff}.st140{fill:#fdffdc}.st141{fill:#ff1a1a}.st142{fill:#ff5252}.st143{fill:#ff5b00}.st144{fill:#ff6155}.st145{fill:#ff630d}.st146{fill:#f66}.st147{fill:#ff7676}.st148{fill:#ff7900}.st149{fill:#ff860d}.st150{fill:#ff8b00}.st151{fill:#ff8f8f}.st152{fill:#ff900b}.st153{fill:#ff908a}.st154{fill:#ff960b}.st155{fill:#ff9c0d}.st156{fill:#ffa9d4}.st157{fill:#fa0}.st158{fill:#ffad40}.st159{fill:#ffaf10}.st160{fill:#ffb000}.st161{fill:#ffbe08}.st162{fill:#ffbf31}.st163{fill:#ffc200}.st164{fill:#ffcae8}.st165{fill:#ffccf5}.st166{fill:#ffd00b}.st167{fill:#ffd039}.st168{fill:#ffd400}.st169{fill:#ffd833}.st170{fill:#ffdb80}.st171{fill:#ffddd2}.st172{fill:#ffe6d4}.st173{fill:#ffe6eb}.st174{fill:#ffe98d}.st175{fill:#ffecd2}.st176{fill:#fff1d9}.st177{fill:#fff24d}.st178{fill:#fff3c2}.st179{fill:#fff4c7}.st180{fill:#fff800}.st181{fill:#fff80d}.st182{fill:#fff9de}.st183{fill:#fffbd7}.st184{fill:#fffbeb}.st185{fill:#fffcc0}.st186{fill:#fffcdc}.st187{fill:#fffffa}.st188{fill:#fff}.st189{fill:#63797f}.st190{fill:#65e529}.st191{fill:#66310e}.st192{fill:#663c17}.st193{fill:#9a5ae5}.st194{fill:#ca30ef}.st195{fill:#6892fc}.st196{fill:#9cffc4}.st197{fill:#cc4306}.st198{fill:#cc549e}.st199{fill:#9e3256}.st200{fill:#cdffbb}.st201{fill:#ce86af}.st202{fill:#ced9dd}.st203{fill:none;stroke:#33363a;stroke-width:3;stroke-linecap:round;stroke-linejoin:round;stroke-miterlimit:10;stroke-dasharray:6}.st204{fill:#cfe1e2}.st205{fill:#33363a}.st206{fill:#34c166}.st207{fill:#364b5b}.st208{fill:#3662ce}.st209{fill:#36c6ff}.st210{fill:#6adb9a}.st211{fill:#6d5c4d}.st212{fill:#6ebdf9}.st213{fill:#0031ff}.st214{fill:#0062ff}.st215{fill:#0068ff}.st216{fill:#0086ff}.st217{fill:#009be8}.st218{fill:#0af}.st219{fill:#d271ff}.st220{fill:#d363a9}.st221{fill:#d3964c}.st222{fill:#d3dfe2}.st223{fill:#d3e0e2}.st224{fill:#d3eff4}.st225{fill:#063b66}.st226{fill:#d60909}.st227{fill:#d61d1d}.st228{fill:#d7f0ff}.st229{fill:#09b285}.st230{fill:#d8d593}.st231{fill:#d8e2ea}.st232{fill:#d8e5ea}.st233{fill:#3e5054}.st234{fill:#d988ff}.st235{fill:#d9e7e8}.st236{fill:#702252}.st237{fill:#70d3e0}.st238{fill:#a02ff2}.st239{fill:#a2f255}.st240{fill:#a35616}.st241{fill:#a3cccc}.st242{fill:#0a6add}.st243{fill:#a5145d}.st244{fill:#a57555}.st245{fill:#77d6fc}.st246{fill:#7815ce}.st247{fill:#a7bbc1}.st248{fill:#dbd279}.st249{fill:#0d5c9e}.st250{fill:#a83c11}.st251{fill:#a8633d}.st252{fill:#a8a3e5}.st253{fill:#dce6ea}.st254{fill:#dce7ea}.st255{fill:#a962e8}.st256{fill:#dd2466}.st257{fill:#ddc38a}.st258{fill:#ddd2b1}.st259{fill:#dfe7e8}.st260{fill:#42b1e8}.st261{fill:#436377}.st262{fill:#43b530}</style><path class="st168" d="M94.294 9.536H68.299L53.975 34.675h11.639L50.344 65.7l40.13-35.908H77.437z"/><path class="st160" d="M63.333 18.251l-9.358 16.424h11.639L50.344 65.7l30.389-27.193H70.604l7.252-8.715h-.419l9.603-11.541z"/><path class="st205" d="M50.344 67.2a1.499 1.499 0 0 1-1.345-2.162l14.206-28.863h-9.229a1.501 1.501 0 0 1-1.304-2.242L66.995 8.794a1.502 1.502 0 0 1 1.304-.758h25.995a1.5 1.5 0 0 1 1.153 2.46l-14.81 17.796h9.837a1.499 1.499 0 0 1 1 2.618l-40.13 35.908a1.496 1.496 0 0 1-1 .382zm6.212-34.025h9.059a1.499 1.499 0 0 1 1.345 2.162L55.102 59.43l31.446-28.138h-9.111a1.5 1.5 0 0 1-1.153-2.46l14.811-17.796H69.171L56.556 33.175z"/><path class="st180" d="M116.709 88.022c0 20.676-22.032 37.441-49.209 37.441-27.178 0-49.209-16.766-49.209-37.441 0-20.68 22.031-45.459 49.209-45.459 27.177 0 49.209 24.78 49.209 45.459z"/><path class="st168" d="M116.709 88.022c0 20.676-22.032 37.441-49.209 37.441-27.178 0-49.209-16.766-49.209-37.441 0-20.68 22.031-34.928 49.209-34.928 27.177.001 49.209 14.249 49.209 34.928z"/><path class="st180" d="M77.979 78.224c0 1.393-4.691 1.643-10.479 1.643s-10.479-.25-10.479-1.643c0-1.395 4.691-5.037 10.479-5.037s10.479 3.642 10.479 5.037z"/><path class="st160" d="M116.709 88.022c0 20.676-22.032 37.441-49.209 37.441-27.178 0-49.209-16.766-49.209-37.441 0-20.682 6.261 18.34 49.209 18.34s49.209-39.021 49.209-18.34z"/><path class="st205" d="M67.5 126.964c-27.961 0-50.709-17.469-50.709-38.941 0-21.27 22.619-46.959 50.709-46.959 13.041 0 25.772 5.472 35.849 15.406 9.305 9.174 14.86 20.97 14.86 31.553 0 21.472-22.748 38.941-50.709 38.941zm0-82.901c-26.428 0-47.709 24.048-47.709 43.959 0 19.818 21.402 35.941 47.709 35.941s47.709-16.123 47.709-35.941c0-19.911-21.281-43.959-47.709-43.959z"/><path class="st168" d="M12.807 50.882c6.385 10.541 15.331 16.738 23.985 17.811 1.492-10.754-.872-23.232-7.258-33.773-6.386-10.544-15.332-16.741-23.985-17.81-1.492 10.75.872 23.231 7.258 33.772z"/><path class="st160" d="M5.549 17.11c-1.492 10.75.872 23.23 7.258 33.771 6.385 10.541 15.331 16.738 23.985 17.811L5.549 17.11z"/><path class="st205" d="M28.453 67.597c-.227 0-.455-.051-.671-.159-6.298-3.156-11.92-8.612-16.259-15.778-6.352-10.485-9.071-23.153-7.46-34.755a1.497 1.497 0 0 1 1.669-1.282c9.525 1.176 18.668 7.926 25.085 18.52 3.786 6.25 6.338 13.43 7.379 20.764a1.5 1.5 0 0 1-1.274 1.696 1.507 1.507 0 0 1-1.696-1.274c-.984-6.937-3.396-13.725-6.975-19.631-5.595-9.237-13.325-15.304-21.4-16.862-1.089 10.51 1.514 21.819 7.239 31.268 4.046 6.683 9.245 11.748 15.036 14.651a1.5 1.5 0 0 1-.673 2.842z"/><path class="st205" d="M21.672 25.169C16.668 20.55 11.05 17.79 5.549 17.11c-1.033 7.45-.212 15.729 2.512 23.616 6.639-2.053 15.421 3.47 13.611-15.557z"/><path class="st168" d="M122.193 50.882c-6.385 10.541-15.331 16.738-23.985 17.811-1.492-10.754.871-23.232 7.258-33.773 6.386-10.543 15.332-16.74 23.986-17.809 1.491 10.749-.872 23.23-7.259 33.771z"/><path class="st160" d="M129.452 17.11c1.491 10.75-.872 23.23-7.259 33.771-6.385 10.541-15.331 16.738-23.985 17.811l31.244-51.582z"/><path class="st205" d="M106.547 67.597a1.499 1.499 0 0 1-.673-2.841c5.789-2.901 10.988-7.968 15.036-14.651 5.725-9.447 8.328-20.758 7.24-31.271-8.076 1.559-15.807 7.625-21.401 16.862-3.579 5.909-5.991 12.697-6.974 19.631a1.5 1.5 0 1 1-2.97-.422c1.039-7.33 3.591-14.511 7.378-20.764 6.417-10.594 15.561-17.344 25.086-18.52a1.5 1.5 0 0 1 1.669 1.282c1.61 11.604-1.109 24.271-7.461 34.755-4.341 7.167-9.963 12.623-16.259 15.778-.216.11-.446.161-.671.161z"/><path class="st205" d="M113.328 25.169c5.005-4.619 10.622-7.379 16.124-8.059 1.033 7.449.212 15.729-2.512 23.615-6.64-2.052-15.423 3.471-13.612-15.556z"/><circle class="st141" cx="36.499" cy="91.384" r="7.013"/><path class="st227" d="M43.512 91.384a7.014 7.014 0 0 1-14.027 0"/><circle class="st141" cx="98.501" cy="91.384" r="7.014"/><path class="st227" d="M105.515 91.384a7.015 7.015 0 0 1-14.028 0"/><path class="st205" d="M63.582 80.823l3.918 1.961 3.919-1.961z"/><path class="st205" d="M67.5 84.284c-.23 0-.46-.053-.671-.158l-3.918-1.961a1.502 1.502 0 0 1 .671-2.842h7.837a1.502 1.502 0 0 1 .671 2.842l-3.919 1.961a1.506 1.506 0 0 1-.671.158z"/><path class="st205" d="M63.41 90.978h-1.457a5.596 5.596 0 0 1-5.591-5.588 1.5 1.5 0 0 1 3 0 2.592 2.592 0 0 0 2.591 2.588h1.457a2.591 2.591 0 0 0 2.589-2.588v-1.455a1.5 1.5 0 0 1 3 0v1.455a5.595 5.595 0 0 1-5.589 5.588z"/><path class="st205" d="M73.047 90.978h-1.456a5.596 5.596 0 0 1-5.59-5.588v-1.455a1.5 1.5 0 0 1 3 0v1.455a2.592 2.592 0 0 0 2.59 2.588h1.456a2.592 2.592 0 0 0 2.591-2.588 1.5 1.5 0 0 1 3 0 5.596 5.596 0 0 1-5.591 5.588z"/><path class="st211" d="M51.338 73.753a8.05 8.05 0 0 1-8.053 8.051 8.05 8.05 0 0 1-8.051-8.051 8.052 8.052 0 1 1 16.104 0z"/><path class="st205" d="M51.338 73.753c0 4.449-3.605 1.662-8.053 1.662-4.446 0-8.051 2.787-8.051-1.662a8.052 8.052 0 1 1 16.104 0z"/><path class="st205" d="M43.285 83.304c-5.267 0-9.551-4.284-9.551-9.551 0-5.268 4.284-9.553 9.551-9.553 5.268 0 9.553 4.285 9.553 9.553 0 5.267-4.285 9.551-9.553 9.551zm0-16.104a6.56 6.56 0 0 0-6.551 6.553 6.558 6.558 0 0 0 6.551 6.551 6.56 6.56 0 0 0 6.553-6.551 6.56 6.56 0 0 0-6.553-6.553z"/><circle class="st188" cx="39.282" cy="71.136" r="3.281"/><path class="st205" d="M39.281 75.915c-2.636 0-4.78-2.144-4.78-4.779s2.145-4.779 4.78-4.779c2.637 0 4.781 2.144 4.781 4.779s-2.144 4.779-4.781 4.779zm0-6.559c-.981 0-1.78.798-1.78 1.779s.799 1.779 1.78 1.779c.982 0 1.781-.798 1.781-1.779s-.798-1.779-1.781-1.779z"/><path class="st211" d="M99.765 73.753a8.049 8.049 0 0 1-8.051 8.051 8.05 8.05 0 0 1-8.052-8.051 8.052 8.052 0 1 1 16.103 0z"/><path class="st205" d="M99.765 73.753c0 4.449-3.604 1.662-8.051 1.662s-8.052 2.787-8.052-1.662a8.052 8.052 0 1 1 16.103 0z"/><path class="st205" d="M91.714 83.304c-5.267 0-9.552-4.284-9.552-9.551 0-5.268 4.285-9.553 9.552-9.553s9.551 4.285 9.551 9.553c0 5.267-4.285 9.551-9.551 9.551zm0-16.104a6.56 6.56 0 0 0-6.552 6.553c0 3.612 2.939 6.551 6.552 6.551s6.551-2.938 6.551-6.551a6.56 6.56 0 0 0-6.551-6.553z"/><circle class="st188" cx="87.709" cy="71.136" r="3.28"/><path class="st205" d="M87.71 75.915c-2.637 0-4.781-2.144-4.781-4.779s2.145-4.779 4.781-4.779c2.636 0 4.779 2.144 4.779 4.779s-2.143 4.779-4.779 4.779zm0-6.559c-.982 0-1.781.798-1.781 1.779s.799 1.779 1.781 1.779c.981 0 1.779-.798 1.779-1.779s-.798-1.779-1.779-1.779z"/></svg>