<svg width="53" height="55" viewBox="0 0 53 55" xmlns="http://www.w3.org/2000/svg"><title>B7F05656-9C27-4911-BFA9-1D33BC4FEACA</title><g fill="none" fill-rule="evenodd"><path d="M26.76 12.757v1.859H8.573a8.496 8.496 0 0 0-8.498 8.496v8.63a8.497 8.497 0 0 0 8.497 8.497h3.346v-9.056a4.78 4.78 0 0 1 4.78-4.781h17.767c2.64 0 4.78-2.138 4.78-4.78V8.243a7.7 7.7 0 0 0-7.7-7.702H21.282a7.7 7.7 0 0 0-7.7 7.701v4.514H26.76zm-7.567-3.054a2.522 2.522 0 1 0 0-5.045 2.522 2.522 0 0 0 0 5.045z" fill="#3E85D8"/><path d="M26.1 41.832v-1.859h18.188a8.496 8.496 0 0 0 8.498-8.497v-8.63a8.497 8.497 0 0 0-8.496-8.496h-3.347v9.055a4.78 4.78 0 0 1-4.78 4.782H18.397a4.779 4.779 0 0 0-4.78 4.78v13.377a7.7 7.7 0 0 0 7.7 7.702H31.58a7.7 7.7 0 0 0 7.7-7.7v-4.514H26.1zm7.568 3.053a2.522 2.522 0 1 0 0 5.045 2.522 2.522 0 0 0 0-5.045z" fill="#F8CA00"/></g></svg>