<svg width="58" height="46" viewBox="0 0 58 46" xmlns="http://www.w3.org/2000/svg"><title>31664EF5-354F-40E7-8A53-608247FA0FEE</title><path d="M21.249 45.133H.668V30.41c0-5.957.525-10.657 1.575-14.099 1.05-3.442 2.99-6.53 5.822-9.265 2.832-2.735 6.446-4.883 10.84-6.445l4.029 8.496c-4.102 1.367-7.044 3.271-8.826 5.713-1.782 2.441-2.722 5.688-2.82 9.74h9.961v20.582zm34.35 0H35.02V30.41c0-6.006.524-10.718 1.574-14.136 1.05-3.418 3.003-6.494 5.86-9.228C45.309 4.312 48.91 2.164 53.256.602l4.028 8.496c-4.101 1.367-7.043 3.271-8.826 5.713-1.782 2.441-2.722 5.688-2.82 9.74H55.6v20.582z" fill="#ECECEC" fill-rule="evenodd"/></svg>