<svg width="38" height="58" viewBox="0 0 38 58" xmlns="http://www.w3.org/2000/svg"><title>51CE60A2-4EDB-4E2C-A6FD-F96FFDE172EE</title><path d="M37.054 26.788a.936.936 0 0 0-.945.926v16.589H1.89v-16.59a.936.936 0 0 0-.945-.925.936.936 0 0 0-.946.926v27.66C0 56.822 1.204 58 2.683 58h32.634C36.797 58 38 56.822 38 55.374v-27.66a.936.936 0 0 0-.946-.926zm-1.737 29.36H2.683a.785.785 0 0 1-.792-.774v-9.22H36.11v9.22a.785.785 0 0 1-.792.775zm-13.291-5.922h-6.052a.936.936 0 0 0-.945.925c0 .511.423.926.945.926h6.052a.936.936 0 0 0 .945-.926.936.936 0 0 0-.945-.925zM35.316 0H2.684C1.203 0 0 1.178 0 2.626v17.522c0 3.758 3.124 6.816 6.964 6.816a6.997 6.997 0 0 0 6.018-3.39A6.997 6.997 0 0 0 19 26.965a6.997 6.997 0 0 0 6.018-3.39 6.997 6.997 0 0 0 6.018 3.39c3.84 0 6.964-3.058 6.964-6.816V2.626C38 1.178 36.796 0 35.317 0zM25.019 9.625a.936.936 0 0 0-.946.926v7.438H13.927V10.55a.936.936 0 0 0-.945-.926.936.936 0 0 0-.946.926v7.438H1.891V7.774H36.11V17.99H25.964v-7.44a.936.936 0 0 0-.946-.926zM2.683 1.851h32.634c.436 0 .792.348.792.775v3.297H1.89V2.626c0-.427.356-.775.792-.775zm4.28 23.262c-2.796 0-5.072-2.227-5.072-4.965v-.308h10.145v.308c0 2.738-2.275 4.965-5.072 4.965zm12.037 0c-2.797 0-5.072-2.227-5.072-4.965v-.308h10.145v.308c0 2.738-2.276 4.965-5.073 4.965zm12.036 0c-2.797 0-5.072-2.227-5.072-4.965v-.308h10.145v.308c0 2.738-2.276 4.965-5.073 4.965z" fill="#FFF" fill-rule="evenodd"/></svg>