<svg width="59" height="59" viewBox="0 0 59 59" xmlns="http://www.w3.org/2000/svg"><title>D1B1483F-72FD-4790-B01A-4B9694247844</title><path d="M56.76 4.108h-8.636V.941A.941.941 0 0 0 47.183 0H11.817a.941.941 0 0 0-.941.941v3.167H2.24A2.242 2.242 0 0 0 0 6.348v41.325a2.242 2.242 0 0 0 2.24 2.24h20.563v7.204h-8.88a.941.941 0 1 0 0 1.883h26.986a.941.941 0 1 0 0-1.883h-4.712v-7.204h3.875a.941.941 0 1 0 0-1.883H2.24a.361.361 0 0 1-.357-.357V6.348c0-.193.163-.357.357-.357h8.636V40.37h-6.04a.941.941 0 1 0 0 1.883h35.236a.941.941 0 1 0 0-1.883H32.68v-7.695a.941.941 0 0 0-.941-.941h-14.9a.941.941 0 0 0-.942.941v7.695H12.76V1.883h33.48v8.579a.941.941 0 1 0 1.883 0v-4.47h8.637a.36.36 0 0 1 .356.356v41.326a.361.361 0 0 1-.356.356h-2.468a.941.941 0 1 0 0 1.883h2.467a2.242 2.242 0 0 0 2.24-2.24V6.349a2.242 2.242 0 0 0-2.24-2.24zM34.315 57.117h-9.63v-7.204h9.63v7.204zm-16.535-23.5h13.017v6.753H17.78v-6.753zm33.676-11.202c-.002-.013-.003-.027-.006-.04l-.014-.058-.008-.03a.934.934 0 0 0-.02-.059l-.008-.022-.004-.012-.003-.006-3.337-8.311a.942.942 0 0 0-1.747 0l-3.338 8.312-.006.017-.009.024-.02.057-.007.03-.014.058c-.003.013-.004.027-.006.04-.003.017-.006.033-.007.05a.942.942 0 0 0-.005.092v32.157A4.29 4.29 0 0 0 47.183 59a4.29 4.29 0 0 0 4.285-4.286V22.557a.942.942 0 0 0-.004-.092l-.008-.05zm-6.676 1.083h4.805v26.887H44.78V23.498zm2.402-6.744l1.952 4.861h-3.903l1.951-4.86zm0 40.363a2.406 2.406 0 0 1-2.402-2.403v-2.446h4.805v2.446a2.405 2.405 0 0 1-2.403 2.403zM16.84 13.532h25.32c.52 0 .942-.422.942-.942V5.963a.941.941 0 0 0-.942-.942H16.84a.941.941 0 0 0-.942.942v6.627c0 .52.422.942.942.942zm.941-6.628h23.44v4.745H17.78V6.904zm24.381 8.51H16.84a.941.941 0 1 0 0 1.884h25.32a.941.941 0 1 0 0-1.883zM31.74 20.437h-14.9a.941.941 0 1 0 0 1.883h14.9a.941.941 0 1 0 0-1.883zm8.515 0h-4.75a.941.941 0 1 0 0 1.883h4.75a.941.941 0 1 0 0-1.883zm-8.515 3.766h-14.9a.941.941 0 1 0 0 1.883h14.9a.941.941 0 1 0 0-1.883zm8.333 0h-4.567a.941.941 0 1 0 0 1.883h4.567a.941.941 0 1 0 0-1.883zm-8.333 3.766h-14.9a.941.941 0 1 0 0 1.883h14.9a.941.941 0 1 0 0-1.883zm8.333 0h-4.567a.941.941 0 1 0 0 1.883h4.567a.941.941 0 1 0 0-1.883z" fill="#FFF" fill-rule="evenodd"/></svg>