<svg width="59" height="54" viewBox="0 0 59 54" xmlns="http://www.w3.org/2000/svg"><title>B344BC82-DF65-4617-AC2D-A4E47EEEB9BE</title><path d="M58.059 0H.94A.947.947 0 0 0 0 .953v52.094c0 .526.422.953.941.953H58.06c.52 0 .941-.427.941-.953V42.882a.947.947 0 0 0-.941-.953.947.947 0 0 0-.942.953v9.212H1.883V9.53h55.234v29.542c0 .526.422.953.942.953s.941-.427.941-.953V.953A.947.947 0 0 0 58.059 0zM1.883 1.906h34.835v5.718H1.883V1.906zm36.718 5.718V1.906h18.516v5.718H38.601zm9.29-3.876c-.554 0-1.005.456-1.005 1.017 0 .56.45 1.016 1.004 1.016s1.005-.456 1.005-1.016-.45-1.017-1.005-1.017zm-5.147 0c-.554 0-1.005.456-1.005 1.017 0 .56.45 1.016 1.005 1.016.553 0 1.004-.456 1.004-1.016s-.45-1.017-1.004-1.017zm10.293 0c-.553 0-1.004.456-1.004 1.017 0 .56.45 1.016 1.004 1.016s1.004-.456 1.004-1.016-.45-1.017-1.004-1.017zM18.668 25.855a.945.945 0 0 0 .785-.672l2.166-7.318a.955.955 0 0 0-.631-1.186.94.94 0 0 0-1.173.64l-1.553 5.247-1.497-2.53a.94.94 0 0 0-.808-.462.94.94 0 0 0-.808.463l-1.497 2.53-1.553-5.248a.94.94 0 0 0-1.172-.64.955.955 0 0 0-.632 1.187l2.166 7.317a.945.945 0 0 0 .902.68.94.94 0 0 0 .807-.464l1.787-3.018 1.787 3.018a.938.938 0 0 0 .924.456zm7.237 0a.932.932 0 0 0 .924-.457l1.787-3.018 1.786 3.018a.938.938 0 0 0 1.71-.216l2.166-7.318a.955.955 0 0 0-.632-1.186.94.94 0 0 0-1.172.64l-1.553 5.248-1.498-2.53a.94.94 0 0 0-.807-.463.94.94 0 0 0-.808.463l-1.497 2.53-1.553-5.248a.94.94 0 0 0-1.172-.64.955.955 0 0 0-.632 1.187l2.165 7.317a.945.945 0 0 0 .786.672zm20.4-9.178a.94.94 0 0 0-1.173.64l-1.553 5.248-1.497-2.53a.94.94 0 0 0-.808-.463.94.94 0 0 0-.808.463l-1.497 2.53-1.553-5.248a.94.94 0 0 0-1.172-.639.955.955 0 0 0-.632 1.186l2.166 7.317a.938.938 0 1 0 1.71.216l1.786-3.018 1.786 3.018a.94.94 0 0 0 .925.456.945.945 0 0 0 .785-.672l2.166-7.318a.955.955 0 0 0-.632-1.186zM17.16 31.262a.947.947 0 0 0-.941-.952h-5.022a.947.947 0 0 0-.941.952v5.083c0 .526.421.953.941.953h5.022c.52 0 .941-.427.941-.953v-5.083zm-1.883 4.13H12.14v-3.177h3.138v3.177zm.942 3.812h-5.022a.947.947 0 0 0-.941.953v5.082c0 .526.421.953.941.953h5.022c.52 0 .941-.427.941-.953v-5.082a.947.947 0 0 0-.941-.953zm-.942 5.082H12.14V41.11h3.138v3.176zm30.757-11.435h-3.766a.947.947 0 0 0-.941.953c0 .526.421.953.941.953h3.766c.52 0 .942-.427.942-.953a.947.947 0 0 0-.942-.953zm-7.532 0H19.985a.947.947 0 0 0-.942.953c0 .526.422.953.942.953h18.517c.52 0 .942-.427.942-.953a.947.947 0 0 0-.942-.953zm7.532 8.894h-3.766a.947.947 0 0 0-.941.953c0 .526.421.953.941.953h3.766c.52 0 .942-.427.942-.953a.947.947 0 0 0-.942-.953zm-7.532 0H19.985a.947.947 0 0 0-.942.953c0 .526.422.953.942.953h18.517c.52 0 .942-.427.942-.953a.947.947 0 0 0-.942-.953z" fill="#FFF" fill-rule="evenodd"/></svg>