<?xml version="1.0" encoding="UTF-8" standalone="no"?>
<svg width="54px" height="59px" viewBox="0 0 54 59" version="1.1" xmlns="http://www.w3.org/2000/svg" xmlns:xlink="http://www.w3.org/1999/xlink">
    <!-- Generator: sketchtool 39.1 (31720) - http://www.bohemiancoding.com/sketch -->
    <title>F7D31729-7313-4060-8685-B83F3AAB7621</title>
    <desc>Created with sketchtool.</desc>
    <defs></defs>
    <g id="Page-1" stroke="none" stroke-width="1" fill="none" fill-rule="evenodd">
        <g id="landing" transform="translate(-421.000000, -897.000000)" fill="#FFFFFF">
            <g id="2" transform="translate(-170.000000, 765.000000)">
                <g id="what-we-do" transform="translate(170.000000, 0.000000)">
                    <g id="1" transform="translate(406.000000, 132.000000)">
                        <path d="M68.0526316,0 L15.9473684,0 C15.4241684,0 15,0.42153617 15,0.941489362 L15,16.0053191 C15,16.5252723 15.4241684,16.9468085 15.9473684,16.9468085 L68.0526316,16.9468085 C68.5758316,16.9468085 69,16.5252723 69,16.0053191 L69,0.941489362 C69,0.42153617 68.5758316,0 68.0526316,0 L68.0526316,0 L68.0526316,0 L68.0526316,0 L68.0526316,0 Z M16.8947368,1.88297872 L51.9473684,1.88297872 L51.9473684,15.0638298 L16.8947368,15.0638298 L16.8947368,1.88297872 L16.8947368,1.88297872 L16.8947368,1.88297872 L16.8947368,1.88297872 L16.8947368,1.88297872 Z M67.1052632,15.0638298 L53.8421053,15.0638298 L53.8421053,1.88297872 L67.1052632,1.88297872 L67.1052632,15.0638298 L67.1052632,15.0638298 L67.1052632,15.0638298 L67.1052632,15.0638298 Z M31.1052632,46.4468085 L47.6842105,46.4468085 C48.2074105,46.4468085 48.6315789,46.0252723 48.6315789,45.5053191 C48.6315789,44.985366 48.2074105,44.5638298 47.6842105,44.5638298 L31.1052632,44.5638298 C30.5820632,44.5638298 30.1578947,44.985366 30.1578947,45.5053191 C30.1578947,46.0252723 30.5820632,46.4468085 31.1052632,46.4468085 L31.1052632,46.4468085 L31.1052632,46.4468085 L31.1052632,46.4468085 Z M64.2631579,39.5425532 L31.1052632,39.5425532 C30.5820632,39.5425532 30.1578947,39.9640894 30.1578947,40.4840426 C30.1578947,41.0039957 30.5820632,41.4255319 31.1052632,41.4255319 L64.2631579,41.4255319 C64.7863579,41.4255319 65.2105263,41.0039957 65.2105263,40.4840426 C65.2105263,39.9640894 64.7863579,39.5425532 64.2631579,39.5425532 L64.2631579,39.5425532 L64.2631579,39.5425532 L64.2631579,39.5425532 Z M68.0526316,19.4574468 L15.9473684,19.4574468 C15.4241684,19.4574468 15,19.878983 15,20.3989362 L15,35.462766 C15,35.9827191 15.4241684,36.4042553 15.9473684,36.4042553 L68.0526316,36.4042553 C68.5758316,36.4042553 69,35.9827191 69,35.462766 L69,20.3989362 C69,19.878983 68.5758316,19.4574468 68.0526316,19.4574468 L68.0526316,19.4574468 L68.0526316,19.4574468 L68.0526316,19.4574468 Z M31.1052632,31.3829787 L47.6842105,31.3829787 C48.2074105,31.3829787 48.6315789,30.9614426 48.6315789,30.4414894 C48.6315789,29.9215362 48.2074105,29.5 47.6842105,29.5 L31.1052632,29.5 C30.5820632,29.5 30.1578947,29.9215362 30.1578947,30.4414894 C30.1578947,30.9614426 30.5820632,31.3829787 31.1052632,31.3829787 L31.1052632,31.3829787 L31.1052632,31.3829787 L31.1052632,31.3829787 Z M31.1052632,26.3617021 L64.2631579,26.3617021 C64.7863579,26.3617021 65.2105263,25.940166 65.2105263,25.4202128 C65.2105263,24.9002596 64.7863579,24.4787234 64.2631579,24.4787234 L31.1052632,24.4787234 C30.5820632,24.4787234 30.1578947,24.9002596 30.1578947,25.4202128 C30.1578947,25.940166 30.5820632,26.3617021 31.1052632,26.3617021 L31.1052632,26.3617021 L31.1052632,26.3617021 L31.1052632,26.3617021 Z M67.1052632,34.5212766 L16.8947368,34.5212766 L16.8947368,21.3404255 L67.1052632,21.3404255 L67.1052632,34.5212766 L67.1052632,34.5212766 L67.1052632,34.5212766 L67.1052632,34.5212766 Z M56.8702737,10.3312766 C57.6012632,11.0577298 58.5730105,11.4578 59.6067789,11.4578 C60.3168,11.4578 60.9975158,11.269 61.5912,10.9153766 L63.5933053,12.9050574 C63.7782316,13.0888362 64.0207579,13.1808511 64.2631579,13.1808511 C64.5055579,13.1808511 64.7480842,13.0889617 64.9330105,12.9050574 C65.3029895,12.5373745 65.3029895,11.9412234 64.9330105,11.573666 L62.9309053,9.58398511 C63.2867368,8.99411064 63.4767158,8.31749362 63.4767158,7.61187872 C63.4767158,6.58452553 63.0741474,5.61880851 62.3431579,4.89235532 C61.6122947,4.16602766 60.6404211,3.76595745 59.6067789,3.76595745 C58.5730105,3.76595745 57.6012632,4.16602766 56.8702737,4.89235532 C55.3614316,6.39183404 55.3614316,8.83179787 56.8702737,10.3312766 L56.8702737,10.3312766 L56.8702737,10.3312766 L56.8702737,10.3312766 L56.8702737,10.3312766 Z M58.2101053,6.22387234 C58.5832421,5.8531766 59.0791579,5.64893617 59.6067789,5.64893617 C60.1344,5.64893617 60.6304421,5.85305106 61.0034526,6.22387234 C61.3765895,6.59469362 61.5819789,7.08753191 61.5819789,7.61187872 C61.5819789,8.13622553 61.3765895,8.62906383 61.0034526,8.99988511 C60.6303158,9.37070638 60.1344,9.57482128 59.6067789,9.57482128 C59.0791579,9.57482128 58.5831158,9.37070638 58.2101053,8.99988511 C57.4399579,8.23451702 57.4399579,6.98924043 58.2101053,6.22387234 L58.2101053,6.22387234 L58.2101053,6.22387234 L58.2101053,6.22387234 Z M27.3157895,38.287234 L19.7368421,38.287234 C19.2136421,38.287234 18.7894737,38.7087702 18.7894737,39.2287234 L18.7894737,46.7606383 C18.7894737,47.2805915 19.2136421,47.7021277 19.7368421,47.7021277 L27.3157895,47.7021277 C27.8389895,47.7021277 28.2631579,47.2805915 28.2631579,46.7606383 L28.2631579,39.2287234 C28.2631579,38.7087702 27.8389895,38.287234 27.3157895,38.287234 L27.3157895,38.287234 L27.3157895,38.287234 L27.3157895,38.287234 Z M26.3684211,45.8191489 L20.6842105,45.8191489 L20.6842105,40.1702128 L26.3684211,40.1702128 L26.3684211,45.8191489 L26.3684211,45.8191489 L26.3684211,45.8191489 L26.3684211,45.8191489 Z M47.6842105,55.8617021 L31.1052632,55.8617021 C30.5820632,55.8617021 30.1578947,56.2832383 30.1578947,56.8031915 C30.1578947,57.3231447 30.5820632,57.7446809 31.1052632,57.7446809 L47.6842105,57.7446809 C48.2074105,57.7446809 48.6315789,57.3231447 48.6315789,56.8031915 C48.6315789,56.2832383 48.2074105,55.8617021 47.6842105,55.8617021 L47.6842105,55.8617021 L47.6842105,55.8617021 L47.6842105,55.8617021 Z M64.2631579,50.8404255 L31.1052632,50.8404255 C30.5820632,50.8404255 30.1578947,51.2619617 30.1578947,51.7819149 C30.1578947,52.3018681 30.5820632,52.7234043 31.1052632,52.7234043 L64.2631579,52.7234043 C64.7863579,52.7234043 65.2105263,52.3018681 65.2105263,51.7819149 C65.2105263,51.2619617 64.7863579,50.8404255 64.2631579,50.8404255 L64.2631579,50.8404255 L64.2631579,50.8404255 L64.2631579,50.8404255 Z M27.3157895,49.5851064 L19.7368421,49.5851064 C19.2136421,49.5851064 18.7894737,50.0066426 18.7894737,50.5265957 L18.7894737,58.0585106 C18.7894737,58.5784638 19.2136421,59 19.7368421,59 L27.3157895,59 C27.8389895,59 28.2631579,58.5784638 28.2631579,58.0585106 L28.2631579,50.5265957 C28.2631579,50.0066426 27.8389895,49.5851064 27.3157895,49.5851064 L27.3157895,49.5851064 L27.3157895,49.5851064 L27.3157895,49.5851064 Z M26.3684211,57.1170213 L20.6842105,57.1170213 L20.6842105,51.4680851 L26.3684211,51.4680851 L26.3684211,57.1170213 L26.3684211,57.1170213 L26.3684211,57.1170213 L26.3684211,57.1170213 Z M19.7368421,32.6382979 L27.3157895,32.6382979 C27.8389895,32.6382979 28.2631579,32.2167617 28.2631579,31.6968085 L28.2631579,24.1648936 C28.2631579,23.6449404 27.8389895,23.2234043 27.3157895,23.2234043 L19.7368421,23.2234043 C19.2136421,23.2234043 18.7894737,23.6449404 18.7894737,24.1648936 L18.7894737,31.6968085 C18.7894737,32.2167617 19.2136421,32.6382979 19.7368421,32.6382979 L19.7368421,32.6382979 L19.7368421,32.6382979 L19.7368421,32.6382979 Z M20.6842105,25.106383 L26.3684211,25.106383 L26.3684211,30.7553191 L20.6842105,30.7553191 L20.6842105,25.106383 L20.6842105,25.106383 L20.6842105,25.106383 L20.6842105,25.106383 Z" id="apps-icon"></path>
                    </g>
                </g>
            </g>
        </g>
    </g>
</svg>