<?xml version="1.0" encoding="UTF-8" standalone="no"?>
<svg width="51px" height="57px" viewBox="0 0 51 57" version="1.1" xmlns="http://www.w3.org/2000/svg" xmlns:xlink="http://www.w3.org/1999/xlink">
    <!-- Generator: sketchtool 39.1 (31720) - http://www.bohemiancoding.com/sketch -->
    <title>98C3EF99-1D05-48EA-8391-4E989135D9ED</title>
    <desc>Created with sketchtool.</desc>
    <defs></defs>
    <g id="Page-1" stroke="none" stroke-width="1" fill="none" fill-rule="evenodd">
        <g id="landing" transform="translate(-258.000000, -2080.000000)">
            <g id="3" transform="translate(44.000000, 1601.000000)">
                <g id="skills" transform="translate(62.000000, 475.000000)">
                    <g id="css" transform="translate(151.870111, 3.000000)">
                        <g id="css3-logo" transform="translate(0.328413, 0.911439)">
                            <polygon id="Shape" fill="#1572B6" points="4.57049429 51.2399863 0.0119558284 0.112822606 50.1001412 0.112822606 45.5373929 51.2317351 25.0254012 56.9183312"></polygon>
                            <polygon id="Shape" fill="#33A9DC" points="25.0563853 52.5717982 41.6306997 47.9767187 45.5301521 4.29332114 25.0563853 4.29332114"></polygon>
                            <g id="Group" transform="translate(9.261557, 10.103517)">
                                <polygon id="Shape" fill="#FFFFFF" points="15.7946597 12.7129186 24.092173 12.7129186 24.6652108 6.2917968 15.7946597 6.2917968 15.7946597 0.0210489937 15.8163822 0.0210489937 31.518258 0.0210489937 31.3678839 1.70345296 29.8267608 18.9831612 15.7946597 18.9831612"></polygon>
                                <polygon id="Shape" fill="#EBEBEB" points="15.8322111 28.9977673 15.8047632 29.0055133 8.82121227 27.1196918 8.37463682 22.1187877 4.98137065 22.1187877 2.08031414 22.1187877 2.95864655 31.9641598 15.8032477 35.5300278 15.8322111 35.5219449"></polygon>
                                <polygon id="Shape" fill="#FFFFFF" points="23.5592125 18.7177755 22.804143 27.115482 15.8104885 29.0031558 15.8104885 35.5269967 28.6653615 31.9641598 28.759661 30.9049745 29.8505041 18.7177755"></polygon>
                                <polygon id="Shape" fill="#EBEBEB" points="15.8163822 0.0210489937 15.8163822 3.915618 15.8163822 6.27630474 15.8163822 6.2917968 0.690070209 6.2917968 0.670031567 6.2917968 0.54424278 4.88235618 0.258481642 1.70345296 0.108612807 0.0210489937"></polygon>
                                <polygon id="Shape" fill="#EBEBEB" points="15.7946597 12.7135922 15.7946597 16.6083296 15.7946597 18.9686795 15.7946597 18.9841716 8.91955317 18.9841716 8.89951453 18.9841716 8.77389413 17.5748994 8.4879646 14.3959961 8.33809577 12.7135922"></polygon>
                            </g>
                        </g>
                    </g>
                </g>
            </g>
        </g>
    </g>
</svg>