<?xml version="1.0" encoding="UTF-8" standalone="no"?>
<svg width="59px" height="59px" viewBox="0 0 59 59" version="1.1" xmlns="http://www.w3.org/2000/svg" xmlns:xlink="http://www.w3.org/1999/xlink">
    <!-- Generator: sketchtool 39.1 (31720) - http://www.bohemiancoding.com/sketch -->
    <title>B587F545-0FE6-4CD4-9D4D-1F7736D62D60</title>
    <desc>Created with sketchtool.</desc>
    <defs></defs>
    <g id="Page-1" stroke="none" stroke-width="1" fill="none" fill-rule="evenodd">
        <g id="landing" transform="translate(-760.000000, -4207.000000)" fill="#FFFFFF">
            <g id="6" transform="translate(0.000000, 3686.000000)">
                <g id="footer" transform="translate(0.000000, 446.000000)">
                    <g id="email" transform="translate(738.000000, 75.000000)">
                        <path d="M80.386777,17.318885 C79.967249,16.86584 79.369591,16.580255 78.7049,16.580255 L73.078183,16.580255 L73.078183,0.941489 C73.078183,0.421411 72.656772,0 72.136694,0 L30.863181,0 C30.343102,0 29.921691,0.421411 29.921691,0.941489 L29.921691,16.58013 L24.294974,16.58013 C23.630409,16.58013 23.032751,16.86584 22.613223,17.31876 C22.233991,17.72837 22,18.274309 22,18.875104 L22,56.7049 C22,57.970513 23.029487,59 24.294974,59 L78.705026,59 C79.970513,59 81,57.970513 81,56.705026 L81,18.875104 C81,18.274309 80.766009,17.72837 80.386777,17.318885 L80.386777,17.318885 L80.386777,17.318885 L80.386777,17.318885 L80.386777,17.318885 Z M30.863181,21.276153 C31.38326,21.276153 31.80467,20.854743 31.80467,20.334664 L31.80467,1.882979 L71.195204,1.882979 L71.195204,20.334664 C71.195204,20.854743 71.616615,21.276153 72.136694,21.276153 C72.656772,21.276153 73.078183,20.854743 73.078183,20.334664 L73.078183,18.463109 L77.849274,18.463109 L52.559615,44.801462 C52.276289,45.096587 51.899945,45.259151 51.5,45.259151 C51.100055,45.259151 50.723585,45.096587 50.440385,44.801462 L25.1506,18.463109 L29.921691,18.463109 L29.921691,20.334664 C29.921691,20.854743 30.343228,21.276153 30.863181,21.276153 L30.863181,21.276153 L30.863181,21.276153 L30.863181,21.276153 L30.863181,21.276153 Z M78.705026,57.117021 L24.294974,57.117021 C24.071653,57.117021 23.882979,56.928347 23.882979,56.705026 L23.882979,19.86166 L41.097672,37.790128 L25.950364,53.565598 C25.590338,53.940562 25.602389,54.536587 25.977479,54.896738 C26.160002,55.071981 26.394872,55.1591 26.629366,55.1591 C26.876789,55.1591 27.123711,55.062315 27.308619,54.869623 L42.402953,39.149387 L49.08213,46.105487 C49.723849,46.773819 50.582613,47.142004 51.500126,47.142004 C52.417638,47.142004 53.276277,46.773819 53.918121,46.105487 L60.597298,39.149387 L66.501189,45.29794 C66.686098,45.490506 66.933019,45.587417 67.180443,45.587417 C67.414936,45.587417 67.649806,45.500298 67.83233,45.325055 C68.207419,44.964904 68.21947,44.368879 67.859445,43.993915 L61.902579,37.790128 L79.117021,19.86166 L79.117021,56.705026 C79.117021,56.928347 78.928347,57.117021 78.705026,57.117021 L78.705026,57.117021 L78.705026,57.117021 L78.705026,57.117021 L78.705026,57.117021 Z M70.855766,47.114764 C70.495615,46.739549 69.899715,46.727749 69.524626,47.087649 C69.149536,47.4478 69.137485,48.043826 69.497511,48.418789 L75.691255,54.869498 C75.876164,55.062064 76.123085,55.158974 76.370509,55.158974 C76.605002,55.158974 76.839872,55.071855 77.022396,54.896613 C77.397485,54.536462 77.409536,53.940436 77.049511,53.565472 L70.855766,47.114764 L70.855766,47.114764 L70.855766,47.114764 L70.855766,47.114764 L70.855766,47.114764 Z"></path>
                    </g>
                </g>
            </g>
        </g>
    </g>
</svg>