<?xml version="1.0" encoding="UTF-8" standalone="no"?>
<svg width="51px" height="57px" viewBox="0 0 51 57" version="1.1" xmlns="http://www.w3.org/2000/svg" xmlns:xlink="http://www.w3.org/1999/xlink">
    <!-- Generator: sketchtool 39.1 (31720) - http://www.bohemiancoding.com/sketch -->
    <title>94E9D322-7227-4473-9D36-8D5A863C8B26</title>
    <desc>Created with sketchtool.</desc>
    <defs></defs>
    <g id="Page-1" stroke="none" stroke-width="1" fill="none" fill-rule="evenodd">
        <g id="landing" transform="translate(-410.000000, -2080.000000)">
            <g id="3" transform="translate(44.000000, 1601.000000)">
                <g id="skills" transform="translate(62.000000, 475.000000)">
                    <g id="html" transform="translate(303.740221, 3.000000)">
                        <g id="HTML5-logo" transform="translate(0.328413, 0.911439)">
                            <polygon id="Shape" fill="#E44D26" points="4.66156164 51.3870525 0.0877056389 0.0859044173 50.3465006 0.0859044173 45.7677952 51.3790163 25.1863438 57.0848708"></polygon>
                            <polygon id="Shape" fill="#F16529" points="25.2171031 52.723559 41.8479212 48.1128472 45.7607289 4.28053398 25.2171031 4.28053398"></polygon>
                            <polygon id="Shape" fill="#EBEBEB" points="25.2171031 23.3073925 16.8913024 23.3073925 16.3162971 16.8644227 25.2171031 16.8644227 25.2171031 10.5724783 25.1953499 10.5724783 9.44006413 10.5724783 9.59067397 12.2605001 11.137092 29.5991983 25.2171031 29.5991983"></polygon>
                            <polygon id="Shape" fill="#EBEBEB" points="25.2171031 39.6480754 25.1895306 39.6554188 18.1822241 37.7633047 17.7342742 32.7452398 14.3292725 32.7452398 11.4182212 32.7452398 12.2997113 42.6243863 25.188145 46.2023053 25.2171031 46.1942691"></polygon>
                            <polygon id="Shape" fill="#FFFFFF" points="25.1953499 23.3073925 25.1953499 29.5991983 32.943097 29.5991983 32.2127709 37.7592866 25.1953499 39.6533405 25.1953499 46.1992571 38.0940367 42.6243863 38.1886702 41.5613884 39.667196 24.9969384 39.8207155 23.3073925 38.1252117 23.3073925"></polygon>
                            <polygon id="Shape" fill="#FFFFFF" points="25.1953499 10.5724783 25.1953499 14.480298 25.1953499 16.849043 25.1953499 16.8644227 40.3729978 16.8644227 40.3932269 16.8644227 40.519451 15.4501866 40.8061223 12.2605001 40.9565936 10.5724783"></polygon>
                        </g>
                    </g>
                </g>
            </g>
        </g>
    </g>
</svg>