<?xml version="1.0" encoding="UTF-8" standalone="no"?>
<svg width="51px" height="57px" viewBox="0 0 51 57" version="1.1" xmlns="http://www.w3.org/2000/svg" xmlns:xlink="http://www.w3.org/1999/xlink">
    <!-- Generator: sketchtool 39.1 (31720) - http://www.bohemiancoding.com/sketch -->
    <title>0A1D7F0E-5C54-4822-9B99-6FED4400F78A</title>
    <desc>Created with sketchtool.</desc>
    <defs></defs>
    <g id="Page-1" stroke="none" stroke-width="1" fill="none" fill-rule="evenodd">
        <g id="landing" transform="translate(-106.000000, -2080.000000)">
            <g id="3" transform="translate(44.000000, 1601.000000)">
                <g id="skills" transform="translate(62.000000, 475.000000)">
                    <g id="js" transform="translate(0.000000, 3.000000)">
                        <g id="js-logo" transform="translate(0.328413, 0.911439)">
                            <polygon id="Shape" fill="#EFC725" points="4.70274624 51.3855038 0.130889867 0.106738575 50.3672651 0.106738575 45.7906798 51.3772282 25.2183395 57.0806486"></polygon>
                            <polygon id="Shape" fill="#FBDE34" points="25.206855 52.6577533 41.8303747 48.0492478 45.7415328 4.23627164 25.206855 4.23627164"></polygon>
                            <polygon id="Shape" fill="#EBEBEB" points="25.1972282 39.5922424 25.169868 39.6001802 18.1656557 37.7084417 17.7175901 32.6929109 14.3144536 32.6929109 11.4046452 32.6929109 12.2857451 42.5675802 25.1681791 46.143998 25.1972282 46.1357224"></polygon>
                            <polygon id="Shape" fill="#EBEBEB" points="26.0443812 29.5451362 26.0443812 23.2561737 18.3000923 23.2561737 19.2082146 13.3858955 26.0617769 13.2033253 26.0443812 6.663392 13.5221899 6.663392 13.0570664 11.2992577 11.5789398 27.8564036 11.4255876 29.5451362 13.1204002 29.5451362"></polygon>
                            <polygon id="Shape" fill="#FFFFFF" points="26.0018209 13.2121076 26.02935 13.2043386 32.8982813 13.6179506 33.4811212 20.1112702 36.8844266 20.1112702 39.7944039 20.1112702 38.6942535 7.96029946 26.03087 6.66052086 26.0018209 6.66862759"></polygon>
                            <polyline id="Shape" fill="#FFFFFF" points="39.1460346 13.2313611 38.6071062 6.663392 25.3318337 6.663392 25.3318337 10.7424269 25.3318337 13.2149787 25.3318337 13.2313611 39.1460346 13.2313611"></polyline>
                            <polygon id="Shape" fill="#FFFFFF" points="25.1754414 23.2592137 25.1754414 29.5480074 32.9197303 29.5480074 32.1897871 37.7042194 25.1754414 39.5978158 25.1754414 46.140958 38.0685155 42.5675802 38.1629251 41.5050923 39.6410517 24.9479464 39.7944039 23.2592137 38.0995913 23.2592137"></polygon>
                        </g>
                    </g>
                </g>
            </g>
        </g>
    </g>
</svg>