<?xml version="1.0" encoding="UTF-8" standalone="no"?>
<svg width="73px" height="40px" viewBox="0 0 73 40" version="1.1" xmlns="http://www.w3.org/2000/svg" xmlns:xlink="http://www.w3.org/1999/xlink">
    <!-- Generator: sketchtool 39.1 (31720) - http://www.bohemiancoding.com/sketch -->
    <title>BCD2C75F-3DF2-414C-A27D-0D505BBA67DB</title>
    <desc>Created with sketchtool.</desc>
    <defs></defs>
    <g id="Page-1" stroke="none" stroke-width="1" fill="none" fill-rule="evenodd">
        <g id="landing" transform="translate(-703.000000, -2088.000000)">
            <g id="3" transform="translate(44.000000, 1601.000000)">
                <g id="skills" transform="translate(62.000000, 475.000000)">
                    <g id="php" transform="translate(596.480443, 12.000000)">
                        <g id="php-logo" transform="translate(37.016605, 20.046125) scale(1, -1) translate(-37.016605, -20.046125) translate(0.726937, 0.881919)">
                            <path d="M36.1865097,0.161380289 C56.0717261,0.161380289 72.1923693,8.68510254 72.1923693,19.1992609 C72.1923693,29.7134192 56.0717261,38.2371283 36.1865097,38.2371283 C16.3012932,38.2371283 0.180644971,29.7134192 0.180644971,19.1992609 C0.180644971,8.68510254 16.3012932,0.161380289 36.1865097,0.161380289" id="path3118" fill="#4A659B"></path>
                            <path d="M70.4523377,19.1992603 C70.4523377,28.744044 55.1107619,36.4818921 36.1865445,36.4818921 C17.2623272,36.4818921 1.92074657,28.744044 1.92074657,19.1992603 C1.92074657,9.65447653 17.2623272,1.91661651 36.1865445,1.91661651 C55.1107619,1.91661651 70.4523377,9.65447653 70.4523377,19.1992603 Z" id="path3118-copy" fill="#617CBE"></path>
                            <path d="M43.1276618,13.6132466 C43.1276618,13.6132466 44.8275366,22.3193162 44.8275366,22.3194476 C45.2109853,24.2843951 44.8920231,25.7502805 43.8795845,26.6763966 C42.8989928,27.5726217 41.2341953,28.0082688 38.7901435,28.0082688 L35.8465672,28.0082688 L36.6891552,32.321965 C36.7208821,32.4844706 36.6779391,32.6527608 36.5720467,32.7804754 C36.4661543,32.90819 36.3084205,32.982254 36.1420524,32.982254 L32.0793644,32.982254 C31.8126519,32.982254 31.5833344,32.7942078 31.5325138,32.533508 L29.727395,23.2907526 C29.5632125,24.3307314 29.1590128,25.2249009 28.5116977,25.9624569 C27.3199696,27.3200012 25.4350173,28.0082688 22.9089342,28.0082688 L15.0344313,28.0082688 C14.7677068,28.0082688 14.5384014,27.8202226 14.4875807,27.5595228 L10.8340075,8.85093587 C10.8022794,8.68829876 10.8450987,8.52027148 10.9509864,8.39255688 C11.0567455,8.26483033 11.2144805,8.19064687 11.380857,8.19064687 L15.4757738,8.19064687 C15.7424983,8.19064687 15.9718158,8.37882451 16.0227566,8.63926142 L16.9064864,13.164632 L19.9546582,13.164632 C21.5544527,13.164632 22.8978382,13.3371412 23.9472996,13.6771756 C25.0201058,14.0243929 26.0072783,14.6131756 26.8775944,15.4239111 C27.5806297,16.0669899 28.1617892,16.7867141 28.6089439,17.5634234 L27.8788169,13.8249091 C27.84709,13.6622839 27.890033,13.4942566 27.9959255,13.366542 C28.1018179,13.2388155 28.2594196,13.164632 28.4257997,13.164632 L32.4884757,13.164632 C32.7551881,13.164632 32.9845056,13.3527977 33.0354584,13.6132466 L35.0406055,23.8827623 L37.8282493,23.8827623 C39.0162307,23.8827623 39.3639416,23.64734 39.4583537,23.5460623 C39.5443838,23.4537722 39.7230127,23.1283784 39.5228403,22.1026459 L37.9065458,13.8249091 C37.8748189,13.6622839 37.9177619,13.4942566 38.0236543,13.366542 C38.1295347,13.2388155 38.2871485,13.164632 38.4535166,13.164632 L42.5806911,13.164632 C42.8474036,13.164632 43.0767211,13.3527977 43.1276618,13.6132466 L43.1276618,13.6132466 L43.1276618,13.6132466 Z M24.2925728,20.8067121 C24.0374607,19.5016711 23.5565136,18.5706669 22.8632773,18.0395147 C22.1588249,17.4997574 21.0321118,17.2259586 19.5142163,17.2259586 L17.6994186,17.2259586 L19.0118578,23.9469422 L21.3581471,23.9469422 C23.0821473,23.9469422 23.7765484,23.580208 24.0553896,23.2726579 C24.4419246,22.846118 24.5239438,21.993289 24.2925728,20.8067121 L24.2925728,20.8067121 L24.2925728,20.8067121 Z" id="path3120" fill="#FFFFFF"></path>
                            <path d="M60.5012241,25.9624569 C59.3096401,27.3200012 57.4245557,28.0082688 54.8986047,28.0082688 L47.0241018,28.0082688 C46.7572452,28.0082688 46.5280598,27.8202226 46.4771191,27.5595228 L42.8235423,8.85093587 C42.7918154,8.68829876 42.8347704,8.52027148 42.9405188,8.39255688 C43.0464112,8.26483033 43.2040129,8.19064687 43.3705251,8.19064687 L47.4654443,8.19064687 C47.7321688,8.19064687 47.9614743,8.37882451 48.0121629,8.63926142 L48.8960248,13.164632 L51.9441966,13.164632 C53.5439911,13.164632 54.8873766,13.3371412 55.936838,13.6771756 C57.0096443,14.0243929 57.9968167,14.6131756 58.8672529,15.4239111 C59.5929966,16.0879171 60.1905359,16.8331818 60.6430945,17.6390292 C61.0948965,18.4438486 61.419779,19.342249 61.6084712,20.3091917 C62.0741913,22.6927194 61.7015864,24.5947777 60.5012241,25.9624569 L60.5012241,25.9624569 L60.5012241,25.9624569 Z M56.2543712,20.8067121 C55.999139,19.5016711 55.518324,18.5706669 54.8250877,18.0395147 C54.1206353,17.4997574 52.9937901,17.2259586 51.4761468,17.2259586 L49.6610969,17.2259586 L50.9735361,23.9469422 L53.3199575,23.9469422 C55.0438255,23.9469422 55.7383468,23.580208 56.017188,23.2726579 C56.403723,22.846118 56.4857542,21.993289 56.2543712,20.8067121 L56.2543712,20.8067121 L56.2543712,20.8067121 Z" id="path3122" fill="#FFFFFF"></path>
                            <path d="M21.3581471,24.5014598 C22.9139659,24.5014598 23.9507821,24.2157214 24.4691362,23.6440055 C24.987094,23.0724092 25.1105191,22.0912202 24.8395435,20.7008211 C24.5563191,19.2527795 24.0112698,18.2192187 23.2031226,17.6000072 C22.3949753,16.9807958 21.1652038,16.6714411 19.5142163,16.6714411 L17.0234628,16.6714411 L18.5524542,24.5014598 L21.3581471,24.5014598 L21.3581471,24.5014598 Z M11.380857,8.74516438 L15.4757738,8.74516438 L16.4470828,13.7191495 L19.9546582,13.7191495 C21.5023471,13.7191495 22.7754459,13.8806274 23.7749993,14.2046108 C24.7745406,14.5278174 25.6829122,15.0705268 26.5004742,15.832225 C27.1867455,16.4597786 27.7418461,17.1522891 28.167073,17.9094815 C28.5917835,18.6660405 28.8935853,19.5014201 29.07195,20.4149632 C29.5051747,22.6327822 29.1782267,24.3601323 28.0920068,25.5975273 C27.0057869,26.8350538 25.2777998,27.4537513 22.9089342,27.4537513 L15.0344313,27.4537513 L11.380857,8.74516438 L11.380857,8.74516438 L11.380857,8.74516438 Z" id="path3124" fill="#08090D"></path>
                            <path d="M32.0793644,32.4277365 L36.1420524,32.4277365 L35.1707434,27.4537513 L38.7901435,27.4537513 C41.0673109,27.4537513 42.6382126,27.058142 43.5027165,26.2679632 C44.3672324,25.4772586 44.6262113,24.1960849 44.2805659,22.4250877 L42.5806911,13.7191495 L38.4535166,13.7191495 L40.0696909,21.9968744 C40.2536037,22.9385395 40.186151,23.5808534 39.8666844,23.923314 C39.54735,24.2657865 38.8676594,24.4372798 37.8282493,24.4372798 L34.5813341,24.4372798 L32.4884757,13.7191495 L28.4257997,13.7191495 L32.0793644,32.4277365" id="path3126" fill="#08090D"></path>
                            <path d="M53.3199575,24.5014598 C54.8756442,24.5014598 55.9124604,24.2157214 56.4309346,23.6440055 C56.9489044,23.0724092 57.0723295,22.0912202 56.8012218,20.7008211 C56.5181295,19.2527795 55.9730802,18.2192187 55.1648009,17.6000072 C54.3567857,16.9807958 53.1270142,16.6714411 51.4761468,16.6714411 L48.9852732,16.6714411 L50.5142646,24.5014598 L53.3199575,24.5014598 L53.3199575,24.5014598 Z M43.342665,8.74516438 L47.4375842,8.74516438 L48.4088932,13.7191495 L51.9163365,13.7191495 C53.4640254,13.7191495 54.7371242,13.8806274 55.7366776,14.2046108 C56.7362189,14.5278174 57.6445905,15.0705268 58.4622846,15.832225 C59.1484238,16.4597786 59.7036565,17.1522891 60.1288834,17.9094815 C60.5535939,18.6660405 60.8553957,19.5014201 61.0336283,20.4149632 C61.4669851,22.6327822 61.1400371,24.3601323 60.0538172,25.5975273 C58.9675973,26.8350538 57.2396102,27.4537513 54.8706125,27.4537513 L46.9961096,27.4537513 L43.342665,8.74516438 L43.342665,8.74516438 Z" id="path3128" fill="#08090D"></path>
                        </g>
                    </g>
                </g>
            </g>
        </g>
    </g>
</svg>