<?xml version="1.0" encoding="UTF-8" standalone="no"?>
<svg width="53px" height="55px" viewBox="0 0 53 55" version="1.1" xmlns="http://www.w3.org/2000/svg" xmlns:xlink="http://www.w3.org/1999/xlink">
    <!-- Generator: sketchtool 39.1 (31720) - http://www.bohemiancoding.com/sketch -->
    <title>B7F05656-9C27-4911-BFA9-1D33BC4FEACA</title>
    <desc>Created with sketchtool.</desc>
    <defs></defs>
    <g id="Page-1" stroke="none" stroke-width="1" fill="none" fill-rule="evenodd">
        <g id="landing" transform="translate(-561.000000, -2081.000000)">
            <g id="3" transform="translate(44.000000, 1601.000000)">
                <g id="skills" transform="translate(62.000000, 475.000000)">
                    <g id="python" transform="translate(453.610332, 5.000000)">
                        <g id="python-logo" transform="translate(0.697417, 0.542435)">
                            <path d="M27.4526583,12.2144575 L27.4526583,14.0731238 L9.26565269,14.0731238 C4.57208182,14.0731238 0.767190849,17.8746299 0.767190849,22.5697489 L0.767190849,31.1998832 C0.767190849,35.8924396 4.57139522,39.6965082 9.26390236,39.6965082 L12.6101247,39.6965082 L12.6101247,30.6407659 C12.6101247,28.0001263 14.7487148,25.859465 17.3896174,25.859465 L35.1573857,25.859465 C37.7970266,25.859465 39.9368784,23.7212759 39.9368784,21.0787602 L39.9368784,7.70179302 C39.9368784,3.44821019 36.4893067,0 32.2374233,0 L21.9743037,3.77331949e-15 C17.7220121,3.77331949e-15 14.2748486,3.44713703 14.2748486,7.7009781 L14.2748486,12.2145059 L27.4526583,12.2144575 Z M19.8852314,9.16093435 C21.2783562,9.16093435 22.407707,8.03158352 22.407707,6.63845869 C22.407707,5.24533385 21.2783562,4.11598303 19.8852314,4.11598303 C18.4921065,4.11598303 17.3627557,5.24533385 17.3627557,6.63845869 C17.3627557,8.03158352 18.4921065,9.16093435 19.8852314,9.16093435 Z" id="Path-146" fill="#3E85D8"></path>
                            <path d="M26.7931223,41.2892859 L26.7931223,39.4306196 L44.980128,39.4306196 C49.6736989,39.4306196 53.4785898,35.6291135 53.4785898,30.9339946 L53.4785898,22.3038603 C53.4785898,17.6113038 49.6743855,13.8072352 44.9818783,13.8072352 L41.635656,13.8072352 L41.635656,22.8629776 C41.635656,25.5036171 39.4970658,27.6442785 36.8561633,27.6442785 L19.088395,27.6442785 C16.4487541,27.6442785 14.3089023,29.7824675 14.3089023,32.4249833 L14.3089023,45.8019504 C14.3089023,50.0555332 17.756474,53.5037434 22.0083574,53.5037434 L32.271477,53.5037434 C36.5237686,53.5037434 39.9709321,50.0566064 39.9709321,45.8027653 L39.9709321,41.2892375 L26.7931223,41.2892859 Z M34.3605493,44.3428091 C32.9674245,44.3428091 31.8380737,45.4721599 31.8380737,46.8652847 C31.8380737,48.2584096 32.9674245,49.3877604 34.3605493,49.3877604 C35.7536742,49.3877604 36.883025,48.2584096 36.883025,46.8652847 C36.883025,45.4721599 35.7536742,44.3428091 34.3605493,44.3428091 Z" id="Path" fill="#F8CA00"></path>
                        </g>
                    </g>
                </g>
            </g>
        </g>
    </g>
</svg>