<?xml version="1.0" encoding="UTF-8" standalone="no"?>
<svg width="58px" height="46px" viewBox="0 0 58 46" version="1.1" xmlns="http://www.w3.org/2000/svg" xmlns:xlink="http://www.w3.org/1999/xlink">
    <!-- Generator: sketchtool 39.1 (31720) - http://www.bohemiancoding.com/sketch -->
    <title>31664EF5-354F-40E7-8A53-608247FA0FEE</title>
    <desc>Created with sketchtool.</desc>
    <defs></defs>
    <g id="Page-1" stroke="none" stroke-width="1" fill="none" fill-rule="evenodd">
        <g id="landing" transform="translate(-484.000000, -3277.000000)" fill="#ECECEC">
            <g id="5" transform="translate(0.000000, 3102.000000)">
                <g id="testimonials" transform="translate(44.000000, 0.000000)">
                    <g id="logo" transform="translate(417.000000, 148.000000)">
                        <path d="M44.2490234,72.1328125 L23.6679688,72.1328125 L23.6679688,57.4111328 C23.6679688,51.4540718 24.1928658,46.7544117 25.2426758,43.3120117 C26.2924857,39.8696117 28.2333843,36.7812637 31.0654297,34.046875 C33.8974751,31.3124863 37.5107202,29.1640703 41.9052734,27.6015625 L45.9335938,36.0976562 C41.8320107,37.4648506 38.8901456,39.3691284 37.1079102,41.8105469 C35.3256747,44.2519653 34.3857427,47.4990032 34.2880859,51.5517578 L44.2490234,51.5517578 L44.2490234,72.1328125 L44.2490234,72.1328125 Z M78.5996094,72.1328125 L58.0185547,72.1328125 L58.0185547,57.4111328 C58.0185547,51.4052434 58.5434518,46.6933765 59.5932617,43.2753906 C60.6430717,39.8574048 62.5961771,36.7812637 65.4526367,34.046875 C68.3090963,31.3124863 71.9101345,29.1640703 76.2558594,27.6015625 L80.2841797,36.0976562 C76.1825967,37.4648506 73.2407316,39.3691284 71.4584961,41.8105469 C69.6762606,44.2519653 68.7363286,47.4990032 68.6386719,51.5517578 L78.5996094,51.5517578 L78.5996094,72.1328125 L78.5996094,72.1328125 Z" id="“"></path>
                    </g>
                </g>
            </g>
        </g>
    </g>
</svg>