<?xml version="1.0" encoding="UTF-8" standalone="no"?>
<svg width="38px" height="58px" viewBox="0 0 38 58" version="1.1" xmlns="http://www.w3.org/2000/svg" xmlns:xlink="http://www.w3.org/1999/xlink">
    <!-- Generator: sketchtool 39.1 (31720) - http://www.bohemiancoding.com/sketch -->
    <title>51CE60A2-4EDB-4E2C-A6FD-F96FFDE172EE</title>
    <desc>Created with sketchtool.</desc>
    <defs></defs>
    <g id="Page-1" stroke="none" stroke-width="1" fill="none" fill-rule="evenodd">
        <g id="landing" transform="translate(-215.000000, -4207.000000)" fill="#FFFFFF">
            <g id="6" transform="translate(0.000000, 3686.000000)">
                <g id="footer" transform="translate(0.000000, 446.000000)">
                    <g id="phone" transform="translate(196.000000, 75.000000)">
                        <path d="M56.05438,26.788226 C55.53214,26.788226 55.10875,27.202617 55.10875,27.713757 L55.10875,44.302621 L20.89125,44.302621 L20.89125,27.713757 C20.89125,27.202617 20.46786,26.788226 19.94562,26.788226 C19.42339,26.788226 19,27.202617 19,27.713757 L19,55.373834 C19,56.82186 20.20372,58 21.68318,58 L54.31682,58 C55.79628,58 57,56.82186 57,55.373834 L57,27.713757 C57,27.202617 56.57661,26.788226 56.05438,26.788226 L56.05438,26.788226 L56.05438,26.788226 L56.05438,26.788226 L56.05438,26.788226 L56.05438,26.788226 L56.05438,26.788226 Z M54.31682,56.148936 L21.68318,56.148936 C21.24655,56.148936 20.89125,55.801183 20.89125,55.373834 L20.89125,46.153685 L55.10888,46.153685 L55.10888,55.373834 C55.10875,55.801183 54.75345,56.148936 54.31682,56.148936 L54.31682,56.148936 L54.31682,56.148936 L54.31682,56.148936 L54.31682,56.148936 L54.31682,56.148936 L54.31682,56.148936 Z M41.02587,50.225779 L34.97413,50.225779 C34.45189,50.225779 34.0285,50.64017 34.0285,51.151311 C34.0285,51.662451 34.45189,52.076843 34.97413,52.076843 L41.02587,52.076843 C41.54811,52.076843 41.9715,51.662451 41.9715,51.151311 C41.9715,50.64017 41.54811,50.225779 41.02587,50.225779 L41.02587,50.225779 L41.02587,50.225779 L41.02587,50.225779 L41.02587,50.225779 L41.02587,50.225779 Z M54.31682,0 L21.68318,0 C20.20372,0 19,1.17814 19,2.626166 L19,20.148213 C19,23.906489 22.12397,26.963953 25.96371,26.963953 C28.52812,26.963953 30.77328,25.600089 31.98179,23.574655 C33.1903,25.600089 35.43559,26.963953 37.99987,26.963953 C40.56416,26.963953 42.80945,25.600089 44.01796,23.574655 C45.22647,25.600089 47.47176,26.963953 50.03604,26.963953 C53.87591,26.963953 56.99975,23.906366 56.99975,20.148213 L56.99975,2.626166 C57,1.17814 55.79628,0 54.31682,0 L54.31682,0 L54.31682,0 L54.31682,0 L54.31682,0 L54.31682,0 L54.31682,0 Z M44.01808,9.625285 C43.49585,9.625285 43.07246,10.039677 43.07246,10.550817 L43.07246,17.988515 L32.92742,17.988515 L32.92742,10.550817 C32.92742,10.039677 32.50403,9.625285 31.98179,9.625285 C31.45955,9.625285 31.03617,10.039677 31.03617,10.550817 L31.03617,17.988515 L20.89125,17.988515 L20.89125,7.774221 L55.10888,7.774221 L55.10888,17.988515 L44.96383,17.988515 L44.96383,10.550817 C44.96371,10.039677 44.54045,9.625285 44.01808,9.625285 L44.01808,9.625285 L44.01808,9.625285 L44.01808,9.625285 L44.01808,9.625285 L44.01808,9.625285 Z M21.68318,1.851064 L54.31682,1.851064 C54.75345,1.851064 55.10875,2.198817 55.10875,2.626166 L55.10875,5.923157 L20.89125,5.923157 L20.89125,2.626166 C20.89125,2.198817 21.24655,1.851064 21.68318,1.851064 L21.68318,1.851064 L21.68318,1.851064 L21.68318,1.851064 L21.68318,1.851064 L21.68318,1.851064 L21.68318,1.851064 Z M25.96371,25.112889 C23.16668,25.112889 20.89125,22.885689 20.89125,20.148213 L20.89125,19.839702 L31.03629,19.839702 L31.03629,20.148213 C31.03629,22.885689 28.76074,25.112889 25.96371,25.112889 L25.96371,25.112889 L25.96371,25.112889 L25.96371,25.112889 L25.96371,25.112889 L25.96371,25.112889 Z M38,25.112889 C35.20297,25.112889 32.92754,22.885689 32.92754,20.148213 L32.92754,19.839702 L43.07258,19.839702 L43.07258,20.148213 C43.07246,22.885689 40.79703,25.112889 38,25.112889 L38,25.112889 L38,25.112889 L38,25.112889 L38,25.112889 L38,25.112889 Z M50.03629,25.112889 C47.23926,25.112889 44.96383,22.885689 44.96383,20.148213 L44.96383,19.839702 L55.10888,19.839702 L55.10888,20.148213 C55.10875,22.885689 52.8332,25.112889 50.03629,25.112889 L50.03629,25.112889 L50.03629,25.112889 L50.03629,25.112889 L50.03629,25.112889 L50.03629,25.112889 Z" id="smartphone"></path>
                    </g>
                </g>
            </g>
        </g>
    </g>
</svg>