<?xml version="1.0" encoding="UTF-8" standalone="no"?>
<svg width="59px" height="59px" viewBox="0 0 59 59" version="1.1" xmlns="http://www.w3.org/2000/svg" xmlns:xlink="http://www.w3.org/1999/xlink">
    <!-- Generator: sketchtool 39.1 (31720) - http://www.bohemiancoding.com/sketch -->
    <title>D1B1483F-72FD-4790-B01A-4B9694247844</title>
    <desc>Created with sketchtool.</desc>
    <defs></defs>
    <g id="Page-1" stroke="none" stroke-width="1" fill="none" fill-rule="evenodd">
        <g id="landing" transform="translate(-633.000000, -897.000000)" fill="#FFFFFF">
            <g id="2" transform="translate(-170.000000, 765.000000)">
                <g id="what-we-do" transform="translate(170.000000, 0.000000)">
                    <g id="2" transform="translate(633.000000, 132.000000)">
                        <path d="M56.7603851,4.10839977 L48.1240404,4.10839977 L48.1240404,0.941487359 C48.1240404,0.421409742 47.7026298,0 47.1825511,0 L11.8174489,0 C11.2974957,0 10.8759596,0.421409742 10.8759596,0.941487359 L10.8759596,4.10839977 L2.23961489,4.10839977 C1.00463191,4.10839977 0,5.11290402 0,6.34788437 L0,47.673405 C0,48.9083853 1.00463191,49.9130151 2.23961489,49.9130151 L22.8026213,49.9130151 L22.8026213,57.1168998 L13.9226191,57.1168998 C13.402666,57.1168998 12.9811298,57.5383095 12.9811298,58.0583871 C12.9811298,58.5784647 13.402666,58.9998745 13.9226191,58.9998745 L40.9093447,58.9998745 C41.4294234,58.9998745 41.850834,58.5784647 41.850834,58.0583871 C41.850834,57.5383095 41.4294234,57.1168998 40.9093447,57.1168998 L36.1973787,57.1168998 L36.1973787,49.9130151 L40.0721723,49.9130151 C40.5922511,49.9130151 41.0136617,49.4916053 41.0136617,48.9715277 C41.0136617,48.4514501 40.5922511,48.0300404 40.0721723,48.0300404 L2.23961489,48.0300404 C2.04629574,48.0300404 1.88297872,47.8667237 1.88297872,47.673405 L1.88297872,6.34788437 C1.88297872,6.15456563 2.04629574,5.99124895 2.23961489,5.99124895 L10.8759596,5.99124895 L10.8759596,40.3697226 L4.83586596,40.3697226 C4.31591277,40.3697226 3.8943766,40.7911324 3.8943766,41.31121 C3.8943766,41.8312876 4.31591277,42.2526973 4.83586596,42.2526973 L40.0722979,42.2526973 C40.5923766,42.2526973 41.0137872,41.8312876 41.0137872,41.31121 C41.0137872,40.7911324 40.5923766,40.3697226 40.0722979,40.3697226 L32.6804766,40.3697226 L32.6804766,32.6751347 C32.6804766,32.1550571 32.259066,31.7336474 31.7389872,31.7336474 L16.8387255,31.7336474 C16.3187723,31.7336474 15.8972362,32.1550571 15.8972362,32.6751347 L15.8972362,40.3697226 L12.7589383,40.3697226 L12.7589383,5.05101691 L12.7589383,1.88297472 L46.2411872,1.88297472 L46.2411872,10.461682 C46.2411872,10.9817596 46.6625979,11.4031694 47.1826766,11.4031694 C47.7027553,11.4031694 48.124166,10.9817596 48.124166,10.461682 L48.124166,5.99137449 L56.7605106,5.99137449 C56.9538298,5.99137449 57.1171468,6.15469116 57.1171468,6.3480099 L57.1171468,47.6735305 C57.1171468,47.8668492 56.9538298,48.0301659 56.7605106,48.0301659 L54.2925532,48.0301659 C53.7724745,48.0301659 53.3510638,48.4515756 53.3510638,48.9716533 C53.3510638,49.4917309 53.7724745,49.9131406 54.2925532,49.9131406 L56.7603851,49.9131406 C57.9953681,49.9131406 59,48.9085108 59,47.6735305 L59,6.34788437 C59,5.11290402 57.9953681,4.10839977 56.7603851,4.10839977 L56.7603851,4.10839977 L56.7603851,4.10839977 L56.7603851,4.10839977 Z M34.3145255,57.1168998 L24.6856,57.1168998 L24.6856,49.9130151 L34.3145255,49.9130151 L34.3145255,57.1168998 L34.3145255,57.1168998 L34.3145255,57.1168998 L34.3145255,57.1168998 Z M17.7802149,33.6167476 L30.7974979,33.6167476 L30.7974979,40.3698481 L17.7802149,40.3698481 L17.7802149,33.6167476 L17.7802149,33.6167476 L17.7802149,33.6167476 Z M51.4562851,22.4154332 C51.4542766,22.4018757 51.4527702,22.3881928 51.450134,22.3747609 C51.4462426,22.3550524 51.4410957,22.3358461 51.4359489,22.3165142 C51.4333128,22.3067228 51.4313043,22.2968058 51.428417,22.2870143 C51.4223915,22.2669292 51.4152362,22.2474718 51.4079553,22.2280144 C51.4051936,22.2207336 51.4031851,22.2132017 51.4002979,22.2060464 L51.3956532,22.1943719 C51.3947745,22.1923634 51.3940213,22.1903549 51.3932681,22.1883464 L48.0562532,13.8767705 C47.9128957,13.5200095 47.5671809,13.2861441 47.1825511,13.2861441 C46.7979213,13.2861441 46.4522064,13.5200095 46.3088489,13.8767705 L42.9713319,22.1890996 C42.9698255,22.19274 42.9645532,22.2059208 42.9645532,22.2059208 C42.9614149,22.2138293 42.9591553,22.2221144 42.9561426,22.2301484 C42.9492383,22.2488527 42.9422085,22.2675569 42.9365596,22.2867632 C42.9335468,22.2968058 42.9314128,22.3070993 42.9287766,22.3172674 C42.9237553,22.3363482 42.9186085,22.355178 42.9148426,22.3747609 C42.9122064,22.3883183 42.9107,22.4020013 42.908566,22.4156842 C42.9060553,22.4320033 42.9031681,22.4479459 42.9015362,22.464516 C42.8985234,22.4951458 42.8968915,22.525901 42.8968915,22.5567818 L42.8968915,54.714224 C42.8968915,57.0773573 44.8194128,59 47.1826766,59 C49.5456894,59 51.4683362,57.0774828 51.4683362,54.714224 L51.4683362,22.5567818 C51.4683362,22.525901 51.4667043,22.4951458 51.4636915,22.464516 C51.4618085,22.4478203 51.4587957,22.4317523 51.4562851,22.4154332 L51.4562851,22.4154332 L51.4562851,22.4154332 L51.4562851,22.4154332 Z M44.7797447,23.4981436 L49.5851064,23.4981436 L49.5851064,50.3852651 L44.7797447,50.3852651 L44.7797447,23.4981436 L44.7797447,23.4981436 L44.7797447,23.4981436 Z M47.1824255,16.754458 L49.1340702,21.6152944 L45.2307809,21.6152944 L47.1824255,16.754458 L47.1824255,16.754458 L47.1824255,16.754458 L47.1824255,16.754458 Z M47.1824255,57.1168998 C45.8575617,57.1168998 44.7796191,56.0389595 44.7796191,54.7140985 L44.7796191,52.2682399 L49.5851064,52.2682399 L49.5851064,54.7140985 C49.5851064,56.0389595 48.5072894,57.1168998 47.1824255,57.1168998 L47.1824255,57.1168998 L47.1824255,57.1168998 Z M16.8387255,13.531684 L42.1614,13.531684 C42.6814787,13.531684 43.1028894,13.1102742 43.1028894,12.5901966 L43.1028894,5.96275327 C43.1028894,5.44267565 42.6814787,5.02126591 42.1614,5.02126591 L16.8387255,5.02126591 C16.3187723,5.02126591 15.8972362,5.44267565 15.8972362,5.96275327 L15.8972362,12.5901966 C15.8972362,13.1102742 16.3187723,13.531684 16.8387255,13.531684 L16.8387255,13.531684 L16.8387255,13.531684 Z M17.7802149,6.90424063 L41.2199106,6.90424063 L41.2199106,11.6487093 L17.7802149,11.6487093 L17.7802149,6.90424063 L17.7802149,6.90424063 L17.7802149,6.90424063 Z M42.1612745,15.4146587 L16.8387255,15.4146587 C16.3187723,15.4146587 15.8972362,15.8360684 15.8972362,16.3561461 C15.8972362,16.8762237 16.3187723,17.2976334 16.8387255,17.2976334 L42.1614,17.2976334 C42.6814787,17.2976334 43.1028894,16.8762237 43.1028894,16.3561461 C43.1028894,15.8360684 42.6813532,15.4146587 42.1612745,15.4146587 L42.1612745,15.4146587 L42.1612745,15.4146587 L42.1612745,15.4146587 Z M31.7389872,20.4359246 L16.8387255,20.4359246 C16.3187723,20.4359246 15.8972362,20.8573343 15.8972362,21.377412 C15.8972362,21.8974896 16.3187723,22.3188993 16.8387255,22.3188993 L31.7389872,22.3188993 C32.259066,22.3188993 32.6804766,21.8974896 32.6804766,21.377412 C32.6804766,20.8573343 32.259066,20.4359246 31.7389872,20.4359246 L31.7389872,20.4359246 L31.7389872,20.4359246 Z M40.253566,20.4359246 L35.5049447,20.4359246 C34.984866,20.4359246 34.5634553,20.8573343 34.5634553,21.377412 C34.5634553,21.8974896 34.984866,22.3188993 35.5049447,22.3188993 L40.253566,22.3188993 C40.7736447,22.3188993 41.1950553,21.8974896 41.1950553,21.377412 C41.1950553,20.8573343 40.7736447,20.4359246 40.253566,20.4359246 L40.253566,20.4359246 L40.253566,20.4359246 Z M31.7389872,24.201874 L16.8387255,24.201874 C16.3187723,24.201874 15.8972362,24.6232838 15.8972362,25.1433614 C15.8972362,25.663439 16.3187723,26.0848488 16.8387255,26.0848488 L31.7389872,26.0848488 C32.259066,26.0848488 32.6804766,25.663439 32.6804766,25.1433614 C32.6804766,24.6232838 32.259066,24.201874 31.7389872,24.201874 L31.7389872,24.201874 L31.7389872,24.201874 Z M40.0722979,24.201874 L35.5049447,24.201874 C34.984866,24.201874 34.5634553,24.6232838 34.5634553,25.1433614 C34.5634553,25.663439 34.984866,26.0848488 35.5049447,26.0848488 L40.0722979,26.0848488 C40.5923766,26.0848488 41.0137872,25.663439 41.0137872,25.1433614 C41.0137872,24.6232838 40.5922511,24.201874 40.0722979,24.201874 L40.0722979,24.201874 L40.0722979,24.201874 Z M31.7389872,27.9678235 L16.8387255,27.9678235 C16.3187723,27.9678235 15.8972362,28.3892332 15.8972362,28.9093108 C15.8972362,29.4293884 16.3187723,29.8507982 16.8387255,29.8507982 L31.7389872,29.8507982 C32.259066,29.8507982 32.6804766,29.4293884 32.6804766,28.9093108 C32.6804766,28.3892332 32.259066,27.9678235 31.7389872,27.9678235 L31.7389872,27.9678235 L31.7389872,27.9678235 Z M40.0722979,27.9678235 L35.5049447,27.9678235 C34.984866,27.9678235 34.5634553,28.3892332 34.5634553,28.9093108 C34.5634553,29.4293884 34.984866,29.8507982 35.5049447,29.8507982 L40.0722979,29.8507982 C40.5923766,29.8507982 41.0137872,29.4293884 41.0137872,28.9093108 C41.0137872,28.3892332 40.5922511,27.9678235 40.0722979,27.9678235 L40.0722979,27.9678235 L40.0722979,27.9678235 Z" id="ui&amp;ux-icon"></path>
                    </g>
                </g>
            </g>
        </g>
    </g>
</svg>