<?xml version="1.0" encoding="UTF-8" standalone="no"?>
<svg width="59px" height="54px" viewBox="0 0 59 54" version="1.1" xmlns="http://www.w3.org/2000/svg" xmlns:xlink="http://www.w3.org/1999/xlink">
    <!-- Generator: sketchtool 39.1 (31720) - http://www.bohemiancoding.com/sketch -->
    <title>B344BC82-DF65-4617-AC2D-A4E47EEEB9BE</title>
    <desc>Created with sketchtool.</desc>
    <defs></defs>
    <g id="Page-1" stroke="none" stroke-width="1" fill="none" fill-rule="evenodd">
        <g id="landing" transform="translate(-845.000000, -900.000000)" fill="#FFFFFF">
            <g id="2" transform="translate(-170.000000, 765.000000)">
                <g id="what-we-do" transform="translate(170.000000, 0.000000)">
                    <g id="3" transform="translate(818.000000, 105.000000)">
                        <path d="M85.0585106,30 L27.9414894,30 C27.4215362,30 27,30.4265365 27,30.9529412 L27,83.0470588 C27,83.5734635 27.4215362,84 27.9414894,84 L85.0585106,84 C85.5784638,84 86,83.5734635 86,83.0470588 L86,72.8823529 C86,72.3559482 85.5784638,71.9294118 85.0585106,71.9294118 C84.5385574,71.9294118 84.1170213,72.3559482 84.1170213,72.8823529 L84.1170213,82.0941176 L28.8829787,82.0941176 L28.8829787,39.5294118 L84.1170213,39.5294118 L84.1170213,69.0705882 C84.1170213,69.5969929 84.5385574,70.0235294 85.0585106,70.0235294 C85.5784638,70.0235294 86,69.5969929 86,69.0705882 L86,30.9529412 C86,30.4265365 85.5784638,30 85.0585106,30 L85.0585106,30 L85.0585106,30 L85.0585106,30 Z M28.8829787,31.9058824 L63.7180851,31.9058824 L63.7180851,37.6235294 L28.8829787,37.6235294 L28.8829787,31.9058824 L28.8829787,31.9058824 L28.8829787,31.9058824 L28.8829787,31.9058824 Z M65.6010638,37.6235294 L65.6010638,31.9058824 L84.1170213,31.9058824 L84.1170213,37.6235294 L65.6010638,37.6235294 L65.6010638,37.6235294 L65.6010638,37.6235294 Z M74.8904255,33.7482353 C74.3367043,33.7482353 73.8861702,34.2042494 73.8861702,34.7647059 C73.8861702,35.3251624 74.3367043,35.7811765 74.8904255,35.7811765 C75.4441468,35.7811765 75.8946809,35.3251624 75.8946809,34.7647059 C75.8946809,34.2042494 75.4441468,33.7482353 74.8904255,33.7482353 L74.8904255,33.7482353 L74.8904255,33.7482353 Z M69.743617,33.7482353 C69.1898957,33.7482353 68.7393617,34.2042494 68.7393617,34.7647059 C68.7393617,35.3251624 69.1898957,35.7811765 69.743617,35.7811765 C70.2973383,35.7811765 70.7478723,35.3251624 70.7478723,34.7647059 C70.7478723,34.2042494 70.2973383,33.7482353 69.743617,33.7482353 L69.743617,33.7482353 L69.743617,33.7482353 Z M80.037234,33.7482353 C79.4835128,33.7482353 79.0329787,34.2042494 79.0329787,34.7647059 C79.0329787,35.3251624 79.4835128,35.7811765 80.037234,35.7811765 C80.5909553,35.7811765 81.0414894,35.3251624 81.0414894,34.7647059 C81.0414894,34.2042494 80.5909553,33.7482353 80.037234,33.7482353 L80.037234,33.7482353 L80.037234,33.7482353 Z M45.6683532,55.8550729 C46.0385468,55.8081882 46.3464766,55.5446682 46.4534298,55.1829318 L48.6192319,47.8651059 C48.7683638,47.3609365 48.485666,46.8298306 47.9875553,46.6787576 C47.4896957,46.5278118 46.9647213,46.8139482 46.8154638,47.3181176 L45.2621319,52.5664094 L43.7647872,50.0369224 C43.5946915,49.7495153 43.2881426,49.5736659 42.9571149,49.5736659 C42.6260872,49.5736659 42.3195383,49.7495153 42.1494426,50.0369224 L40.6520979,52.5664094 L39.099017,47.3191341 C38.9498851,46.8149647 38.4250362,46.5287012 37.9269255,46.6797741 C37.4288149,46.83072 37.1459915,47.3619529 37.2952489,47.8661224 L39.4608,55.1829318 C39.5678787,55.5446682 39.8758085,55.8081882 40.2458766,55.8550729 C40.2850426,55.8600282 40.324083,55.8624424 40.3628723,55.8624424 C40.6907617,55.8624424 40.998817,55.68888 41.1702936,55.3991859 L42.9569894,52.3807765 L44.7436851,55.3991859 C44.9357489,55.7230588 45.2985362,55.9022118 45.6683532,55.8550729 L45.6683532,55.8550729 L45.6683532,55.8550729 L45.6683532,55.8550729 Z M52.9045149,55.8541835 C52.9436809,55.8591388 52.9827213,55.8615529 53.0215106,55.8615529 C53.3494,55.8615529 53.6574553,55.6879906 53.8289319,55.3982965 L55.6156277,52.3798871 L57.4023234,55.3982965 C57.5940106,55.7221694 57.9566723,55.9010682 58.3267404,55.8541835 C58.696934,55.8072988 59.0048638,55.5437788 59.111817,55.1820424 L61.2776191,47.8642165 C61.4267511,47.3600471 61.1440532,46.8289412 60.6459426,46.6778682 C60.1478319,46.5267953 59.6231085,46.8129318 59.4738511,47.3172282 L57.9205191,52.5656471 L56.4231745,50.03616 C56.2530787,49.7487529 55.9465298,49.5729035 55.6155021,49.5729035 C55.2844745,49.5729035 54.9779255,49.7487529 54.8078298,50.03616 L53.3107362,52.5656471 L51.7576553,47.3182447 C51.6085234,46.8140753 51.0839255,46.5276847 50.5855638,46.6788847 C50.0874532,46.8298306 49.8046298,47.3610635 49.9538872,47.8652329 L52.1194383,55.1821694 C52.226517,55.5437788 52.5344468,55.8072988 52.9045149,55.8541835 L52.9045149,55.8541835 L52.9045149,55.8541835 L52.9045149,55.8541835 Z M73.3043298,46.6771059 C72.8063447,46.52616 72.2814957,46.8122965 72.1322383,47.3164659 L70.5789064,52.5646306 L69.0815617,50.0351435 C68.911466,49.7477365 68.604917,49.5718871 68.2738894,49.5718871 C67.9428617,49.5718871 67.6363128,49.7477365 67.466217,50.0351435 L65.9688723,52.5646306 L64.4157915,47.3173553 C64.266534,46.8133129 63.7420617,46.5270494 63.2437,46.6779953 C62.7455894,46.8289412 62.462766,47.3601741 62.6120234,47.8643435 L64.7775745,55.1811529 C64.8846532,55.5428894 65.192583,55.8064094 65.5626511,55.8532941 C65.9328447,55.9001788 66.2952553,55.7214071 66.4870681,55.3974071 L68.2737638,52.3789976 L70.0604596,55.3974071 C70.2319362,55.6869741 70.539866,55.8606635 70.8678809,55.8606635 C70.9066702,55.8606635 70.9458362,55.8582494 70.9848766,55.8532941 C71.3550702,55.8064094 71.663,55.5428894 71.7699532,55.1811529 L73.9357553,47.8634541 C74.0851383,47.3592847 73.8024404,46.8280518 73.3043298,46.6771059 L73.3043298,46.6771059 L73.3043298,46.6771059 Z M44.1602128,61.2624424 C44.1602128,60.7360376 43.7386766,60.3095012 43.2187234,60.3095012 L38.1974468,60.3095012 C37.6774936,60.3095012 37.2559574,60.7360376 37.2559574,61.2624424 L37.2559574,66.3447953 C37.2559574,66.8712 37.6774936,67.2977365 38.1974468,67.2977365 L43.2187234,67.2977365 C43.7386766,67.2977365 44.1602128,66.8712 44.1602128,66.3447953 L44.1602128,61.2624424 L44.1602128,61.2624424 L44.1602128,61.2624424 Z M42.277234,65.3918541 L39.1389362,65.3918541 L39.1389362,62.2153835 L42.277234,62.2153835 L42.277234,65.3918541 L42.277234,65.3918541 L42.277234,65.3918541 Z M43.2187234,69.2036188 L38.1974468,69.2036188 C37.6774936,69.2036188 37.2559574,69.6301553 37.2559574,70.15656 L37.2559574,75.2389129 C37.2559574,75.7653176 37.6774936,76.1918541 38.1974468,76.1918541 L43.2187234,76.1918541 C43.7386766,76.1918541 44.1602128,75.7653176 44.1602128,75.2389129 L44.1602128,70.15656 C44.1602128,69.6301553 43.7386766,69.2036188 43.2187234,69.2036188 L43.2187234,69.2036188 L43.2187234,69.2036188 Z M42.277234,74.2859718 L39.1389362,74.2859718 L39.1389362,71.1095012 L42.277234,71.1095012 L42.277234,74.2859718 L42.277234,74.2859718 L42.277234,74.2859718 Z M73.0340596,62.8506776 L69.2681021,62.8506776 C68.7481489,62.8506776 68.3266128,63.2772141 68.3266128,63.8036188 C68.3266128,64.3300235 68.7481489,64.75656 69.2681021,64.75656 L73.0340596,64.75656 C73.5540128,64.75656 73.9755489,64.3300235 73.9755489,63.8036188 C73.9755489,63.2772141 73.5540128,62.8506776 73.0340596,62.8506776 L73.0340596,62.8506776 L73.0340596,62.8506776 Z M65.5021447,62.8506776 L46.9846809,62.8506776 C46.4647277,62.8506776 46.0431915,63.2772141 46.0431915,63.8036188 C46.0431915,64.3300235 46.4647277,64.75656 46.9846809,64.75656 L65.5022702,64.75656 C66.0222234,64.75656 66.4437596,64.3300235 66.4437596,63.8036188 C66.4437596,63.2772141 66.0220979,62.8506776 65.5021447,62.8506776 L65.5021447,62.8506776 L65.5021447,62.8506776 Z M73.0340596,71.7447953 L69.2681021,71.7447953 C68.7481489,71.7447953 68.3266128,72.1713318 68.3266128,72.6977365 C68.3266128,73.2241412 68.7481489,73.6506776 69.2681021,73.6506776 L73.0340596,73.6506776 C73.5540128,73.6506776 73.9755489,73.2241412 73.9755489,72.6977365 C73.9755489,72.1713318 73.5540128,71.7447953 73.0340596,71.7447953 L73.0340596,71.7447953 L73.0340596,71.7447953 Z M65.5021447,71.7447953 L46.9846809,71.7447953 C46.4647277,71.7447953 46.0431915,72.1713318 46.0431915,72.6977365 C46.0431915,73.2241412 46.4647277,73.6506776 46.9846809,73.6506776 L65.5022702,73.6506776 C66.0222234,73.6506776 66.4437596,73.2241412 66.4437596,72.6977365 C66.4437596,72.1713318 66.0220979,71.7447953 65.5021447,71.7447953 L65.5021447,71.7447953 L65.5021447,71.7447953 Z" id="web-icon"></path>
                    </g>
                </g>
            </g>
        </g>
    </g>
</svg>