<?xml version="1.0" encoding="UTF-8" standalone="no"?>
<svg width="109px" height="34px" viewBox="0 0 109 34" version="1.1" xmlns="http://www.w3.org/2000/svg" xmlns:xlink="http://www.w3.org/1999/xlink">
    <!-- Generator: Sketch 40.1 (33804) - http://www.bohemiancoding.com/sketch -->
    <title>Group 6</title>
    <desc>Created with Sketch.</desc>
    <defs></defs>
    <g id="Portfolio" stroke="none" stroke-width="1" fill="none" fill-rule="evenodd">
        <g transform="translate(-364.000000, -1671.000000)" id="1" fill="#FFFFFF">
            <g transform="translate(42.000000, 98.000000)">
                <g id="opened-detail" transform="translate(0.000000, 460.000000)">
                    <g id="button-AppStore" transform="translate(301.000000, 1105.000000)">
                        <g id="Group-6" transform="translate(21.000000, 8.000000)">
                            <path d="M2.56746661,0.970217997 C1.34768976,0.970217997 0.358865248,2.13709469 0.358865248,3.58211927 L0.358865248,30.6091338 C0.358865248,32.0516471 1.34659597,33.2210351 2.56746661,33.2210351 L13.5653176,33.2210351 C14.7850945,33.2210351 15.773919,32.0541584 15.773919,30.6091338 L15.773919,3.58211927 C15.773919,2.13960603 14.7861883,0.970217997 13.5653176,0.970217997 L2.56746661,0.970217997 L2.56746661,0.970217997 L2.56746661,0.970217997 Z M1.80402654,5.19983338 L1.80402654,28.9914197 L14.3287577,28.9914197 L14.3287577,5.19983338 L1.80402654,5.19983338 L1.80402654,5.19983338 L1.80402654,5.19983338 Z M8.06639213,32.1636313 C8.59848578,32.1636313 9.02983299,31.6902154 9.02983299,31.1062274 C9.02983299,30.5222394 8.59848578,30.0488236 8.06639213,30.0488236 C7.53429848,30.0488236 7.10295127,30.5222394 7.10295127,31.1062274 C7.10295127,31.6902154 7.53429848,32.1636313 8.06639213,32.1636313 L8.06639213,32.1636313 L8.06639213,32.1636313 Z M6.13951041,3.08502568 C6.13951041,3.37701968 6.30510181,3.6137276 6.52311306,3.6137276 L9.6096712,3.6137276 C9.82152905,3.6137276 9.99327385,3.36848012 9.99327385,3.08502568 C9.99327385,2.79303167 9.82768245,2.55632375 9.6096712,2.55632375 L6.52311306,2.55632375 C6.31125521,2.55632375 6.13951041,2.80157123 6.13951041,3.08502568 L6.13951041,3.08502568 Z" id="iPhone-Vector-Copy"></path>
                            <path d="M34.9764704,24.6510181 L36.42245,29.2484944 L38.2901737,29.2484944 L33.6710721,14.6319895 L31.5824349,14.6319895 L26.9633333,29.2484944 L28.7708079,29.2484944 L30.1766214,24.6510181 L34.9764704,24.6510181 Z M30.5381163,23.1763559 L31.8635976,18.9475451 C32.1447603,18.0584106 32.3455908,17.1475898 32.5464213,16.3018276 L32.5865874,16.3018276 C32.7874179,17.1475898 32.9882484,18.0150381 33.2894941,18.9692313 L34.6350585,23.1763559 L30.5381163,23.1763559 Z M40.1578973,33.5423638 L41.9051227,33.5423638 L41.9051227,27.8388909 L41.9452888,27.8388909 C42.5276972,28.8798289 43.6523481,29.4870427 44.9376633,29.4870427 C47.227131,29.4870427 49.3760174,27.6220288 49.3760174,23.8486284 C49.3760174,20.6824419 47.6087089,18.5355072 45.238909,18.5355072 C43.6523481,18.5355072 42.4875311,19.2728383 41.7846244,20.5523246 L41.7444583,20.5523246 L41.644043,18.7523692 L40.0775651,18.7523692 C40.1177312,19.7499349 40.1578973,20.8342453 40.1578973,22.1787903 L40.1578973,33.5423638 Z M41.9051227,23.1546697 C41.9051227,22.9161214 41.9653718,22.6342007 42.025621,22.3956524 C42.3469498,20.9643626 43.4916837,20.0535418 44.6966667,20.0535418 C46.5643903,20.0535418 47.5886259,21.8534971 47.5886259,23.9353732 C47.5886259,26.3425424 46.5041412,27.9906943 44.6364175,27.9906943 C43.3711854,27.9906943 42.3067837,27.0798735 41.9854549,25.7570148 C41.9252057,25.5184665 41.9051227,25.258232 41.9051227,24.9763113 L41.9051227,23.1546697 Z M51.5851529,33.5423638 L53.3323783,33.5423638 L53.3323783,27.8388909 L53.3725444,27.8388909 C53.9549528,28.8798289 55.0796036,29.4870427 56.3649188,29.4870427 C58.6543866,29.4870427 60.8032729,27.6220288 60.8032729,23.8486284 C60.8032729,20.6824419 59.0359645,18.5355072 56.6661646,18.5355072 C55.0796036,18.5355072 53.9147867,19.2728383 53.21188,20.5523246 L53.1717139,20.5523246 L53.0712986,18.7523692 L51.5048207,18.7523692 C51.5449868,19.7499349 51.5851529,20.8342453 51.5851529,22.1787903 L51.5851529,33.5423638 Z M53.3323783,23.1546697 C53.3323783,22.9161214 53.3926274,22.6342007 53.4528766,22.3956524 C53.7742054,20.9643626 54.9189392,20.0535418 56.1239222,20.0535418 C57.9916459,20.0535418 59.0158815,21.8534971 59.0158815,23.9353732 C59.0158815,26.3425424 57.9313968,27.9906943 56.0636731,27.9906943 C54.7984409,27.9906943 53.7340393,27.0798735 53.4127105,25.7570148 C53.3524613,25.5184665 53.3323783,25.258232 53.3323783,24.9763113 L53.3323783,23.1546697 Z M66.6474405,28.5328495 C67.3704304,29.0533186 68.7963269,29.4870427 70.1017252,29.4870427 C73.2949302,29.4870427 74.821242,27.5135977 74.821242,25.258232 C74.821242,23.1112973 73.6765081,21.9185558 71.3870404,20.9643626 C69.5193167,20.183659 68.6959117,19.5113866 68.6959117,18.1451554 C68.6959117,17.1475898 69.3988184,15.9548483 71.246459,15.9548483 C72.4715251,15.9548483 73.3752624,16.3668862 73.7970064,16.648807 L74.2789996,15.1090861 C73.6965912,14.7404206 72.6723556,14.3934412 71.3067082,14.3934412 C68.6758286,14.3934412 66.9286032,16.0849655 66.9286032,18.3620175 C66.9286032,20.4005211 68.2942507,21.6583213 70.5033862,22.5257696 C72.3309438,23.2631007 73.0539336,24.0654905 73.0539336,25.4100354 C73.0539336,26.8846977 72.0096149,27.9039495 70.2222235,27.9039495 C69.0172405,27.9039495 67.8925897,27.4919115 67.1093507,26.9497563 L66.6474405,28.5328495 Z M77.5123707,16.8006104 L77.5123707,18.7523692 L76.0061419,18.7523692 L76.0061419,20.2053453 L77.5123707,20.2053453 L77.5123707,25.9305045 C77.5123707,27.1666184 77.7132012,28.0991254 78.1951944,28.684653 C78.6169385,29.1834358 79.2796791,29.4870427 80.1030842,29.4870427 C80.7859079,29.4870427 81.3281502,29.3569255 81.6695621,29.2268082 L81.5892299,27.7738322 C81.3281502,27.8605771 81.0469875,27.9039495 80.5649943,27.9039495 C79.5809249,27.9039495 79.239513,27.1666184 79.239513,25.8654458 L79.239513,20.2053453 L81.7699773,20.2053453 L81.7699773,18.7523692 L79.239513,18.7523692 L79.239513,16.236769 L77.5123707,16.8006104 Z M87.7547263,18.5355072 C85.0836806,18.5355072 82.9347943,20.595697 82.9347943,24.0871767 C82.9347943,27.4051667 84.9832654,29.4870427 87.5940619,29.4870427 C89.9236957,29.4870427 92.434077,27.7955184 92.434077,23.913687 C92.434077,20.7258143 90.5462703,18.5355072 87.7547263,18.5355072 L87.7547263,18.5355072 Z M87.7145602,19.966797 C89.8031974,19.966797 90.6266025,22.2004765 90.6266025,23.9787456 C90.6266025,26.3425424 89.3613703,28.0557529 87.6743941,28.0557529 C85.9472518,28.0557529 84.7422688,26.3208562 84.7422688,24.0221181 C84.7422688,22.048673 85.646006,19.966797 87.7145602,19.966797 L87.7145602,19.966797 Z M94.6632956,29.2484944 L96.430604,29.2484944 L96.430604,23.6534525 C96.430604,23.3498456 96.4506871,23.0245524 96.4908532,22.7643179 C96.7318498,21.3330281 97.615504,20.3354625 98.8606531,20.3354625 C99.1016497,20.3354625 99.2823971,20.3354625 99.4631446,20.3788349 L99.4631446,18.5788796 C99.3024802,18.5571934 99.1618988,18.5355072 98.9811514,18.5355072 C97.7962514,18.5355072 96.7117667,19.4246417 96.2699396,20.8342453 L96.2096904,20.8342453 L96.1293582,18.7523692 L94.5829634,18.7523692 C94.6432125,19.7282487 94.6632956,20.7908729 94.6632956,22.0269868 L94.6632956,29.2484944 Z M108.841929,24.3474112 C108.882095,24.1305491 108.902178,23.8486284 108.902178,23.4582766 C108.902178,21.528204 108.078773,18.5355072 104.885568,18.5355072 C102.053858,18.5355072 100.326716,21.007735 100.326716,24.1739215 C100.326716,27.340108 102.114107,29.4870427 105.106482,29.4870427 C106.652877,29.4870427 107.737361,29.1183772 108.359936,28.8147703 L108.038607,27.4485391 C107.395949,27.752146 106.61271,27.9906943 105.347478,27.9906943 C103.560087,27.9906943 102.053858,26.9280701 102.013692,24.3474112 L108.841929,24.3474112 Z M102.033775,22.98118 C102.174356,21.6583213 102.937512,19.9017383 104.744987,19.9017383 C106.733209,19.9017383 107.215202,21.7884385 107.195119,22.98118 L102.033775,22.98118 Z" id="App-Store"></path>
                            <path d="M31.0707546,9.30096429 L33.2295546,3.25091258 L31.8687546,3.25091258 L30.3231546,7.90410078 L28.7691546,3.25091258 L27.4083546,3.25091258 L29.5755546,9.30096429 L31.0707546,9.30096429 Z M34.9431546,9.30096429 L34.9431546,3.25091258 L33.7503546,3.25091258 L33.7503546,9.30096429 L34.9431546,9.30096429 Z M40.0167546,9.30096429 L40.0167546,8.16714651 L37.2447546,8.16714651 L37.2447546,6.79749462 L39.9579546,6.79749462 L39.9579546,5.66367683 L37.2447546,5.66367683 L37.2447546,4.38473037 L40.0167546,4.38473037 L40.0167546,3.25091258 L36.0519546,3.25091258 L36.0519546,9.30096429 L40.0167546,9.30096429 Z M46.5015546,9.30096429 L48.0975546,3.25091258 L46.7535546,3.25091258 L45.7791546,7.62291397 L44.7207546,3.25091258 L43.7883546,3.25091258 L42.7215546,7.62291397 L41.7387546,3.25091258 L40.4031546,3.25091258 L42.0075546,9.30096429 L43.2759546,9.30096429 L44.2503546,5.14665592 L45.2331546,9.30096429 L46.5015546,9.30096429 Z M53.4651546,9.4098108 C55.1619546,9.4098108 56.3967546,8.10365271 56.3967546,6.28047371 C56.3967546,4.45729471 55.1619546,3.15113661 53.4651546,3.15113661 C51.7767546,3.15113661 50.5419546,4.45729471 50.5419546,6.28047371 C50.5419546,8.10365271 51.7767546,9.4098108 53.4651546,9.4098108 L53.4651546,9.4098108 Z M53.4651546,8.26692247 C52.4319546,8.26692247 51.7683546,7.40522095 51.7683546,6.28047371 C51.7683546,5.14665592 52.4319546,4.29402494 53.4651546,4.29402494 C54.4983546,4.29402494 55.1703546,5.14665592 55.1703546,6.28047371 C55.1703546,7.40522095 54.4983546,8.26692247 53.4651546,8.26692247 L53.4651546,8.26692247 Z M62.2515546,9.30096429 L62.2515546,3.25091258 L61.0587546,3.25091258 L61.0587546,7.0514698 L58.4631546,3.25091258 L57.2367546,3.25091258 L57.2367546,9.30096429 L58.4295546,9.30096429 L58.4295546,5.35527839 L61.1007546,9.30096429 L62.2515546,9.30096429 Z" id="VIEW-ON"></path>
                        </g>
                    </g>
                </g>
            </g>
        </g>
    </g>
</svg>