<?xml version="1.0" encoding="UTF-8" standalone="no"?>
<svg width="22px" height="15px" viewBox="0 0 22 15" version="1.1" xmlns="http://www.w3.org/2000/svg" xmlns:xlink="http://www.w3.org/1999/xlink">
    <!-- Generator: sketchtool 39.1 (31720) - http://www.bohemiancoding.com/sketch -->
    <title>BBC88D3F-5847-44EF-A6B4-9923638D5530</title>
    <desc>Created with sketchtool.</desc>
    <defs></defs>
    <g id="Portfolio" stroke="none" stroke-width="1" fill="none" fill-rule="evenodd">
        <g transform="translate(-296.000000, -508.000000)" id="1" fill="#FFFFFF">
            <g transform="translate(42.000000, 98.000000)">
                <g id="text" transform="translate(26.000000, 41.352711)">
                    <g id="Behance" transform="translate(219.000000, 356.000000)">
                        <path d="M22.6318967,15.4025095 L28.281332,15.4025095 L28.281332,13.654744 L22.6318967,13.654744 L22.6318967,15.4025095 L22.6318967,15.4025095 Z M23.9702509,19.216059 C23.6102625,19.6115778 23.3832315,20.1473989 23.2904121,20.8235223 L27.684278,20.8235223 C27.6378683,20.1019677 27.409583,19.5567931 27.0056935,19.1813175 C26.5967868,18.8085143 26.0938064,18.6227808 25.4917352,18.6227808 C24.8394913,18.6227808 24.3302394,18.8205402 23.9702509,19.216059 L23.9702509,19.216059 L23.9702509,19.216059 Z M27.7833689,16.8696705 C28.464462,17.1930338 29.0251409,17.7061393 29.4666598,18.4063145 C29.8692949,19.0236445 30.1276839,19.7398542 30.2455895,20.5536074 C30.3145768,21.029299 30.3421717,21.7187844 30.3308829,22.6153828 L23.2276964,22.6153828 C23.2703431,23.6562921 23.6064996,24.3872002 24.2487089,24.8054346 C24.6375466,25.0659959 25.1054061,25.1969447 25.6547961,25.1969447 C26.2330354,25.1969447 26.7059122,25.0379355 27.0684093,24.7212532 C27.2678454,24.5488818 27.4434495,24.3110361 27.5939673,24.0063797 L30.1966712,24.0063797 C30.1276839,24.6210373 29.8115964,25.2477208 29.2521719,25.8837578 C28.3791686,26.892598 27.1562113,27.3976862 25.5845545,27.3976862 C24.2863383,27.3976862 23.1411486,26.9727707 22.151494,26.1202673 C21.1568221,25.2691002 20.662622,23.882112 20.662622,21.9633113 C20.662622,20.1634335 21.1104125,18.7831263 22.0047391,17.8223897 C22.9015745,16.8643256 24.0618159,16.381953 25.4904809,16.381953 C26.3396522,16.381953 27.1035301,16.5449709 27.7833689,16.8696705 L27.7833689,16.8696705 L27.7833689,16.8696705 Z M11.6277902,20.8609362 L11.6277902,24.606339 L14.8288024,24.606339 C15.40077,24.606339 15.8473062,24.5234938 16.164648,24.3591397 C16.7428872,24.0518109 17.0313797,23.4692224 17.0313797,22.6060293 C17.0313797,21.8737851 16.7529217,21.3727055 16.1922429,21.098782 C15.8786641,20.9464538 15.4383995,20.8662811 14.8739577,20.8609362 L11.6277902,20.8609362 L11.6277902,20.8609362 Z M11.6277902,15.4385872 L11.6277902,18.5372633 L14.8338196,18.5372633 C15.404533,18.5372633 15.8698839,18.4210128 16.228618,18.1885119 C16.5848435,17.956011 16.7642106,17.5444576 16.7642106,16.9565243 C16.7642106,16.3004441 16.5283993,15.8688475 16.0567769,15.657726 C15.6478701,15.5120789 15.1285837,15.4385872 14.4976632,15.4385872 L11.6277902,15.4385872 L11.6277902,15.4385872 Z M18.7874209,14.4965576 C19.190056,15.0938445 19.3920008,15.8073818 19.3920008,16.639842 C19.3920008,17.496354 19.190056,18.1871757 18.7824036,18.7082984 C18.5541183,18.9995927 18.2192161,19.2668351 17.7764429,19.5073533 C18.4487558,19.7692509 18.9554991,20.1821404 19.3004358,20.7473582 C19.6416095,21.3112397 19.8134506,21.9980528 19.8134506,22.8051249 C19.8134506,23.6375851 19.6177775,24.3845277 19.2251768,25.0446165 C18.9768225,25.4815579 18.6657523,25.8503525 18.2919664,26.149664 C17.8717708,26.4930705 17.3763164,26.7269077 16.8030944,26.855184 C16.2298723,26.9821242 15.6102407,27.04359 14.9404364,27.04359 L9,27.04359 L9,13 L15.3706665,13 C16.9786985,13.025388 18.1163623,13.5237952 18.7874209,14.4965576 L18.7874209,14.4965576 L18.7874209,14.4965576 Z"></path>
                    </g>
                </g>
            </g>
        </g>
    </g>
</svg>