<?xml version="1.0" encoding="UTF-8" standalone="no"?>
<svg width="22px" height="23px" viewBox="0 0 22 23" version="1.1" xmlns="http://www.w3.org/2000/svg" xmlns:xlink="http://www.w3.org/1999/xlink">
    <!-- Generator: sketchtool 39.1 (31720) - http://www.bohemiancoding.com/sketch -->
    <title>73DB3AE8-8E63-4F0D-89E6-FBA6085C131D</title>
    <desc>Created with sketchtool.</desc>
    <defs></defs>
    <g id="Portfolio" stroke="none" stroke-width="1" fill="none" fill-rule="evenodd">
        <g transform="translate(-236.000000, -504.000000)" id="1" fill="#FFFFFF">
            <g transform="translate(42.000000, 98.000000)">
                <g id="text" transform="translate(26.000000, 41.352711)">
                    <g id="Dribbble" transform="translate(159.000000, 356.000000)">
                        <path d="M30.9958715,20.0000215 C30.9958715,20.7449633 30.9201517,21.4888718 30.7714242,22.2140094 C30.6263988,22.9219258 30.4115941,23.6169264 30.1301956,24.2813165 C29.8552542,24.9339532 29.5142356,25.5628678 29.1157493,26.1493754 C28.7232034,26.7321806 28.2709943,27.2789505 27.7742315,27.7773723 C27.2763926,28.2736413 26.7286191,28.7253078 26.1470107,29.1201446 C25.5595048,29.5164882 24.9306737,29.8575521 24.2786833,30.1342091 C23.6143815,30.4145687 22.9188706,30.6294019 22.212684,30.7744036 C21.487729,30.9237536 20.7422835,31 19.9974407,31 C19.2520383,31 18.5066359,30.9237536 17.7827139,30.7744036 C17.0754512,30.6294019 16.3799833,30.4145687 15.7161981,30.1342091 C15.0642507,29.8575521 14.434817,29.5164882 13.8473111,29.1201446 C13.2657027,28.7253508 12.7179292,28.2736413 12.2211664,27.7773723 C11.7238871,27.2789505 11.271678,26.7321806 10.8785725,26.1493754 C10.4822385,25.5628678 10.1406603,24.9339101 9.8646427,24.2813165 C9.5832012,23.6169264 9.36787994,22.9218827 9.22233792,22.2140094 C9.07520317,21.4888718 9,20.7449633 9,20.0000215 C9,19.25452 9.07516012,18.5090186 9.22238097,17.785474 C9.36792299,17.0775576 9.58324425,16.3814807 9.86468575,15.7181669 C10.1407033,15.0650566 10.4822815,14.4355823 10.8786156,13.8490316 C11.2717211,13.2657529 11.7239301,12.7200162 12.2212095,12.2210348 C12.7179722,11.7247227 13.2657457,11.2741325 13.8473542,10.8798985 C14.4348601,10.4818758 15.0642938,10.1408549 15.7162411,9.86368128 C16.3800263,9.58271902 17.0754512,9.36736914 17.782757,9.22344379 C18.5066789,9.07521316 19.2520813,9 19.9974837,9 C20.7423265,9 21.487729,9.07521316 22.2127271,9.22344379 C22.9189137,9.3674122 23.6143815,9.58276207 24.2787264,9.86368128 C24.9306737,10.1408119 25.5595478,10.4818758 26.1470537,10.8798985 C26.7286622,11.2741325 27.2764787,11.7247227 27.7742746,12.2210348 C28.2710373,12.7200162 28.7232464,13.2657529 29.1157923,13.8490316 C29.5142356,14.4355823 29.8552542,15.0650997 30.1301956,15.7181669 C30.4115941,16.3814807 30.6263988,17.0775576 30.7714242,17.785474 C30.9201517,18.5090186 30.9958715,19.25452 30.9958715,20.0000215 Z M15.9900633,11.5034746 C13.3709096,12.7404663 11.4161008,15.1542189 10.8065548,18.0632073 C11.0541614,18.06536 14.9680837,18.1147845 19.4775617,16.9164542 C17.8519766,14.0278727 16.115201,11.6705623 15.9900633,11.5034746 Z M20.2557229,18.3629406 C15.4197331,19.8109338 10.7791769,19.7067462 10.612714,19.7003313 C10.6100021,19.80129 10.6051808,19.8990198 10.6051808,20.0000215 C10.6051808,22.4132145 11.5154534,24.6132102 13.0116391,26.2766824 C13.0084105,26.2718175 15.5787058,21.7112393 20.6472357,20.0720057 C20.7696614,20.0311917 20.8942826,19.9946399 21.0177845,19.9592075 C20.782059,19.4253534 20.5247668,18.8903799 20.2557229,18.3629406 Z M26.2002168,12.9499179 C24.5466511,11.491635 22.3754449,10.6070732 19.9974407,10.6070732 C19.2343029,10.6070732 18.4937217,10.6994644 17.7843066,10.8702547 C17.9249843,11.0593423 19.6891809,13.4000344 21.2954379,16.3497938 C24.8393709,15.0210137 26.1771005,12.984274 26.2002168,12.9499179 Z M21.6579369,21.5157368 C21.6370161,21.5226683 21.6160952,21.5286526 21.5956479,21.5361438 C16.0540608,23.4682802 14.2443804,27.3620894 14.2248006,27.4045951 C15.8192957,28.6447561 17.8192178,29.3929699 19.9974407,29.3929699 C21.2981068,29.3929699 22.5370434,29.1281093 23.664273,28.6485447 C23.5251881,27.8278301 22.9795669,24.9510882 21.6579369,21.5157368 Z M25.2459071,27.790245 C27.3548243,26.366921 28.8526028,24.1067806 29.2704173,21.4888288 C29.077093,21.4265315 26.449373,20.594537 23.4177857,21.0806456 C24.6497488,24.4666155 25.1502997,27.2241444 25.2459071,27.790245 Z M22.0183267,17.749525 C22.2363169,18.1974889 22.4474195,18.6534175 22.6423365,19.111628 C22.7116422,19.2760034 22.7793121,19.4371498 22.8453463,19.5982532 C26.0718505,19.1921797 29.2505726,19.8753838 29.3864721,19.903282 C29.3649916,17.6764644 28.5685354,15.6327502 27.2506935,14.0327377 C27.2329581,14.0579236 25.7265703,16.234843 22.0183267,17.749525 Z"></path>
                    </g>
                </g>
            </g>
        </g>
    </g>
</svg>