<?xml version="1.0" encoding="UTF-8" standalone="no"?>
<svg width="20px" height="15px" viewBox="0 0 20 15" version="1.1" xmlns="http://www.w3.org/2000/svg" xmlns:xlink="http://www.w3.org/1999/xlink">
    <!-- Generator: sketchtool 39.1 (31720) - http://www.bohemiancoding.com/sketch -->
    <title>2BAE526E-C8B4-40CB-AF65-326E3F79E7BB</title>
    <desc>Created with sketchtool.</desc>
    <defs></defs>
    <g id="Portfolio" stroke="none" stroke-width="1" fill="none" fill-rule="evenodd">
        <g transform="translate(-485.000000, -550.000000)" id="1">
            <g transform="translate(42.000000, 98.000000)">
                <g id="detail-hide" transform="translate(400.000000, 443.522777)">
                    <g id="eye-hide" transform="translate(43.000000, 9.798265)">
                        <path d="M8.8221219,2.27013908 C9.19449604,2.14642124 9.59004592,2.07982646 10,2.07982646 C12.209139,2.07982646 14,4.01364557 14,6.39913232 C14,8.78461908 12.209139,10.7184382 10,10.7184382 C7.790861,10.7184382 6,8.78461908 6,6.39913232 C6,5.95645305 6.06167174,5.52932783 6.1762437,5.12722838 C6.48981554,5.87719503 7.18846121,6.39913232 8,6.39913232 C9.1045695,6.39913232 10,5.43222277 10,4.23947939 C10,3.36315833 9.51664707,2.60874225 8.8221219,2.27013908 Z" id="Combined-Shape" fill="#FFFFFF"></path>
                        <path d="M10,11.7982646 C14.9705627,11.7982646 19,6.39913232 19,6.39913232 C19,6.39913232 14.9705627,1 10,1 C5.02943725,1 1,6.39913232 1,6.39913232 C1,6.39913232 5.02943725,11.7982646 10,11.7982646 Z" id="Oval-2" stroke="#FFFFFF"></path>
                        <path d="M0.428338999,12.3850765 L18.8758762,0.121197165" id="Path-4" stroke="#FFFFFF" stroke-linecap="round"></path>
                    </g>
                </g>
            </g>
        </g>
    </g>
</svg>