<?xml version="1.0" encoding="UTF-8" standalone="no"?>
<svg width="20px" height="13px" viewBox="0 0 20 13" version="1.1" xmlns="http://www.w3.org/2000/svg" xmlns:xlink="http://www.w3.org/1999/xlink">
    <!-- Generator: sketchtool 39.1 (31720) - http://www.bohemiancoding.com/sketch -->
    <title>F4918201-69A2-4F9A-9C21-C00FC7356D0C</title>
    <desc>Created with sketchtool.</desc>
    <defs></defs>
    <g id="Portfolio" stroke="none" stroke-width="1" fill="none" fill-rule="evenodd">
        <g transform="translate(-465.000000, -2252.000000)" id="2">
            <g transform="translate(42.000000, 1800.000000)">
                <g id="detail" transform="translate(399.000000, 442.000000)">
                    <g id="eye" transform="translate(25.000000, 10.798265)">
                        <path d="M7.8221219,1.27013908 C8.19449604,1.14642124 8.59004592,1.07982646 9,1.07982646 C11.209139,1.07982646 13,3.01364557 13,5.39913232 C13,7.78461908 11.209139,9.71843818 9,9.71843818 C6.790861,9.71843818 5,7.78461908 5,5.39913232 C5,4.95645305 5.06167174,4.52932783 5.1762437,4.12722838 C5.48981554,4.87719503 6.18846121,5.39913232 7,5.39913232 C8.1045695,5.39913232 9,4.43222277 9,3.23947939 C9,2.36315833 8.51664707,1.60874225 7.8221219,1.27013908 Z" id="Combined-Shape" fill="#FFFFFF"></path>
                        <path d="M9,10.7982646 C13.9705627,10.7982646 18,5.39913232 18,5.39913232 C18,5.39913232 13.9705627,0 9,0 C4.02943725,0 0,5.39913232 0,5.39913232 C0,5.39913232 4.02943725,10.7982646 9,10.7982646 Z" id="Oval-2" stroke="#FFFFFF"></path>
                    </g>
                </g>
            </g>
        </g>
    </g>
</svg>