<?xml version="1.0" encoding="UTF-8" standalone="no"?>
<svg width="125px" height="34px" viewBox="0 0 125 34" version="1.1" xmlns="http://www.w3.org/2000/svg" xmlns:xlink="http://www.w3.org/1999/xlink">
    <!-- Generator: Sketch 40.1 (33804) - http://www.bohemiancoding.com/sketch -->
    <title>Group 6</title>
    <desc>Created with Sketch.</desc>
    <defs></defs>
    <g id="Portfolio" stroke="none" stroke-width="1" fill="none" fill-rule="evenodd">
        <g transform="translate(-540.000000, -1674.000000)" id="1" fill="#FFFFFF">
            <g transform="translate(42.000000, 98.000000)">
                <g id="opened-detail" transform="translate(0.000000, 460.000000)">
                    <g id="button-GooglePlay" transform="translate(481.000000, 1105.000000)">
                        <g id="Group-6" transform="translate(17.000000, 11.000000)">
                            <g id="Group" transform="translate(29.266667, 10.380564)">
                                <g id="Google-Copy" transform="translate(0.429333, 0.463605)">
                                    <path d="M58.9859186,14.3233088 L58.0037226,15.3202483 C57.7773429,15.4545272 57.5515717,15.6104218 57.326409,15.7211201 C56.6442271,16.054525 55.9504827,16.1383675 55.3340239,16.1383675 C54.6780096,16.1383675 53.6495639,16.0931711 52.6010362,15.276362 C51.1435645,14.1706892 50.5064151,12.2717881 50.5064151,10.6165541 C50.5064151,7.18949272 53.0982197,5.50871299 55.2117058,5.50871299 C55.9510913,5.50871299 56.7099503,5.70783888 57.3270176,6.12770631 C58.353029,6.8573979 58.6183558,7.80652097 58.7656244,8.31547103 L53.937407,10.4148082 L52.3564001,10.547122 C52.8681887,13.3565001 54.6341941,14.9907735 56.5858065,14.9907735 C57.5606999,14.9907735 58.2842631,14.6488534 58.9481886,14.2951429 C58.9475801,14.2957979 59.080852,14.2211257 58.9859186,14.3233088 L58.9859186,14.3233088 L58.9859186,14.3233088 Z M56.0734094,8.73402841 C56.4659226,8.58075387 56.6691775,8.44778494 56.6691775,8.14058086 C56.6691775,7.25761473 55.7411423,6.23840458 54.6335855,6.23840458 C53.8126547,6.23840458 52.2730291,6.92617492 52.2730291,9.31372057 C52.2730291,9.68642659 52.3138017,10.0833683 52.335101,10.4803101 L56.0734094,8.73402841 L56.0734094,8.73402841 L56.0734094,8.73402841 Z" id="Shape"></path>
                                    <path d="M48.8919381,14.1516937 C48.8919381,15.0110792 49.0343383,15.1447031 49.7092176,15.2115151 C50.0609583,15.2560564 50.4114817,15.276362 50.7589624,15.3202483 L49.9994949,15.8069277 L46.3804618,15.8069277 C46.8551291,15.144048 46.9366744,15.0785461 46.9366744,14.636408 L46.9366744,14.1431785 L46.9287633,1.00152463 L45.330717,1.00152463 L46.8685171,0.203711027 L49.8053682,0.203711027 C49.1688274,0.599997752 48.9789605,0.842354923 48.8968065,1.61527779 L48.8919381,14.1516937 L48.8919381,14.1516937 L48.8919381,14.1516937 Z" id="Shape"></path>
                                    <path d="M43.2793028,6.59342507 C43.7503187,7.01067242 44.7349489,7.89560361 44.7349489,9.57572832 C44.7349489,11.2126218 43.8775052,11.9842346 43.012759,12.7145811 C42.7474322,13.0021347 42.4376814,13.3139239 42.4376814,13.7960182 C42.4376814,14.2846627 42.7480407,14.5499455 42.9713777,14.7477613 L43.7131973,15.3641345 C44.615065,16.1835638 45.437213,16.934871 45.437213,18.4610662 C45.437213,20.5407527 43.5677545,22.6368147 40.0351351,22.6368147 C37.059337,22.6368147 35.6207302,21.1119296 35.6207302,19.4763462 C35.6207302,18.6798427 35.988293,17.5525543 37.2035627,16.7809415 C38.4766445,15.9431717 40.2018772,15.8311634 41.125044,15.7656614 C40.8365925,15.3647896 40.5073681,14.9449222 40.5073681,14.259772 C40.5073681,13.8851008 40.6120383,13.6617392 40.7130572,13.3984214 C40.4885031,13.4213471 40.2621234,13.4449278 40.0564342,13.4449278 C37.8784421,13.4449278 36.6467416,11.696026 36.6467416,9.97201504 C36.6467416,8.95542497 37.0775934,7.82813661 37.9624217,7.0100174 C39.1332675,5.97246671 40.5292759,5.79364641 41.6386583,5.79364641 L45.8704989,5.79364641 L44.5548188,6.59342507 L43.2793028,6.59342507 L43.2793028,6.59342507 L43.2793028,6.59342507 Z M41.8236568,16.4062704 C41.6556976,16.3826897 41.5546787,16.3826897 41.3514238,16.3826897 C41.1652082,16.3826897 40.0558258,16.425921 39.1965564,16.7364002 C38.7419713,16.9152204 37.4281169,17.4438211 37.4281169,19.0145576 C37.4281169,20.581364 38.8466415,21.7106174 41.041673,21.7106174 C43.012759,21.7106174 44.0600695,20.6933722 44.0600695,19.3237267 C44.0594609,18.1964384 43.3821474,17.6016808 41.8236568,16.4062704 L41.8236568,16.4062704 L41.8236568,16.4062704 Z M42.4145566,12.2062862 C42.8892237,11.696681 42.930605,10.9918802 42.930605,10.5910084 C42.930605,9.00127632 42.0500365,6.52530306 40.3430603,6.52530306 C39.8105811,6.52530306 39.2336778,6.81351159 38.9062791,7.25761473 C38.5594069,7.71809335 38.4553453,8.31547103 38.4553453,8.88992302 C38.4553453,10.3702669 39.2568026,12.8252794 41.0215909,12.8252794 C41.5358137,12.8252794 42.0895921,12.5560665 42.4145566,12.2062862 L42.4145566,12.2062862 L42.4145566,12.2062862 Z" id="Shape"></path>
                                    <path d="M30.5472681,16.0931711 C27.2830183,16.0931711 25.5364865,13.3565001 25.5364865,10.8798719 C25.5364865,7.98534126 27.7321266,5.50871299 30.8551933,5.50871299 C33.8741983,5.50871299 35.764956,8.05280825 35.764956,10.7239773 C35.764956,13.3322644 33.8961061,16.0931711 30.5472681,16.0931711 L30.5472681,16.0931711 L30.5472681,16.0931711 Z M33.1153394,14.3049682 C33.6119143,13.5975473 33.7324068,12.7145811 33.7324068,11.8538857 C33.7324068,9.90716812 32.8707032,6.19451827 30.3239312,6.19451827 C29.6466176,6.19451827 28.9644356,6.47945171 28.4727291,6.94517049 C27.6706633,7.71874837 27.5276546,8.69014211 27.5276546,9.64385033 C27.5276546,11.8276849 28.5299326,15.4296365 31.0188926,15.4296365 C31.8227841,15.4296365 32.6424978,15.0110792 33.1153394,14.3049682 L33.1153394,14.3049682 L33.1153394,14.3049682 Z" id="Shape"></path>
                                    <path d="M19.6183603,16.0931711 C16.3535019,16.0931711 14.6094043,13.3565001 14.6094043,10.8798719 C14.6094043,7.98534126 16.8056529,5.50871299 19.9275025,5.50871299 C22.9446819,5.50871299 24.8336139,8.05280825 24.8336139,10.7239773 C24.8342225,13.3322644 22.9678067,16.0931711 19.6183603,16.0931711 L19.6183603,16.0931711 L19.6183603,16.0931711 Z M22.1870401,14.3049682 C22.6799637,13.5975473 22.8028904,12.7145811 22.8028904,11.8538857 C22.8028904,9.90716812 21.9387526,6.19451827 19.3944148,6.19451827 C18.714667,6.19451827 18.0397876,6.47945171 17.546864,6.94517049 C16.743581,7.71874837 16.6011808,8.69014211 16.6011808,9.64385033 C16.6011808,11.8276849 17.6077187,15.4296365 20.0924189,15.4296365 C20.8944848,15.4296365 21.7129814,15.0110792 22.1870401,14.3049682 L22.1870401,14.3049682 L22.1870401,14.3049682 Z" id="Shape"></path>
                                    <path d="M13.304678,15.3261435 L10.5516083,16.0040885 C9.43614041,16.1933891 8.43447092,16.3604191 7.3737723,16.3604191 C2.06297666,16.3604191 0.0401641472,12.1525745 0.0401641472,8.86044715 C0.0401641472,4.83862816 2.90703229,1.11091287 7.81618647,1.11091287 C8.85497737,1.11091287 9.85482121,1.27532274 10.7652085,1.54191562 C12.2080751,1.97881355 12.882346,2.51592944 13.304678,2.83164878 L11.7054148,4.46657716 L11.0311439,4.62902196 L11.5118966,3.80369755 C10.8607505,3.11920228 9.66373726,1.8556699 7.39202873,1.8556699 C4.35476724,1.8556699 2.06297666,4.34081343 2.06297666,7.96896577 C2.06297666,11.8656761 4.6797317,15.5311645 8.87505944,15.5311645 C10.1079771,15.5311645 10.7426923,15.2645716 11.3189869,15.0156643 L11.3189869,11.6750655 L8.4125632,11.8434054 L9.95340589,10.9525791 L14.0325011,10.9525791 L13.5341005,11.4693894 C13.3990029,11.592533 13.3813551,11.6344543 13.3436251,11.7995191 C13.3235431,11.9881647 13.3052866,12.5881625 13.3052866,12.7990787 L13.3052866,15.3261435 L13.304678,15.3261435 L13.304678,15.3261435 Z" id="Shape"></path>
                                </g>
                                <g id="Play-Copy" transform="translate(64.185333, 2.549830)">
                                    <path d="M1.21557057,12.6769783 L1.21557057,18.3075249 L0.176779671,18.3075249 L0.176779671,3.98094093 L1.21557057,3.98094093 L1.21557057,5.61193919 C1.89166705,4.558013 3.12823595,3.72155326 4.56501703,3.72155326 C7.14039083,3.72155326 8.87596883,5.82482049 8.87596883,9.15428399 C8.87596883,12.4614768 7.14039083,14.6086304 4.56501703,14.6086304 C3.20917279,14.6092853 1.9945116,13.8566681 1.21557057,12.6769783 L1.21557057,12.6769783 L1.21557057,12.6769783 Z M7.75989237,9.15493901 C7.75989237,6.64555978 6.54462264,4.73159314 4.38975529,4.73159314 C3.05155893,4.73159314 1.77178315,5.86412165 1.21557057,6.85058084 L1.21557057,11.4363715 C1.77178315,12.4254508 3.05155893,13.5985905 4.38975529,13.5985905 C6.54462264,13.5985905 7.75989237,11.6682483 7.75989237,9.15493901 L7.75989237,9.15493901 L7.75989237,9.15493901 Z" id="Shape"></path>
                                    <polygon id="Shape" points="10.2944935 14.3512078 10.2944935 0.0252788966 11.3326758 0.0252788966 11.3326758 14.3512078"></polygon>
                                    <path d="M22.9887982,17.3806724 C23.2103095,17.4867855 23.5894347,17.5529425 23.8304197,17.5529425 C24.4657434,17.5529425 24.9081576,17.2732493 25.3055392,16.284825 L26.0631811,14.4376704 L21.9706979,3.98094093 L23.1293727,3.98094093 L26.6394758,13.0424791 L30.1155001,3.98094093 L31.2906058,3.98094093 L26.2999062,16.6313303 C25.782032,17.9348188 24.9671867,18.5616723 23.8480675,18.5616723 C23.5121492,18.5616723 23.069735,18.4968254 22.8098852,18.4116729 L22.9887982,17.3806724 L22.9887982,17.3806724 L22.9887982,17.3806724 Z" id="Shape"></path>
                                    <path d="M19.9545795,14.3204218 C19.885205,13.9608162 19.8328699,13.6444419 19.7945314,13.379159 C19.7622784,13.1151862 19.7446305,12.8453182 19.7446305,12.5708651 C19.3880215,13.1335268 18.8835356,13.6018656 18.2390835,13.9712966 C17.5940229,14.3420375 16.981824,14.5247879 16.1408111,14.5247879 C15.1287963,14.5247879 14.3437698,14.256885 13.7826889,13.7132189 C13.2240421,13.1702078 12.942893,12.4346211 12.942893,11.5038385 C12.942893,10.574366 13.3500114,9.81978368 14.1618141,9.24271161 C14.9736166,8.66301946 16.0233614,8.37546595 17.3213936,8.37546595 L19.7440219,8.37546595 L19.7440219,7.08638781 C19.7440219,6.34425086 19.508514,5.76128361 19.0399323,5.33748607 C18.5689164,4.91434355 17.9080336,4.69949719 17.0505899,4.69949719 C16.267389,4.69949719 15.6320653,4.89534799 15.1482698,5.27656926 C14.6687342,5.66565078 14.4277493,6.14774505 14.4277493,6.72874723 L13.3646166,6.72874723 L13.3427088,6.67307059 C13.3037618,5.89032242 13.6372459,5.20255208 14.3449869,4.60975954 C15.0490765,4.01696699 15.9728519,3.71893318 17.1090105,3.71893318 C18.2409091,3.71893318 19.157382,4.01238187 19.8486921,4.59796919 C20.5387852,5.17766134 20.8850488,6.01543113 20.8850488,7.11062353 L20.8850488,12.2269799 C20.8850488,12.5944458 20.9008711,12.9494663 20.944078,13.2953165 C20.9878934,13.6418217 21.0578764,13.987672 21.1509842,14.3217319 L19.9545795,14.3217319 L19.9545795,14.3204218 L19.9545795,14.3204218 Z M16.2686061,13.5055777 C17.1510003,13.5055777 17.785107,13.2933515 18.4338188,12.873484 C19.0776622,12.4555817 19.515208,11.9112606 19.745239,11.252311 L19.745239,9.26105216 L17.3110483,9.26105216 C16.3811874,9.26105216 15.6113746,9.48244871 15.0058696,9.92982699 C14.3991476,10.3752401 14.0912225,10.9143211 14.0912225,11.5411746 C14.0912225,12.1320021 14.2859578,12.6055811 14.6736026,12.9638767 C15.0612475,13.3261024 15.5919011,13.5055777 16.2686061,13.5055777 L16.2686061,13.5055777 L16.2686061,13.5055777 Z" id="Shape"></path>
                                </g>
                            </g>
                            <path d="M0.833357637,27.1331909 C0.410190353,27.0101079 0.134751773,26.5564405 0.134751773,25.8544108 L0.134751773,2.68144227 C0.134751773,2.0312558 0.367969655,1.59275234 0.73766507,1.43332103 L0.73766507,1.43332103 L11.2835019,14.3472871 L0.833357637,27.1331909 L0.833357637,27.1331909 L0.833357637,27.1331909 Z M2.28506789,26.641303 L14.9789272,18.8725418 L11.8871574,15.0864969 L2.28506789,26.641303 L2.28506789,26.641303 L2.28506789,26.641303 Z M2.54938157,2.05665605 L11.9054602,13.5863121 L15.0663383,9.71893167 L2.54938157,2.05665605 Z M15.9156036,10.2388108 L20.8190581,13.2404685 C21.7474685,13.8087964 21.7559589,14.7249349 20.8190581,15.2983269 L15.791551,18.3752084 L12.5123376,14.3341777 L15.9156036,10.2388108 L15.9156036,10.2388108 L15.9156036,10.2388108 Z" id="google-play-copy"></path>
                            <path d="M32.8859546,6.30096429 L35.0867546,0.250912579 L33.9695546,0.250912579 L32.2727546,5.14900542 L30.5759546,0.250912579 L29.4587546,0.250912579 L31.6595546,6.30096429 L32.8859546,6.30096429 Z M36.6827546,6.30096429 L36.6827546,0.250912579 L35.6999546,0.250912579 L35.6999546,6.30096429 L36.6827546,6.30096429 Z M41.7143546,6.30096429 L41.7143546,5.36669844 L38.8583546,5.36669844 L38.8583546,3.68864811 L41.6555546,3.68864811 L41.6555546,2.75438225 L38.8583546,2.75438225 L38.8583546,1.18517844 L41.7143546,1.18517844 L41.7143546,0.250912579 L37.8755546,0.250912579 L37.8755546,6.30096429 L41.7143546,6.30096429 Z M48.0563546,6.30096429 L49.6523546,0.250912579 L48.5519546,0.250912579 L47.4683546,4.91317132 L46.3091546,0.250912579 L45.5279546,0.250912579 L44.3687546,4.91317132 L43.2767546,0.250912579 L42.1763546,0.250912579 L43.7807546,6.30096429 L44.8307546,6.30096429 L45.9143546,1.83825748 L47.0063546,6.30096429 L48.0563546,6.30096429 Z M55.0787546,6.4098108 C56.7587546,6.4098108 57.9431546,5.08551162 57.9431546,3.28047371 C57.9431546,1.47543579 56.7587546,0.151136614 55.0787546,0.151136614 C53.3987546,0.151136614 52.2143546,1.47543579 52.2143546,3.28047371 C52.2143546,5.08551162 53.3987546,6.4098108 55.0787546,6.4098108 L55.0787546,6.4098108 Z M55.0787546,5.4664744 C53.9447546,5.4664744 53.2223546,4.523138 53.2223546,3.28047371 C53.2223546,2.02873887 53.9447546,1.09447301 55.0787546,1.09447301 C56.2043546,1.09447301 56.9351546,2.02873887 56.9351546,3.28047371 C56.9351546,4.523138 56.2043546,5.4664744 55.0787546,5.4664744 L55.0787546,5.4664744 Z M63.7475546,6.30096429 L63.7475546,0.250912579 L62.7647546,0.250912579 L62.7647546,4.45057366 L59.9003546,0.250912579 L58.8923546,0.250912579 L58.8923546,6.30096429 L59.8751546,6.30096429 L59.8751546,1.98338616 L62.7983546,6.30096429 L63.7475546,6.30096429 Z" id="VIEW-ON"></path>
                        </g>
                    </g>
                </g>
            </g>
        </g>
    </g>
</svg>